<?xml version="1.0" encoding="utf-8"?>
<!-- Generator: Adobe Illustrator 23.0.6, SVG Export Plug-In . SVG Version: 6.00 Build 0)  -->
<svg version="1.1" id="Layer_1" xmlns="http://www.w3.org/2000/svg" xmlns:xlink="http://www.w3.org/1999/xlink" x="0px" y="0px"
	 viewBox="0 0 1000 250" style="enable-background:new 0 0 1000 250;" xml:space="preserve">
<style type="text/css">
	.st0{fill:#1E1A1C;}
	.st1{fill:#F09021;}
	.st2{fill:#E85C26;}
	.st3{fill:#026BB1;}
	.st4{fill:#A7A836;}
	.st5{fill:#66B6E5;}
</style>
<g>
	<g>
		<g>
			<path class="st0" d="M294,171c3.4,0,6.4-0.4,8.9-1c2.5-0.6,4.9-1.5,7.2-2.6l-0.1-14.8l-10.2,0.1c-1,0-1.8-0.3-2.3-0.8
				c-0.6-0.5-0.8-1.2-0.8-2l-0.1-8.6l27.1-0.2l0.2,32.9c-2.1,1.5-4.2,2.8-6.4,4c-2.2,1.1-4.6,2-7.1,2.8c-2.5,0.7-5.2,1.3-8.1,1.7
				c-2.9,0.4-6,0.6-9.4,0.6c-5.9,0-11.4-0.9-16.4-3c-5-2-9.3-4.9-13-8.5c-3.6-3.6-6.5-8-8.6-13.1c-2.1-5.1-3.1-10.6-3.2-16.7
				c0-6.1,0.9-11.8,2.9-16.8c1.9-5.1,4.7-9.5,8.4-13.2c3.6-3.7,8-6.6,13.2-8.6c5.2-2.1,11.1-3.1,17.5-3.2c6.6,0,12.4,0.9,17.3,2.9
				c4.9,1.9,9,4.4,12.4,7.6l-4.3,6.9c-0.8,1.4-2,2.1-3.4,2.1c-0.9,0-1.8-0.3-2.8-0.9c-1.2-0.7-2.4-1.4-3.7-2.1
				c-1.2-0.7-2.6-1.3-4.2-1.8c-1.5-0.5-3.2-0.9-5.1-1.3c-1.9-0.3-4.1-0.5-6.6-0.4c-4,0-7.6,0.7-10.9,2.1c-3.2,1.4-6,3.3-8.2,5.9
				c-2.3,2.5-4,5.6-5.2,9.1c-1.2,3.5-1.8,7.5-1.8,11.8c0,4.7,0.7,8.9,2.1,12.5c1.3,3.6,3.2,6.7,5.6,9.2c2.4,2.5,5.2,4.4,8.5,5.7
				C286.6,170.3,290.1,171,294,171z"/>
			<path class="st0" d="M336.5,181.8l-0.4-57.7l8.2,0c1.4,0,2.4,0.2,3,0.8c0.6,0.5,1,1.4,1.1,2.7l0.9,7c2-3.6,4.5-6.4,7.2-8.5
				c2.8-2.1,5.9-3.1,9.3-3.1c2.9,0,5.2,0.6,7.1,1.9l-1.8,10.4c-0.1,0.7-0.3,1.2-0.7,1.5c-0.4,0.3-0.9,0.4-1.5,0.4
				c-0.6,0-1.3-0.1-2.3-0.3c-1-0.3-2.3-0.4-3.9-0.4c-2.9,0-5.3,0.8-7.4,2.4c-2.1,1.6-3.8,4-5.2,7.1l0.2,35.9L336.5,181.8z"/>
			<path class="st0" d="M396.2,106.9c0,1.2-0.2,2.3-0.7,3.4c-0.5,1-1.1,2-1.9,2.8c-0.8,0.8-1.8,1.4-2.8,1.9
				c-1.1,0.5-2.3,0.7-3.5,0.7c-1.2,0-2.3-0.2-3.4-0.7c-1.1-0.5-2-1.1-2.8-1.9c-0.8-0.8-1.4-1.7-1.9-2.7c-0.5-1-0.7-2.2-0.7-3.4
				c0-1.2,0.2-2.4,0.7-3.5c0.5-1.1,1.1-2.1,1.9-2.9c0.8-0.8,1.7-1.4,2.8-1.9c1.1-0.5,2.2-0.7,3.4-0.7c1.2,0,2.4,0.2,3.5,0.7
				c1.1,0.5,2,1.1,2.9,1.9c0.8,0.8,1.5,1.7,1.9,2.8C395.9,104.5,396.2,105.6,396.2,106.9z M394.2,123.7l0.4,57.7l-13.9,0.1
				l-0.4-57.7L394.2,123.7z"/>
			<path class="st0" d="M449.1,181c-1.8,0-3-0.8-3.5-2.5l-1.2-5.5c-1.2,1.3-2.4,2.6-3.8,3.7c-1.3,1.1-2.7,2-4.2,2.8
				c-1.5,0.8-3.2,1.4-4.9,1.9c-1.7,0.4-3.6,0.7-5.6,0.7c-3.1,0-6.1-0.6-8.7-1.9c-2.6-1.3-4.9-3.2-6.8-5.6c-1.9-2.5-3.4-5.6-4.4-9.3
				c-1.1-3.7-1.6-7.9-1.6-12.6c0-4.3,0.5-8.2,1.7-11.9c1.1-3.7,2.8-6.9,5-9.6c2.1-2.7,4.7-4.9,7.8-6.4c3-1.5,6.4-2.3,10.2-2.3
				c3.2,0,6,0.5,8.3,1.5c2.3,1,4.3,2.4,6.2,4.1l-0.2-30.5l13.9-0.1l0.6,83.6L449.1,181z M430.5,171c2.9,0,5.3-0.6,7.3-1.8
				c2-1.2,3.9-2.9,5.7-5.2l-0.2-25.9c-1.6-1.9-3.3-3.3-5.2-4c-1.9-0.8-3.9-1.1-6-1.1c-2.1,0-4,0.4-5.7,1.2c-1.7,0.8-3.1,2-4.3,3.6
				c-1.2,1.6-2.1,3.6-2.7,6.1c-0.6,2.5-0.9,5.3-0.9,8.7c0,3.4,0.3,6.2,0.9,8.6c0.6,2.4,1.4,4.3,2.4,5.7c1,1.5,2.3,2.5,3.7,3.2
				C427,170.7,428.7,171,430.5,171z"/>
		</g>
		<g>
			<path class="st0" d="M572.8,139.5c0,6-0.9,11.4-2.9,16.5c-2,5-4.7,9.3-8.3,12.9c-3.6,3.6-7.9,6.5-13,8.5
				c-5.1,2-10.7,3.1-16.8,3.1l-31.1,0.2l-0.5-81.4l31-0.2c6.1,0,11.7,0.9,16.8,2.9c5.1,2,9.4,4.8,13.1,8.3c3.6,3.5,6.4,7.8,8.5,12.8
				C571.7,128.1,572.7,133.6,572.8,139.5z M557.3,139.6c0-4.5-0.7-8.4-1.9-12c-1.2-3.5-2.9-6.5-5.2-9c-2.2-2.4-4.9-4.3-8.1-5.6
				c-3.2-1.3-6.8-1.9-10.7-1.9l-15.8,0.1l0.4,57.3l15.8-0.1c4,0,7.5-0.7,10.7-2.1c3.2-1.3,5.8-3.2,8-5.7c2.2-2.4,3.9-5.5,5.1-9
				C556.8,148.1,557.3,144.1,557.3,139.6z"/>
			<path class="st0" d="M604.1,195.9c-0.4,1-0.9,1.7-1.6,2.2c-0.6,0.5-1.6,0.8-3,0.8l-10.4,0.1l10.7-23.2l-23.7-53.3l12.2-0.1
				c1.1,0,2,0.2,2.6,0.8c0.6,0.5,1.1,1.1,1.4,1.8l12.5,29.8c0.4,1,0.8,2,1.1,3c0.3,1.1,0.6,2.1,0.8,3.2c0.3-1.1,0.6-2.2,1-3.2
				c0.3-1,0.7-2.1,1.1-3.1l11.4-30c0.3-0.7,0.8-1.4,1.5-1.9c0.7-0.5,1.5-0.7,2.3-0.7l11.2-0.1L604.1,195.9z"/>
			<path class="st0" d="M642,179.8l-0.4-57.7l8.5,0c1.8,0,3,0.8,3.6,2.5l1,4.6c1.1-1.2,2.4-2.3,3.6-3.3c1.3-1,2.6-1.8,4.1-2.6
				c1.4-0.7,3-1.3,4.6-1.6c1.6-0.4,3.5-0.6,5.4-0.6c3.2,0,5.9,0.5,8.4,1.5c2.4,1.1,4.5,2.5,6.1,4.5c1.6,1.9,2.9,4.2,3.7,6.9
				c0.9,2.7,1.3,5.6,1.3,8.9l0.3,36.7l-13.9,0.1l-0.2-36.7c0-3.6-0.9-6.3-2.5-8.2c-1.6-1.9-4.1-2.9-7.3-2.8c-2.4,0-4.7,0.6-6.7,1.7
				c-2.1,1.1-4.1,2.6-5.9,4.5l0.3,41.8L642,179.8z"/>
			<path class="st0" d="M749,179l-6.3,0.1c-1.3,0-2.3-0.2-3.1-0.6c-0.8-0.4-1.3-1.2-1.7-2.4l-1.3-4.1c-1.4,1.3-2.8,2.5-4.3,3.5
				c-1.4,1-2.8,1.8-4.3,2.5c-1.5,0.7-3.1,1.2-4.8,1.5c-1.7,0.3-3.6,0.5-5.6,0.5c-2.4,0-4.7-0.3-6.7-1c-2.1-0.6-3.9-1.6-5.4-2.9
				c-1.5-1.3-2.6-2.9-3.5-4.9c-0.9-1.9-1.3-4.2-1.3-6.8c0-2.2,0.5-4.3,1.7-6.5c1.2-2.1,3-4,5.7-5.8c2.6-1.7,6.2-3.2,10.6-4.3
				c4.4-1.2,9.9-1.8,16.4-1.8l0-3.4c0-3.9-0.9-6.8-2.5-8.6c-1.7-1.9-4-2.8-7.1-2.8c-2.3,0-4.1,0.3-5.6,0.8c-1.5,0.5-2.8,1.1-3.9,1.8
				c-1.1,0.6-2.1,1.3-3.1,1.8c-0.9,0.5-2,0.8-3.1,0.8c-1,0-1.8-0.3-2.4-0.8c-0.7-0.5-1.2-1.1-1.7-1.8l-2.6-4.4
				c6.6-6.1,14.6-9.2,23.9-9.3c3.4,0,6.4,0.5,9.1,1.6c2.7,1.1,4.9,2.6,6.7,4.6c1.9,2,3.2,4.3,4.2,7c1,2.7,1.5,5.7,1.5,9L749,179z
				 M721.9,170.6c1.4,0,2.7-0.1,3.9-0.4c1.2-0.3,2.3-0.6,3.4-1.2c1.1-0.5,2.1-1.1,3.1-1.9c1-0.8,2-1.7,3-2.7l-0.1-9.7
				c-4,0-7.4,0.3-10.1,0.8c-2.7,0.5-4.9,1.2-6.5,2c-1.7,0.8-2.8,1.7-3.5,2.8c-0.7,1.1-1,2.2-1,3.5c0,2.5,0.7,4.2,2.2,5.3
				C717.7,170.1,719.6,170.6,721.9,170.6z"/>
			<path class="st0" d="M761.1,179l-0.4-57.8l8.5,0c1.8,0,3,0.8,3.5,2.5l1,4.3c1-1.2,2.1-2.2,3.2-3.1c1.1-0.9,2.2-1.8,3.5-2.4
				c1.3-0.7,2.6-1.2,4-1.6c1.5-0.4,3-0.6,4.8-0.6c3.6,0,6.6,0.9,9,2.9c2.3,2,4.1,4.6,5.3,7.8c0.9-1.9,2-3.6,3.4-4.9
				c1.3-1.4,2.8-2.5,4.4-3.4c1.6-0.9,3.3-1.5,5.2-1.9c1.8-0.4,3.6-0.7,5.5-0.7c3.2,0,6.1,0.4,8.5,1.4c2.5,0.9,4.6,2.4,6.3,4.2
				c1.7,1.9,3,4.2,3.9,6.8c0.9,2.7,1.3,5.8,1.4,9.3l0.3,36.7l-13.9,0.1l-0.2-36.7c0-3.7-0.9-6.4-2.5-8.3c-1.6-1.9-4-2.7-7.1-2.7
				c-1.4,0-2.7,0.3-3.9,0.8c-1.2,0.5-2.3,1.2-3.2,2.1c-0.9,0.9-1.6,2.1-2.1,3.5c-0.5,1.4-0.8,3-0.7,4.8l0.2,36.7l-14,0.1l-0.2-36.7
				c0-3.9-0.8-6.7-2.4-8.4c-1.6-1.8-3.9-2.6-6.9-2.6c-2,0-3.8,0.5-5.6,1.5c-1.7,1-3.3,2.4-4.8,4.1l0.3,42.3L761.1,179z"/>
			<path class="st0" d="M870,103.7c0,1.2-0.2,2.4-0.7,3.4c-0.5,1.1-1.1,2-1.9,2.8c-0.8,0.8-1.7,1.4-2.8,1.9
				c-1.1,0.5-2.3,0.7-3.5,0.7c-1.2,0-2.3-0.2-3.4-0.7c-1-0.4-2-1-2.8-1.9c-0.8-0.8-1.5-1.7-1.9-2.7c-0.5-1-0.7-2.2-0.8-3.4
				c0-1.2,0.2-2.4,0.7-3.5c0.5-1.1,1.1-2,1.9-2.8c0.8-0.8,1.7-1.4,2.8-1.9c1-0.5,2.2-0.7,3.4-0.7c1.2,0,2.4,0.2,3.5,0.7
				c1.1,0.5,2,1.1,2.9,1.9c0.8,0.8,1.5,1.7,2,2.8C869.8,101.3,870,102.4,870,103.7z M868,120.5l0.4,57.7l-13.9,0.1l-0.4-57.7
				L868,120.5z"/>
			<path class="st0" d="M922.2,132.4c-0.4,0.5-0.8,0.9-1.2,1.2c-0.4,0.3-1,0.5-1.7,0.5c-0.7,0-1.4-0.2-2.1-0.6
				c-0.7-0.4-1.5-0.9-2.4-1.4c-0.9-0.5-2.1-1-3.3-1.4c-1.3-0.4-2.9-0.7-4.8-0.6c-2.4,0-4.6,0.5-6.4,1.4c-1.8,0.9-3.4,2.2-4.6,3.8
				c-1.2,1.7-2.1,3.7-2.7,6c-0.6,2.3-0.9,5-0.9,7.9c0,3.1,0.4,5.8,1.1,8.2c0.7,2.4,1.6,4.4,2.9,6c1.3,1.6,2.8,2.8,4.5,3.7
				c1.8,0.8,3.8,1.2,6,1.2c2.2,0,4-0.3,5.3-0.9c1.4-0.6,2.5-1.2,3.5-1.8c0.9-0.7,1.8-1.2,2.4-1.8c0.7-0.6,1.5-0.8,2.3-0.8
				c1.1,0,2,0.4,2.5,1.3l4,5c-1.5,1.8-3.2,3.4-5,4.6c-1.8,1.2-3.7,2.2-5.6,2.9c-1.9,0.8-3.9,1.3-6,1.6c-2,0.3-4.1,0.5-6.1,0.5
				c-3.6,0-6.9-0.6-10.1-1.9c-3.2-1.3-5.9-3.2-8.3-5.8c-2.4-2.5-4.3-5.6-5.6-9.3c-1.4-3.7-2.1-7.9-2.1-12.6c0-4.2,0.5-8.2,1.8-11.8
				c1.2-3.7,3-6.8,5.3-9.5c2.4-2.6,5.3-4.8,8.7-6.3c3.5-1.5,7.5-2.3,12-2.4c4.3,0,8.1,0.7,11.4,2c3.2,1.4,6.1,3.3,8.8,5.9
				L922.2,132.4z"/>
			<path class="st0" d="M970,131.1c-0.4,0.6-0.7,1-1.2,1.3c-0.4,0.3-0.9,0.4-1.6,0.4c-0.7,0-1.4-0.2-2.2-0.5
				c-0.8-0.4-1.6-0.8-2.7-1.3c-1-0.5-2.2-0.9-3.5-1.2c-1.3-0.4-2.8-0.5-4.6-0.5c-2.7,0-4.9,0.6-6.5,1.8c-1.5,1.2-2.3,2.7-2.3,4.6
				c0,1.2,0.4,2.3,1.2,3.1c0.8,0.8,1.9,1.6,3.2,2.2c1.3,0.6,2.8,1.2,4.5,1.7c1.7,0.5,3.4,1.1,5.2,1.6c1.8,0.6,3.5,1.2,5.2,2
				c1.7,0.7,3.2,1.7,4.5,2.9c1.3,1.2,2.4,2.6,3.2,4.2c0.8,1.6,1.3,3.6,1.3,6c0,2.8-0.5,5.3-1.5,7.7c-0.9,2.3-2.4,4.4-4.4,6.1
				c-1.9,1.7-4.3,3.1-7.2,4c-2.9,1-6.1,1.5-9.9,1.5c-2,0-3.9-0.2-5.8-0.5c-1.9-0.3-3.7-0.8-5.5-1.4c-1.7-0.6-3.4-1.4-4.9-2.2
				c-1.4-0.9-2.8-1.8-3.9-2.8l3.2-5.3c0.4-0.6,0.9-1.1,1.4-1.5c0.6-0.3,1.3-0.5,2.1-0.5c0.9,0,1.7,0.2,2.4,0.7
				c0.8,0.5,1.7,1,2.7,1.6c1,0.5,2.2,1.1,3.6,1.5c1.4,0.5,3.1,0.7,5.2,0.7c1.6,0,3-0.2,4.2-0.7c1.2-0.4,2.2-0.9,2.9-1.6
				c0.7-0.6,1.3-1.4,1.7-2.2c0.4-0.8,0.5-1.7,0.5-2.6c0-1.4-0.4-2.5-1.2-3.3c-0.8-0.8-1.9-1.6-3.2-2.2c-1.3-0.6-2.9-1.2-4.6-1.7
				c-1.7-0.5-3.4-1.1-5.3-1.6c-1.8-0.5-3.6-1.3-5.2-2.1c-1.7-0.8-3.3-1.8-4.6-3c-1.3-1.2-2.4-2.7-3.2-4.5c-0.8-1.8-1.3-3.9-1.3-6.5
				c0-2.4,0.4-4.6,1.4-6.8c0.9-2.1,2.3-4,4.1-5.6c1.8-1.6,4.1-2.9,6.8-3.9c2.7-1,5.8-1.5,9.4-1.5c4,0,7.6,0.6,10.9,1.9
				c3.2,1.3,6,3,8.2,5.1L970,131.1z"/>
		</g>
	</g>
	<g>
		<path class="st1" d="M196.7,127L196.7,127c-9.4-43.2-57.9-83.5-91-87l0,0c-2.7,1.7-4.9,3.9-6.7,6.4c19.3,1.6,36.2,14.4,55.7,35
			c15.1,16,25.3,41.6,28,68.7c1,10.7,0.9,21.6-0.5,32.3C197.5,165.2,200.8,145.8,196.7,127z"/>
		<path class="st2" d="M182.7,150c1,10.7,0.9,21.6-0.5,32.3c-17.5,20-78.2,30.2-116.7,27.6l0,0c-5.9-8.3-8.9-17.4-9.7-27
			C104.7,191.8,157.1,176.6,182.7,150z"/>
		<path class="st3" d="M145.5,88.1c11.4,18,9.4,50.4-3.1,69.2l-1.6-0.4c-8.5-3.5-17.1-11.8-24.6-22.4c25-30.8,10.9-53.9-6.8-58.6
			c-5.3-1.4-10.9-1.1-15.8,1.1C110.4,68.8,132.8,69.7,145.5,88.1z"/>
		<path class="st4" d="M93.5,77c5-2.2,10.5-2.5,15.8-1.1c-4.4,4.2-9,9-13.6,14.3c-1.1-4.5-1.9-8.9-2.4-13.2l0,0
			C93.4,77,93.4,77,93.5,77z"/>
		<path class="st5" d="M140.8,156.9c-8.5-3.5-17.1-11.8-24.6-22.4c-9-12.7-16.5-28.8-20.4-44.3c-1.1-4.5-1.9-8.9-2.4-13.2l0,0
			C92,64.9,93.5,54,99,46.3c1.8-2.5,4-4.7,6.7-6.4l0,0c-10-1.1-18.6,1.2-24.3,7.9h0c-4.3,5-7,12.5-7.3,22.8C73.5,76,73,83.5,73,92.2
			c0,8.4,0.4,17.9,1.5,27.4c4.2,35.8,18.5,71.3,56.7,48.9c4.4-2.6,8.1-6.4,11.2-11.1L140.8,156.9z"/>
		<path class="st4" d="M55.7,182.9c-1.8-20.6,6.7-43.2,18.8-63.4c-1.1-9.5-1.5-18.9-1.5-27.4c-20,18.8-44,55.1-46.7,82.4
			c-1.4,14.2,2.9,26,16.7,31.5c5.7,2,13.5,3.3,22.5,3.9l0,0C59.5,201.7,56.5,192.5,55.7,182.9z"/>
	</g>
</g>
</svg>
