<?xml version="1.0" encoding="utf-8"?>
<!-- Generator: Adobe Illustrator 23.0.6, SVG Export Plug-In . SVG Version: 6.00 Build 0)  -->
<svg version="1.1" id="Layer_1" xmlns="http://www.w3.org/2000/svg" xmlns:xlink="http://www.w3.org/1999/xlink" x="0px" y="0px"
	 viewBox="0 0 946.9 720.9" style="enable-background:new 0 0 946.9 720.9;" xml:space="preserve">
<style type="text/css">
	.st0{fill:#4D4D4F;}
	.st1{fill:#F7941D;}
	.st2{fill:#F26531;}
	.st3{fill:#0072BC;}
	.st4{fill:#9DA719;}
	.st5{fill:#53B7E8;}
</style>
<path class="st0" d="M77.3,658.2c4.2,0,7.9-0.4,11.1-1.2c3.1-0.8,6.1-1.8,9-3.2v-18.4H84.7c-1.2,0-2.2-0.3-2.9-1
	c-0.7-0.7-1.1-1.5-1.1-2.5v-10.7h33.7v40.9c-2.6,1.9-5.3,3.5-8,4.9c-2.8,1.3-5.7,2.5-8.9,3.4c-3.2,0.9-6.5,1.6-10.1,2
	c-3.6,0.4-7.5,0.7-11.6,0.7c-7.4,0-14.2-1.3-20.4-3.8c-6.2-2.6-11.6-6.1-16.1-10.7c-4.5-4.5-8-10-10.6-16.4
	c-2.5-6.3-3.8-13.3-3.8-20.8c0-7.6,1.2-14.6,3.7-20.9c2.5-6.4,6-11.8,10.5-16.4c4.5-4.6,10.1-8.1,16.5-10.6
	c6.5-2.5,13.8-3.8,21.8-3.8c8.3,0,15.4,1.2,21.5,3.7c6,2.4,11.2,5.6,15.3,9.5l-5.5,8.5c-1.1,1.7-2.5,2.6-4.3,2.6
	c-1.1,0-2.3-0.4-3.4-1.1c-1.5-0.9-3-1.8-4.6-2.7c-1.6-0.9-3.3-1.7-5.2-2.3c-1.9-0.6-4-1.2-6.4-1.6c-2.4-0.4-5.1-0.6-8.1-0.6
	c-5,0-9.5,0.8-13.6,2.5c-4,1.7-7.5,4.1-10.3,7.2c-2.9,3.1-5,6.9-6.6,11.3c-1.5,4.4-2.3,9.3-2.3,14.7c0,5.8,0.8,11,2.4,15.6
	c1.6,4.5,3.9,8.4,6.9,11.5c3,3.1,6.5,5.5,10.5,7.2C68,657.4,72.5,658.2,77.3,658.2"/>
<path class="st0" d="M130,672.1v-71.8h10.1c1.8,0,3,0.3,3.7,1c0.7,0.6,1.2,1.8,1.4,3.4l1,8.7c2.6-4.4,5.6-8,9-10.5
	c3.5-2.6,7.3-3.9,11.6-3.9c3.5,0,6.5,0.8,8.8,2.4l-2.3,13c-0.2,0.8-0.4,1.4-0.9,1.8c-0.5,0.3-1.1,0.5-1.9,0.5
	c-0.7,0-1.7-0.1-2.9-0.5c-1.2-0.3-2.8-0.5-4.9-0.5c-3.6,0-6.7,1-9.2,3c-2.6,2-4.7,4.9-6.5,8.7v44.7H130z"/>
<path class="st0" d="M204.9,579.3c0,1.5-0.3,2.9-0.9,4.2c-0.6,1.3-1.4,2.4-2.4,3.4c-1,1-2.2,1.7-3.5,2.3c-1.4,0.6-2.8,0.9-4.4,0.9
	c-1.5,0-2.9-0.3-4.2-0.9c-1.3-0.6-2.5-1.4-3.5-2.3c-1-1-1.7-2.1-2.4-3.4c-0.6-1.3-0.9-2.7-0.9-4.2c0-1.6,0.3-3,0.9-4.3
	c0.6-1.4,1.3-2.5,2.4-3.5c1-1,2.1-1.8,3.5-2.4c1.3-0.6,2.7-0.9,4.2-0.9c1.6,0,3,0.3,4.4,0.9c1.3,0.6,2.5,1.4,3.5,2.4
	c1,1,1.8,2.1,2.4,3.5C204.6,576.3,204.9,577.8,204.9,579.3 M202.3,672.1H185v-71.8h17.3V672.1z"/>
<path class="st0" d="M270,672.1c-2.3,0-3.7-1-4.4-3.1l-1.4-6.9c-1.5,1.7-3,3.2-4.7,4.6c-1.6,1.3-3.4,2.5-5.3,3.5
	c-1.9,1-4,1.7-6.1,2.3c-2.2,0.5-4.5,0.8-7,0.8c-3.9,0-7.5-0.8-10.8-2.4c-3.3-1.7-6.1-4-8.4-7.1c-2.4-3.1-4.2-6.9-5.5-11.5
	c-1.3-4.6-1.9-9.8-1.9-15.7c0-5.3,0.7-10.3,2.2-14.8c1.4-4.6,3.5-8.6,6.2-11.9c2.7-3.4,6-6,9.7-7.9c3.8-1.9,8-2.8,12.7-2.8
	c4,0,7.4,0.7,10.3,1.9c2.9,1.3,5.4,3,7.7,5.2v-37.9h17.3v104H270z M247,659.4c3.6,0,6.6-0.7,9.2-2.2c2.5-1.5,4.9-3.6,7.2-6.4v-32.2
	c-2-2.4-4.1-4.1-6.4-5c-2.3-1-4.8-1.5-7.5-1.5c-2.6,0-5,0.5-7.1,1.5c-2.1,1-3.9,2.4-5.4,4.4c-1.5,2-2.6,4.5-3.4,7.6
	c-0.8,3.1-1.2,6.7-1.2,10.8c0,4.2,0.3,7.8,1,10.7c0.7,2.9,1.7,5.3,2.9,7.1c1.2,1.9,2.8,3.2,4.6,4C242.7,659,244.8,659.4,247,659.4"
	/>
<path class="st0" d="M424.2,621.5c0,7.4-1.2,14.2-3.7,20.4c-2.5,6.2-6,11.6-10.4,16c-4.5,4.5-9.9,8-16.2,10.5
	c-6.3,2.4-13.3,3.7-20.9,3.7h-38.6V570.9H373c7.6,0,14.6,1.2,20.9,3.7c6.3,2.5,11.7,6,16.2,10.4c4.4,4.5,7.9,9.8,10.4,16
	C423,607.2,424.2,614.1,424.2,621.5 M405,621.5c0-5.6-0.8-10.5-2.3-14.9c-1.5-4.4-3.6-8.1-6.4-11.2c-2.7-3.1-6.1-5.4-10-7
	c-3.9-1.6-8.4-2.5-13.3-2.5h-19.7v71.2H373c4.9,0,9.4-0.8,13.3-2.4c4-1.6,7.3-4,10-7.1c2.8-3,4.9-6.8,6.4-11.2
	C404.2,632,405,627,405,621.5"/>
<path class="st0" d="M462.8,691.8c-0.5,1.2-1.2,2.1-2,2.8c-0.8,0.6-2.1,1-3.7,1h-12.9l13.4-28.8l-29-66.5h15.1c1.4,0,2.5,0.3,3.2,1
	c0.8,0.7,1.3,1.4,1.7,2.2l15.3,37.2c0.5,1.2,1,2.5,1.3,3.8c0.4,1.3,0.7,2.6,1,3.9c0.4-1.4,0.8-2.7,1.2-3.9c0.4-1.2,0.9-2.5,1.4-3.8
	l14.4-37.2c0.4-0.9,1-1.7,1.9-2.3c0.9-0.6,1.8-0.9,2.9-0.9h13.9L462.8,691.8z"/>
<path class="st0" d="M509.9,672.1v-71.8h10.6c2.3,0,3.7,1,4.4,3.1l1.2,5.7c1.4-1.5,3-2.9,4.6-4c1.6-1.2,3.3-2.3,5.1-3.2
	c1.8-0.9,3.7-1.6,5.8-2c2.1-0.5,4.3-0.7,6.7-0.7c3.9,0,7.4,0.7,10.4,2c3,1.3,5.6,3.2,7.6,5.6c2,2.4,3.6,5.3,4.6,8.6
	c1,3.3,1.6,7,1.6,11v45.7h-17.3v-45.7c0-4.4-1-7.8-3.1-10.2c-2-2.4-5.1-3.6-9.1-3.6c-3,0-5.8,0.7-8.4,2c-2.6,1.4-5.1,3.2-7.4,5.5
	v51.9H509.9z"/>
<path class="st0" d="M643,672.1h-7.8c-1.7,0-2.9-0.3-3.9-0.7c-0.9-0.5-1.6-1.5-2.1-3l-1.5-5.1c-1.8,1.6-3.6,3.1-5.4,4.3
	c-1.7,1.3-3.6,2.3-5.4,3.1c-1.9,0.8-3.8,1.4-5.9,1.9c-2.1,0.4-4.4,0.6-7,0.6c-3,0-5.8-0.4-8.4-1.2c-2.6-0.8-4.8-2-6.6-3.7
	c-1.8-1.6-3.3-3.7-4.3-6.1c-1-2.4-1.6-5.2-1.6-8.5c0-2.7,0.7-5.4,2.1-8.1c1.5-2.6,3.8-5,7.1-7.2c3.3-2.1,7.7-3.9,13.2-5.3
	c5.5-1.4,12.3-2.1,20.5-2.1v-4.2c0-4.8-1-8.4-3-10.7c-2-2.3-5-3.5-8.9-3.5c-2.8,0-5.1,0.3-7,1c-1.9,0.7-3.5,1.4-4.9,2.2
	c-1.4,0.8-2.6,1.5-3.8,2.2c-1.2,0.6-2.5,1-3.9,1c-1.2,0-2.2-0.3-3-0.9c-0.9-0.6-1.5-1.4-2-2.3l-3.1-5.5c8.3-7.6,18.2-11.3,29.9-11.3
	c4.2,0,7.9,0.7,11.2,2.1c3.3,1.4,6.1,3.3,8.3,5.8c2.3,2.5,4,5.4,5.2,8.8c1.2,3.4,1.8,7.1,1.8,11.2V672.1z M609.4,661.3
	c1.8,0,3.4-0.2,4.9-0.5c1.5-0.3,2.9-0.8,4.2-1.5c1.3-0.6,2.6-1.4,3.8-2.4c1.2-0.9,2.5-2,3.7-3.3v-12c-5.1,0-9.2,0.3-12.6,1
	c-3.4,0.6-6.1,1.4-8.1,2.4c-2.1,1-3.5,2.1-4.4,3.5c-0.9,1.3-1.3,2.7-1.3,4.3c0,3.1,0.9,5.3,2.7,6.6
	C604.2,660.6,606.5,661.3,609.4,661.3"/>
<path class="st0" d="M658.1,672.1v-71.8h10.5c2.3,0,3.7,1,4.4,3.1l1.1,5.3c1.2-1.4,2.6-2.7,4-3.9c1.4-1.2,2.8-2.2,4.4-3
	c1.6-0.8,3.2-1.5,5-2c1.8-0.5,3.8-0.7,5.9-0.7c4.5,0,8.3,1.2,11.2,3.7c2.9,2.4,5.1,5.7,6.5,9.8c1.1-2.4,2.5-4.4,4.2-6.1
	c1.7-1.7,3.5-3.1,5.5-4.2c2-1.1,4.1-1.9,6.4-2.4c2.3-0.5,4.5-0.8,6.8-0.8c4,0,7.5,0.6,10.6,1.8c3.1,1.2,5.7,3,7.8,5.3
	c2.1,2.3,3.7,5.2,4.8,8.5c1.1,3.4,1.6,7.2,1.6,11.5v45.7h-17.3v-45.7c0-4.6-1-8-3-10.3c-2-2.3-4.9-3.5-8.8-3.5
	c-1.8,0-3.4,0.3-4.9,0.9c-1.5,0.6-2.9,1.5-4,2.6c-1.1,1.1-2,2.6-2.7,4.3c-0.7,1.7-1,3.7-1,6v45.7h-17.4v-45.7c0-4.8-1-8.3-2.9-10.5
	c-2-2.2-4.8-3.3-8.6-3.3c-2.5,0-4.8,0.6-7,1.9c-2.2,1.2-4.2,2.9-6.1,5.1v52.6H658.1z"/>
<path class="st0" d="M794.1,579.3c0,1.5-0.3,2.9-0.9,4.2c-0.6,1.3-1.4,2.5-2.4,3.4c-1,1-2.2,1.8-3.5,2.3c-1.4,0.6-2.8,0.9-4.3,0.9
	c-1.5,0-2.9-0.3-4.2-0.9c-1.3-0.6-2.5-1.3-3.5-2.3c-1-1-1.8-2.1-2.4-3.4c-0.6-1.3-0.9-2.7-0.9-4.2c0-1.5,0.3-3,0.9-4.3
	c0.6-1.4,1.4-2.5,2.4-3.5c1-1,2.2-1.8,3.5-2.4c1.3-0.6,2.7-0.9,4.2-0.9c1.5,0,3,0.3,4.3,0.9c1.4,0.6,2.5,1.4,3.5,2.4
	c1,1,1.8,2.1,2.4,3.5C793.8,576.3,794.1,577.8,794.1,579.3 M791.6,672.1h-17.3v-71.8h17.3V672.1z"/>
<path class="st0" d="M858.8,615.4c-0.5,0.7-1,1.2-1.5,1.5c-0.5,0.4-1.2,0.6-2.1,0.6c-0.9,0-1.7-0.3-2.6-0.8c-0.8-0.5-1.8-1.1-3-1.8
	c-1.2-0.7-2.5-1.3-4.2-1.8c-1.6-0.5-3.6-0.8-6-0.8c-3,0-5.7,0.6-8,1.7c-2.3,1.1-4.2,2.7-5.7,4.7c-1.5,2.1-2.6,4.6-3.4,7.5
	c-0.8,2.9-1.1,6.2-1.1,9.9c0,3.8,0.4,7.3,1.2,10.2c0.8,3,2,5.5,3.5,7.5c1.6,2,3.4,3.6,5.6,4.6c2.2,1,4.6,1.6,7.4,1.6
	c2.8,0,5-0.3,6.7-1c1.7-0.7,3.1-1.4,4.3-2.2c1.2-0.8,2.2-1.6,3.1-2.2c0.9-0.7,1.8-1,2.9-1c1.4,0,2.5,0.5,3.2,1.6l5,6.3
	c-1.9,2.3-4,4.1-6.2,5.6c-2.2,1.5-4.6,2.7-7,3.6c-2.4,1-4.9,1.6-7.4,1.9c-2.6,0.4-5.1,0.6-7.6,0.6c-4.4,0-8.6-0.8-12.5-2.5
	c-3.9-1.6-7.3-4-10.2-7.2c-2.9-3.2-5.2-7.1-6.9-11.6c-1.7-4.6-2.5-9.9-2.5-15.7c0-5.3,0.8-10.2,2.3-14.7c1.5-4.5,3.8-8.4,6.7-11.7
	c3-3.3,6.6-5.9,10.9-7.7c4.3-1.9,9.3-2.8,15-2.8c5.3,0,10,0.8,14.1,2.6c4,1.7,7.7,4.2,10.9,7.4L858.8,615.4z"/>
<path class="st0" d="M918.3,614.2c-0.5,0.8-0.9,1.3-1.5,1.6c-0.5,0.3-1.2,0.5-2,0.5c-0.8,0-1.7-0.2-2.7-0.7c-0.9-0.5-2-1-3.3-1.6
	c-1.3-0.6-2.7-1.1-4.3-1.6c-1.6-0.4-3.5-0.7-5.7-0.7c-3.4,0-6.1,0.7-8.1,2.2c-1.9,1.4-2.9,3.3-2.9,5.7c0,1.5,0.5,2.8,1.5,3.9
	c1,1,2.4,2,4,2.8c1.6,0.8,3.5,1.5,5.6,2.1c2.1,0.6,4.2,1.3,6.4,2.1c2.2,0.8,4.3,1.6,6.5,2.6c2.1,0.9,4,2.2,5.6,3.6
	c1.7,1.5,3,3.2,4,5.3c1,2.1,1.5,4.5,1.5,7.4c0,3.5-0.6,6.6-1.9,9.5c-1.2,2.9-3.1,5.4-5.5,7.6c-2.4,2.1-5.4,3.8-9,5
	c-3.6,1.2-7.7,1.8-12.3,1.8c-2.5,0-4.9-0.2-7.2-0.7c-2.4-0.4-4.6-1-6.8-1.8c-2.2-0.8-4.2-1.7-6-2.8c-1.8-1.1-3.5-2.2-4.9-3.5l4-6.6
	c0.5-0.8,1.1-1.4,1.8-1.8c0.7-0.4,1.6-0.6,2.7-0.6c1.1,0,2.1,0.3,3,0.9c1,0.6,2.1,1.3,3.3,2c1.3,0.7,2.7,1.3,4.4,1.9
	c1.7,0.6,3.9,0.9,6.5,0.9c2,0,3.8-0.3,5.2-0.7c1.5-0.5,2.7-1.1,3.7-1.9c1-0.8,1.7-1.7,2.1-2.8c0.5-1,0.7-2.1,0.7-3.2
	c0-1.7-0.5-3.1-1.5-4.1c-1-1.1-2.3-2-4-2.8c-1.7-0.8-3.6-1.5-5.7-2.1c-2.1-0.7-4.3-1.3-6.5-2.1c-2.2-0.7-4.4-1.7-6.5-2.6
	c-2.1-1-4-2.3-5.7-3.8c-1.7-1.6-3-3.4-4-5.7c-1-2.2-1.5-4.9-1.5-8.1c0-2.9,0.6-5.7,1.7-8.4c1.1-2.7,2.9-5,5.1-7
	c2.3-2,5.1-3.6,8.5-4.7c3.4-1.2,7.3-1.8,11.7-1.8c4.9,0,9.4,0.8,13.5,2.4c4.1,1.6,7.4,3.8,10.1,6.5L918.3,614.2z"/>
<path class="st1" d="M674,243.8L674,243.8C651.4,136.5,531.6,35.5,449.5,26.2v0c-6.7,4.2-12.2,9.5-16.7,15.7
	c47.9,4.4,89.6,36.5,137.6,87.8c37.3,39.9,62.2,103.7,68.3,170.9c2.4,26.6,1.9,53.7-1.8,80.1C675.4,338.8,684,290.7,674,243.8"/>
<path class="st2" d="M638.8,300.8c2.4,26.6,1.9,53.7-1.8,80.1c-43.7,49.3-194.6,73.7-290.4,66.7v0c-14.5-20.6-21.8-43.3-23.7-67.1
	C444.6,403.2,574.8,366.4,638.8,300.8"/>
<path class="st3" d="M547.4,146.6c28.1,44.7,22.4,125.2-8.8,171.7l-4-1c-21-8.9-42.2-29.5-60.8-56c62.7-76,28-133.8-15.9-145.6
	c-13.1-3.6-27-3-39.4,2.4C460.7,97.9,516.4,100.6,547.4,146.6"/>
<path class="st4" d="M418.5,118c12.4-5.4,26.3-5.9,39.4-2.4c-11,10.3-22.6,22.2-34,35.3c-2.7-11.1-4.6-22.1-5.7-32.8v0
	C418.3,118.1,418.4,118,418.5,118"/>
<path class="st5" d="M534.6,317.3c-21-8.9-42.2-29.5-60.8-56c-22.2-31.7-40.6-71.8-49.9-110.3c-2.7-11.1-4.6-22.1-5.7-32.8v0
	c-3.1-30.1,0.9-57.3,14.7-76.2c4.5-6.2,10-11.5,16.7-15.7v0c-24.8-2.8-46.3,2.8-60.4,19.1H389c-10.8,12.4-17.5,30.9-18.4,56.6
	c-1.7,13.2-3.1,31.9-3.3,53.4c-0.2,21,0.7,44.5,3.3,68c9.9,89,44.6,177.5,140.1,122.3c10.8-6.3,20.2-15.8,28-27.4L534.6,317.3z"/>
<path class="st4" d="M322.9,380.4c-4-51,17.3-107,47.7-157.1c-2.6-23.5-3.5-47-3.3-68c-50,46.4-110.1,136.1-117.3,203.8
	c-3.8,35.2,6.9,64.5,40.9,78.5c14.2,5.1,33.5,8.4,55.7,10v0C332.1,427,324.7,404.3,322.9,380.4"/>
</svg>
