<?xml version="1.0" encoding="UTF-8"?>
<!DOCTYPE svg PUBLIC "-//W3C//DTD SVG 1.1//EN" "http://www.w3.org/Graphics/SVG/1.1/DTD/svg11.dtd">
<!-- Creator: CorelDRAW X6 -->
<svg xmlns="http://www.w3.org/2000/svg" xml:space="preserve" width="50.8mm" height="50.8mm" version="1.1" style="shape-rendering:geometricPrecision; text-rendering:geometricPrecision; image-rendering:optimizeQuality; fill-rule:evenodd; clip-rule:evenodd"
viewBox="0 0 5080 5080"
 xmlns:xlink="http://www.w3.org/1999/xlink">
 <defs>
  <style type="text/css">
   <![CDATA[
    .fil0 {fill:none}
    .fil1 {fill:url(#id0)}
   ]]>
  </style>
  <linearGradient id="id0" gradientUnits="userSpaceOnUse" x1="735.7" y1="3581.72" x2="4344.3" y2="1498.28">
   <stop offset="0" style="stop-color:#0096FF"/>
   <stop offset="1" style="stop-color:#F644D1"/>
  </linearGradient>
 </defs>
 <g id="Слой_x0020_1">
  <metadata id="CorelCorpID_0Corel-Layer"/>
  <rect class="fil0" width="5080" height="5080"/>
  <path class="fil1" d="M998 1732l0 841 -236 275 236 198 0 848 1846 -325 862 314 0 -466 373 -67 0 -842 239 -278 -239 -199 0 -843 -3081 545zm124 1246l-186 -155 186 -216 0 -772 2832 -501 0 765 187 156 -187 217 0 774 -373 67 0 391 -724 -264 -1735 306 0 -769zm2463 -1330l0 85c0,16 -3,32 -12,46l0 0 -113 192 -114 -155c-8,-11 -10,-27 -10,-40l0 0 0 -84 -123 22 0 90c0,24 4,48 18,68l0 0 166 226 0 207 124 -22 0 -207 166 -281c13,-22 18,-47 18,-72l0 0 0 -95 -121 21zm-823 145l0 623 424 -75 0 -113 -300 53 0 -509 -124 22zm-364 63l-176 31c-99,18 -155,84 -155,184l0 0 0 304c0,102 59,152 160,134l0 0 176 -31c99,-18 155,-84 155,-184l0 0 0 -304c0,-89 -44,-138 -121,-138l0 0c-12,0 -25,1 -38,4zm-207 504l0 -311c0,-30 14,-46 43,-51l0 0 160 -28c27,-5 39,4 39,32l0 0 0 314c0,30 -14,46 -44,51l0 0 -160 28c-4,1 -8,1 -12,1l0 0c-20,0 -26,-12 -26,-36zm-455 -387l0 242 -242 43 0 -242 -124 22 0 623 124 -22 0 -267 242 -43 0 267 124 -22 0 -623 -124 22zm1305 513l-265 750 128 -23 265 -750 -128 22zm-643 157l-172 30c-94,17 -155,74 -155,173l0 0 0 45c0,68 31,114 101,120l0 0 239 20c16,1 22,8 22,24l0 0 0 63c0,29 -18,40 -45,45l0 0 -161 28c-24,4 -40,3 -40,-25l0 0 0 -86 -122 22 0 78c0,101 63,139 158,122l0 0 179 -32c95,-17 156,-74 156,-173l0 0 0 -75c0,-69 -40,-106 -107,-112l0 0 -235 -20c-21,-2 -22,-8 -22,-28l0 0 0 -37c0,-29 18,-40 45,-45l0 0 154 -27c24,-4 40,-3 40,25l0 0 0 92 122 -22 0 -84c0,-85 -47,-126 -119,-126l0 0c-12,0 -25,1 -39,4zm-663 117l0 469c0,31 -14,47 -44,52l0 0 -160 28c-28,5 -39,-4 -39,-33l0 0 0 -101 -123 22 0 93c0,102 59,152 160,134l0 0 176 -31c99,-18 155,-84 155,-184l0 0 0 -471 -124 22zm1844 193l0 109 124 -22 0 -109 -124 22zm-211 37l0 109 124 -22 0 -109 -124 22zm-211 37l0 109 124 -22 0 -109 -124 22z"/>
 </g>
</svg>
