<?xml version="1.0" encoding="utf-8"?>
<!-- Generator: Adobe Illustrator 21.1.0, SVG Export Plug-In . SVG Version: 6.00 Build 0)  -->
<svg version="1.1" id="Layer_1" xmlns="http://www.w3.org/2000/svg" xmlns:xlink="http://www.w3.org/1999/xlink" x="0px" y="0px"
	 viewBox="0 0 500 184.6" style="enable-background:new 0 0 500 184.6;" xml:space="preserve">
<style type="text/css">
	.st0{fill:#BA4818;}
</style>
<g>
	<g>
		<path class="st0" d="M368.2,16.5c-15.9,0-28.8,12.9-28.8,28.8c0,15.9,12.9,28.8,28.8,28.8c15.9,0,28.8-12.9,28.8-28.8
			C397,29.4,384.1,16.5,368.2,16.5z M381.6,64.5c3.2-4.1,5.2-9.3,5.2-14.9c0-11.7-8.4-21.5-19.5-23.7c1.1-1.4,2.2-2.8,3.5-4.1
			c11.4,1.9,20.1,11.8,20.1,23.7C390.8,53.2,387.2,60,381.6,64.5z"/>
		<path class="st0" d="M398.6,13.5C387.3,1.7,371.8-2.3,352.2,1.3c0,0-23.6,5.6-44.4,6c-8.9,0.2-16.4-2.5-22.7-3.9
			c3.5,5.5,8.8,9.3,14.7,11.6c5.6,2.1,13.4,5.2,9.9,10.6c-3.9,6.1-9.9,1-11.5-0.3c-5.6-4.2-8.3-7.5-18.3-13.4
			c-11.1-6.5-26.6-6.7-42.1-5.1c0,0,12.7,2.7,18.4,8.4c0,0-24.6-5-40.6,2.8c23.3,0.9,48.9,4.6,53.3,6.5c4.4,1.9,2.2,3.5-2,4.4
			c-10.4,2.2-29.5,3-41.4-0.4c-17.1-4.9-31.6-19.2-56.1-15.3c21.6,4.5,33.1,24.8,56.7,29.6c23.6,4.8,39.4-4.6,44.8-5.9
			c5.4-1.3,10.1,0.5,11.4,4.2c1.2,3.7-3.5,8.2-9.9,9.4c-4.8,0.9-6.4,1-15,1.9c-18,1.9-31-0.4-42.5-3.5c-22-5.8-37.2-20.3-44.4-24.1
			c-7.3-3.9-15.3-5.7-21.5-6.6c0,0,11.9,6.2,16.4,13.8c-10.6-4.1-26.3-6.5-46.8-2.3c-10.9,2.1-31.8,7.1-57.7,17.3
			c12.9,3.8,29.3,0.9,36.4,0.3c38.6-3.1,51.5,5.4,63.7,9.7c37.6,13.4,50.5,1.3,53.1,5.3c1.8,2.8-10.2,7.8-13.5,8.4
			c-16.9,3.2-25.2,0.2-40.9-3.6c7.8,7.8,22.6,13.4,39.5,12.7c17.2-0.9,35.3-3.5,49.7-9.6c17-7.2,24.1-9.4,31.7-11.7
			c3.3-0.9,15-4,17.5-0.8c1.4,1.8-0.9,3.4-4.6,4.9c-2.9,1.2-6.7,2.5-10.3,3.9c-8.3,3.2-23.9,9-28.9,13.1c0,0,22-3.4,43.4-3.4
			c21.4,0,36.1,4.5,52.3,10.6c17.4,6.4,32.5,4.2,45.5-6.6c11.6-9.7,17.2-21.2,16.9-34.4C412,33.1,407.3,22.3,398.6,13.5z
			 M368.2,81.8c-20.2,0-36.5-16.3-36.5-36.5c0-20.2,16.3-36.5,36.5-36.5c20.2,0,36.5,16.3,36.5,36.5
			C404.7,65.5,388.4,81.8,368.2,81.8z"/>
	</g>
	<g>
		<path class="st0" d="M233.5,129.7H156v0l-19.9,54.8v0h15.1v0l15.1-41.6l0,0h18.9c2.1,0,3.2,1.7,2.4,3.8l-13.8,37.8v0H189l0,0
			l13.8-37.8c0.8-2.1,3.1-3.8,5.2-3.8H223c2.1,0,3.2,1.7,2.4,3.8l-13.8,37.8v0h15.1v0l15.8-43.5
			C244.9,134.8,240.8,129.7,233.5,129.7z"/>
		<path class="st0" d="M338.8,167.5c-0.8,2.1-3.1,3.8-5.2,3.8v0l-18.9,0c-2.1,0-3.2-1.7-2.4-3.8l13.8-37.8v0H311v0l-15.8,43.5
			c-2.3,6.3,1.8,11.3,9.1,11.3h34c5.2,0,10.7-3.4,12.2-7.6l17.2-47.2v0h-15.1l0,0L338.8,167.5z"/>
		<path class="st0" d="M87.5,167.5l1.4-3.8v0h45.4h0l4.8-13.2l3.4-9.4c2.3-6.3-1.8-11.3-9.1-11.3H95.5c-5.2,0-10.7,3.4-12.2,7.6h0
			l-13.1,35.9c-2.3,6.3,1.8,11.3,9.1,11.3h47.2h0l4.8-13.2l0,0l-41.6,0C87.8,171.3,86.7,169.6,87.5,167.5z M95,146.8
			c0.8-2.1,3.1-3.8,5.2-3.8h22.7c2.1,0,3.2,1.7,2.4,3.8l-1.4,3.8h0H93.7h0L95,146.8z"/>
		<polygon class="st0" points="484.9,129.7 477.3,150.5 477.3,150.5 450.9,150.5 450.9,150.5 458.4,129.7 458.4,129.7 443.3,129.7 
			443.3,129.7 423.4,184.6 423.4,184.6 438.5,184.6 438.5,184.6 446,163.8 446,163.8 472.5,163.8 472.5,163.8 464.9,184.6 
			464.9,184.6 480.1,184.6 480.1,184.6 500,129.7 500,129.7 484.9,129.7 		"/>
		<path class="st0" d="M253.4,137.3l-17.2,47.2l0,0h15.1l0,0l13.8-37.8c0.8-2.1,3.1-3.8,5.2-3.8h26.5l0,0l4.8-13.2v0h-35.9
			C260.4,129.7,255,133.1,253.4,137.3z"/>
		<path class="st0" d="M17.2,137.3L17.2,137.3l-5.5,15.1c-2.3,6.3,1.8,11.3,9.1,11.3h24.6l0,0c2.1,0,3.2,1.7,2.4,3.8l0,0
			c-0.8,2.1-3.1,3.8-5.2,3.8H4.8l0,0L0,184.6l0,0h47.2c5.2,0,10.7-3.4,12.2-7.6l5.5-15.1c2.3-6.3-1.8-11.3-9.1-11.3H31.3
			c-2.1,0-3.2-1.7-2.4-3.8h0c0.8-2.1,3.1-3.8,5.2-3.8h37.8l0,0l4.8-13.2l0,0H29.4C24.2,129.7,18.7,133.1,17.2,137.3z"/>
		<path class="st0" d="M374.4,137.3L374.4,137.3l-5.5,15.1c-2.3,6.3,1.8,11.3,9.1,11.3h24.6l0,0c2.1,0,3.2,1.7,2.4,3.8l0,0
			c-0.8,2.1-3.1,3.8-5.2,3.8H362v0l-4.8,13.2h0h47.2c5.2,0,10.7-3.4,12.2-7.6l5.5-15.1c2.3-6.3-1.8-11.3-9.1-11.3h-24.6
			c-2.1,0-3.2-1.7-2.4-3.8l0,0c0.8-2.1,3.1-3.8,5.2-3.8H429h0l4.8-13.2v0h-47.2C381.4,129.7,375.9,133.1,374.4,137.3z"/>
	</g>
</g>
</svg>
