<svg xmlns="http://www.w3.org/2000/svg" viewBox="0 0 232.16 151.55"><title>Asset 2</title><g id="Layer_2" data-name="Layer 2"><g id="Layer_1-2" data-name="Layer 1"><polygon points="128.36 15.75 140.76 21.31 158.33 13.43 128.36 0 98.39 13.43 115.96 21.31 128.36 15.75"/><path d="M73.89,49h0a2.64,2.64,0,0,0-3.72-2.41L69,47.14A2.63,2.63,0,1,0,71.1,52l1.23-.55A2.62,2.62,0,0,0,73.89,49Z"/><path d="M128.36,32.51h0L92,16.18V37.51l-9.48,4.25a2.77,2.77,0,0,0-1.68,2.41,2.62,2.62,0,0,0,3.55,2.5L92,43.24l20.31-9.14a2.94,2.94,0,0,1,.62-.19A2.63,2.63,0,0,1,116,36.47,2.77,2.77,0,0,1,114.28,39l-9.13,4.11L92,49,74.27,57a2.6,2.6,0,0,0-1,2.83A2.65,2.65,0,0,0,77,61.43l15-6.7v0l8.19-3.69a2.63,2.63,0,1,1,2.25,4.75l-6,2.72h0l-1.48.67a2.61,2.61,0,0,0-1.55,2.39h0A2.62,2.62,0,0,0,97,64l5.75-2.58L128.36,72.9V44.23l-9.3,4.18-.13,0A2.63,2.63,0,0,1,115.35,46,2.78,2.78,0,0,1,117,43.54l11.31-5.06h0l31.41-14.14V58.82l5-2.24V16.18Z"/><path d="M19.12,124.94a7.27,7.27,0,0,0-2.8-2.28,36.42,36.42,0,0,0-6.18-1.81c-3.56-.75-4.95-1.69-4.95-3.44a3.2,3.2,0,0,1,1.92-2.68,6.42,6.42,0,0,1,2.86-.58,9.86,9.86,0,0,1,6,2.33l2.92-3.38a15.42,15.42,0,0,0-7.17-3.21c-.65-.06-1.35-.11-2-.11a10.87,10.87,0,0,0-4.6,1,8,8,0,0,0-3.33,2.56,7.42,7.42,0,0,0-1.28,4.08,6.89,6.89,0,0,0,3.73,6.24c1.63.94,6.07,1.75,6.24,1.81,3.62.64,5.19,1.75,5.19,3.56a3.32,3.32,0,0,1-2.1,3,7.66,7.66,0,0,1-3.09.64c-1.63,0-4.26-.52-7.35-3.15L0,133a17.48,17.48,0,0,0,8,3.85,14.25,14.25,0,0,0,2.74.29,11.72,11.72,0,0,0,4.79-1,8.52,8.52,0,0,0,3.55-2.91,7.14,7.14,0,0,0,1.29-4.2A7,7,0,0,0,19.12,124.94Z"/><path d="M49,113.7a13.59,13.59,0,0,0-9.68-4,14.12,14.12,0,0,0-8.82,3.61v-3H25.55v41.23h4.92v-18a14.11,14.11,0,0,0,8.82,3.6A13.69,13.69,0,0,0,49,113.7Zm-9.68,18.61a8.88,8.88,0,1,1,8.82-8.87A8.87,8.87,0,0,1,39.29,132.31Z"/><path d="M63.51,113v-2.7H58.59v26.23h4.92v-14a8.13,8.13,0,0,1,8.36-7.9l1.2-4.93C70,109.75,65.17,111.18,63.51,113Z"/><path d="M78.69,110.32v26.23h4.92V110.32Z"/><path d="M113.9,113.47a12.6,12.6,0,0,0-9-3.66,13.13,13.13,0,0,0-7.73,3v-2.52H92.26v26.23h4.92V122.46a7.73,7.73,0,1,1,15.46,0v14.09h4.93V122.46A12.75,12.75,0,0,0,113.9,113.47Z"/><path d="M138.3,131.85h-4.41a4.19,4.19,0,0,1-3.9-4.12V115h8.08v-4.7H130V100.19h-4.92v10.13h-3.89V115h3.89v12.83a8.66,8.66,0,0,0,8.7,8.7h5.79Z"/><path d="M167.67,113.7a13.55,13.55,0,0,0-9.67-4,14.09,14.09,0,0,0-8.82,3.61V94.52l-4.93,2.21v39.82h4.93v-3a14.08,14.08,0,0,0,8.82,3.6,13.68,13.68,0,0,0,9.67-23.42ZM158,132.31a8.88,8.88,0,1,1,8.82-8.87A8.87,8.87,0,0,1,158,132.31Z"/><path d="M199,113.7a13.59,13.59,0,0,0-9.68-4,13.72,13.72,0,1,0,0,27.43A13.73,13.73,0,0,0,199,113.7Zm-9.68,18.56a8.79,8.79,0,1,1,8.82-8.82A8.83,8.83,0,0,1,189.32,132.26Z"/><rect x="78.89" y="101.09" width="4.93" height="4.93"/><polygon points="232.16 136.55 225.85 136.55 218.21 126.08 210.57 136.55 204.26 136.55 214.92 122.73 205.5 110.33 211.67 110.33 218.21 119.56 224.75 110.33 230.98 110.33 221.5 122.73 232.16 136.55"/></g></g></svg>