<?xml version="1.0" encoding="utf-8"?>
<!-- Generator: Adobe Illustrator 21.0.0, SVG Export Plug-In . SVG Version: 6.00 Build 0)  -->
<svg version="1.1" id="Layer_1" xmlns="http://www.w3.org/2000/svg" xmlns:xlink="http://www.w3.org/1999/xlink" x="0px" y="0px"
	 width="140px" height="124px" viewBox="0 0 140 124" enable-background="new 0 0 140 124" xml:space="preserve">
<g>
	<defs>
		<rect id="SVGID_1_" width="140" height="124"/>
	</defs>
	<clipPath id="SVGID_2_">
		<use xlink:href="#SVGID_1_"  overflow="visible"/>
	</clipPath>
	<path clip-path="url(#SVGID_2_)" fill-rule="evenodd" clip-rule="evenodd" fill="#D3DADE" d="M39.605,89.91
		c1.741-1.383,3.182-2.071,3.113-5.406c-2.615,1.332-10.036,1.26-13.134-3c-0.877-1.209,0.058-1.82,0.907-0.867
		c2.12,2.403,6.049,1.313,7.485,0.619c-0.228-0.823-0.865-1.9-1.4-2.359c0.535-0.53,2.052-1.312,2.365-2.665
		c-0.814-0.438-3.962-0.754-3.962-0.754c0.508-0.482,1.137-1.163,0.76-2.962c-3.214,0.987-7.186-0.351-8.09-1.542
		c-0.887-1.168,0.02-2.262,0.763-1.494c1.602,1.684,9.5,3.609,12.439,0.685c-1.092-0.298-2.294-1.275-2.514-1.875
		c2.719-0.273,4.889-1.875,5.066-3.873c-1.503,0-4.343-0.109-5.309-0.835c1.304-0.483,2.125-0.954,2.537-2.41
		c-4.973-0.3-5.367-3.989-5.392-4.6c3.237,1.865,8.937,1.04,7.464-3.555c-2.688-0.143-5.407-4.496,2.002-8.5
		c6.731-3.636,14.392-7.559,13.718-14.021c-0.443-4.13-7.26-6.953-8.124-9.045c-2.845,1.352-3.421,2.922-2.138,5.551
		c0,0-6.335,0.63-6.835-3.265c-0.22-1.749,0.951-3.383,2.203-4.63c-0.71,0-5.485-1.277-6.926,2.609
		c-2.68-1.824-4.967-1.759-6.771,0.166c2.878,1.708,4.662,7.557,9.42,9.286c-3.387,1.834-8.859,1.062-12.053-4.565
		c-3.022,4.547-4.761,9.048,1.718,13.855C17.122,45.819,17.208,56.06,6.949,60.943c1.043,2.79,3.237,2.79,6.032,2.354
		c-4.438,5.757-0.658,11.777-7.677,14.24c0.654,2.346,1.973,4.216,4.566,3.532c-0.738,1.148-1.223,1.123-2.37,2.385
		c3.838,2.414,8.391,0.663,9.422-7.077c0.185-1.381,2.092-0.518,1.43,0.837c-4.376,9.035,6.689,15.83,2.775,22.459
		c3.454-0.145,6.079-0.413,7.525-1.578c0.702,1.39,1.122,2.768,0.973,4.125c1.904-0.385,2.6-1.516,2.731-2.8
		c1.251,3.633,5.716,7.521,12.866,7.521C41.43,101.551,44.96,96.077,39.605,89.91 M32.548,96.569l-1.531,2.593
		c-0.546-1.708-1.536-3.482-2.173-4.736c-1.226,2.526-3.166,2.577-5.034,2.589c0.412-6.048-7.194-12.131-3.85-19.032
		c0.667-1.38,0.234-3.067-1.206-3.792c-5.104-2.589-2.742,8.149-7.841,8.473c0.976-1.219,1.345-3.767,1.491-3.99
		c-1.084,0.284-3.684,1.931-4.851-0.181c2.981-1.62,3.838-4.057,4.306-6.504c0.593-3.099,0.866-4.532,1.47-5.806
		c0.627-1.36,1.635-2.539,3.788-5.329c-0.511,0.078-6.252,1.284-7.538,0.684c9.923-6.086,7.687-13.824,22.823-20.722
		c-3.968-2.942-8.028-5.289-5.118-10.913c4.147,4.973,12.026,3.252,16.281,0.941c-4.205-0.84-9.622-4.536-10.911-8.653
		c1.587-0.246,3.639,1.47,4.821,2.27c0.569-1.519,0.794-3.288,2.638-3.671c-2.459,5.26,2.403,7.996,7.038,8.018
		c0.717,0,3.716-0.298,3.716-0.298c-0.477-0.986-2.415-3.673-1.005-4.76c1.132,1.062,2.483,1.909,3.717,2.853
		c9.013,6.964-4.286,13.423-9.726,16.352c-8.538,4.608-6.254,10.085-2.686,11.488c-0.015,0.623-0.399,0.896-0.991,1.087
		c-2.494,0.833-4.836-0.943-6.824-2.084c0.121,3.439-0.114,6.742,3.689,8.634l-2.623,0.96c2.256,1.708,2.941,2.616,5.657,2.968
		c-1.268,0.614-2.842,0.604-4.189,0.73c0.341,0.951,0.621,2.24,1.334,3.094c-5.559,0.658-7.782-2.511-9.501-2.38
		c-3.666,0.272-3.439,7.163,5.585,7.174l-0.935,1.541c0,0,1.71,0.997,3.274,1.188c-0.598,0.485-1.179,1.138-1.682,1.638l1.44,1.239
		c-3.682,0.66-4.726-3.253-7.113-1.365c-3.644,2.884,4.389,8.97,12.093,8.06c-0.649,0.829-2.456,2.044-3.239,2.678
		c6.279,5.922,3.181,11.495,5.763,15.577C37.496,104.824,33.485,100.858,32.548,96.569"/>
	<path clip-path="url(#SVGID_2_)" fill-rule="evenodd" clip-rule="evenodd" fill="#D3DADE" d="M22.647,74.964
		c1.302,1.357,2.883,1.496,5.88,1.307c-3.292-0.396-5.139-1.197-6.287-3.378c-0.171-1.126-0.282-2.329-0.331-3.618
		c-0.1-3.46,1.039-7.581,3.434-12.091c-0.017,2.831,2.232,7.279,7.242,8.02c-4.507-1.968-7.153-6.398-5.713-10.682
		c0.94-1.499,1.999-3.046,3.181-4.615c0.597-0.759,1.173-1.489,1.739-2.17c-0.606,2.187,2.044,4.446,3.815,4.824
		c-0.962-0.936-3.022-3.979,1.739-9.063c-1.332,0.626-2.8,1.514-3.912,2.384c8.652-9.335,15.76-9.595,19.027-14.29
		c-4.732,3.229-17.258,4.973-22.885,3.446c3.105,2.074,10.592,1.885,12.422,1.499c-6.105,5.927-19.434,12.045-21.741,17.492
		c3.249-3.557,5.347-4.208,8.157-5.126c-2.214,3.3-4.207,6.202-5.582,9.567c-3.545,7.69-8.288,7.787-8.599,14.133
		c1.617-4.918,4.899-6.162,7.176-9.392c-0.404,2.062-0.589,4.345-0.518,6.986c0.081,2.87,0.655,5.39,1.569,7.646
		c-0.232,3.136,0.048,8.49,3.649,12.024c-2.446-3.092-2.971-8.116-2.754-10.077c2.817,5.43,10.855,12.929,14.739,17.97
		C34.21,91.278,24.687,83.704,22.647,74.964"/>
	<path clip-path="url(#SVGID_2_)" fill-rule="evenodd" clip-rule="evenodd" fill="#D3DADE" d="M111.587,48.903
		c2.8,0.921,4.909,1.569,8.154,5.126c-2.304-5.447-15.643-11.567-21.749-17.494c1.837,0.386,9.322,0.577,12.427-1.497
		c-5.622,1.527-18.152-0.217-22.888-3.446c3.273,4.695,10.375,4.957,19.03,14.29c-1.11-0.87-2.58-1.758-3.912-2.384
		c4.755,5.084,2.702,8.122,1.736,9.063c1.774-0.378,4.423-2.634,3.818-4.824c0.569,0.681,1.151,1.411,1.738,2.17
		c1.191,1.569,2.242,3.116,3.179,4.615c1.444,4.284-1.21,8.714-5.705,10.682c5.011-0.739,7.259-5.189,7.235-8.02
		c2.395,4.511,3.541,8.631,3.433,12.091c-0.043,1.289-0.159,2.492-0.326,3.618c-1.152,2.181-2.999,2.984-6.281,3.378
		c2.991,0.189,4.563,0.05,5.88-1.307c-2.047,8.74-11.569,16.312-15.455,22.796c3.886-5.041,11.915-12.54,14.74-17.97
		c0.219,1.961-0.309,6.985-2.747,10.077c3.593-3.534,3.874-8.888,3.643-12.027c0.91-2.256,1.479-4.773,1.565-7.643
		c0.086-2.641-0.115-4.924-0.516-6.986c2.276,3.23,5.559,4.474,7.178,9.392c-0.307-6.346-5.05-6.443-8.603-14.133
		C115.791,55.105,113.803,52.203,111.587,48.903"/>
	<path clip-path="url(#SVGID_2_)" fill-rule="evenodd" clip-rule="evenodd" fill="#D3DADE" d="M127.015,63.297
		c2.793,0.434,4.988,0.434,6.03-2.356c-10.259-4.88-10.173-15.121-21.969-20.483c6.483-4.806,4.735-9.307,1.725-13.857
		c-3.191,5.629-8.681,6.401-12.05,4.567c4.75-1.728,6.54-7.577,9.416-9.285c-1.8-1.925-4.102-1.991-6.773-0.166
		c-1.453-3.889-6.216-2.609-6.931-2.609c1.246,1.243,2.428,2.881,2.206,4.629c-0.493,3.896-6.833,3.268-6.833,3.268
		c1.277-2.632,0.71-4.201-2.134-5.554c-0.872,2.095-7.682,4.915-8.119,9.043c-0.682,6.464,6.979,10.388,13.71,14.024
		c7.409,4.004,4.69,8.356,2.006,8.5c-1.488,4.595,4.218,5.42,7.457,3.555c-0.015,0.611-0.424,4.299-5.397,4.6
		c0.42,1.455,1.238,1.927,2.544,2.412c-0.975,0.724-3.808,0.832-5.314,0.832c0.182,1.998,2.353,3.598,5.072,3.868
		c-0.217,0.603-1.423,1.582-2.514,1.88c2.938,2.924,10.832,0.999,12.439-0.684c0.736-0.769,1.637,0.326,0.763,1.492
		c-0.909,1.192-4.879,2.53-8.094,1.544c-0.368,1.799,0.253,2.479,0.756,2.962c0,0-3.145,0.315-3.959,0.754
		c0.306,1.352,1.834,2.134,2.367,2.665c-0.533,0.459-1.169,1.536-1.397,2.358c1.44,0.694,5.372,1.781,7.477-0.618
		c0.859-0.953,1.792-0.346,0.919,0.866c-3.105,4.261-10.521,4.329-13.141,3c-0.073,3.335,1.369,4.024,3.113,5.409
		c-5.357,6.164-1.819,11.639-5.612,17.029c7.14,0,11.61-3.888,12.864-7.522c0.139,1.284,0.823,2.415,2.729,2.801
		c-0.147-1.358,0.278-2.735,0.967-4.125c1.451,1.165,4.086,1.433,7.528,1.577c-3.909-6.629,7.158-13.424,2.772-22.459
		c-0.652-1.357,1.254-2.218,1.437-0.837c1.026,7.74,5.584,9.491,9.425,7.077c-1.159-1.261-1.632-1.236-2.371-2.384
		c2.585,0.683,3.905-1.186,4.57-3.533C127.676,75.074,131.454,69.052,127.015,63.297 M127.605,78.675
		c0.137,0.223,0.498,2.771,1.477,3.992c-5.105-0.326-2.735-11.064-7.841-8.475c-1.44,0.724-1.869,2.412-1.2,3.792
		c3.338,6.901-4.27,12.984-3.843,19.032c-1.88-0.013-3.833-0.064-5.052-2.589c-0.629,1.254-1.627,3.027-2.168,4.735l-1.528-2.592
		c-0.946,4.289-4.952,8.257-10.358,8.613c2.568-4.082-0.515-9.655,5.761-15.577c-0.785-0.629-2.587-1.85-3.239-2.678
		c7.71,0.909,15.742-5.177,12.091-8.061c-2.383-1.887-3.434,2.026-7.108,1.366l1.441-1.24c-0.503-0.502-1.092-1.15-1.686-1.637
		c1.569-0.192,3.274-1.189,3.274-1.189l-0.934-1.541c9.025-0.011,9.24-6.901,5.589-7.174c-1.716-0.131-3.949,3.04-9.503,2.382
		c0.702-0.855,0.99-2.147,1.334-3.096c-1.337-0.126-2.926-0.116-4.19-0.729c2.717-0.355,3.399-1.261,5.656-2.969l-2.616-0.959
		c3.798-1.892,3.566-5.198,3.679-8.634c-1.981,1.143-4.333,2.916-6.817,2.084c-0.591-0.192-0.978-0.464-0.993-1.087
		c3.568-1.403,5.839-6.881-2.686-11.488c-5.438-2.929-18.741-9.388-9.726-16.355c1.231-0.941,2.575-1.789,3.709-2.851
		c1.415,1.088-0.517,3.775-1.002,4.761c0,0,2.996,0.3,3.708,0.3c4.647-0.025,9.516-2.762,7.053-8.02
		c1.845,0.383,2.062,2.152,2.625,3.671c1.186-0.8,3.239-2.516,4.831-2.271c-1.291,4.117-6.701,7.814-10.91,8.654
		c4.25,2.311,12.131,4.032,16.275-0.941c2.911,5.624-1.142,7.97-5.117,10.915c15.135,6.896,12.905,14.631,22.83,20.719
		c-1.283,0.601-7.037-0.608-7.549-0.683c2.165,2.79,3.174,3.968,3.801,5.329c0.602,1.273,0.867,2.704,1.46,5.805
		c0.476,2.448,1.332,4.884,4.308,6.502C131.274,80.606,128.677,78.958,127.605,78.675"/>
	<path clip-path="url(#SVGID_2_)" fill-rule="evenodd" clip-rule="evenodd" fill="#D3DADE" d="M55.524,95.605l2.158-1.827
		l-0.329-0.658c-0.235-0.465-0.108-0.5,0.142-0.682l1.134-0.847c0.266-0.217,0.541-0.192,0.87-0.114l3.416,0.802h-3.606
		c-0.839,0.056-1.081,0.376-1.377,0.989l-0.25,0.51l-0.93,1.902c-0.316,0.657-0.478,1.527,0.349,2.519l0.656,0.774l-1.329,2.69
		h1.122l0.917-1.87c0.074-0.066,1.433-1.299,1.719-2.586c-0.39-0.313-0.67-0.537-0.453-0.987l0.417-0.887
		c0.134-0.298,0.182-0.419,0.579-0.339l3.593,0.777c0.447,0.118,1.104,0.316,1.582-0.403c0.495-0.752,0.561-0.669,1.701-0.553
		l1.831,0.192c2.504,0.237,5.003-0.391,5.979-1.161c0.339,0.778,1.015,1.372,1.334,1.976c0.116,0.222-0.076,0.54-0.233,0.934
		l-2.056,4.907h3.17l1.797-4.484c0.167-0.423,0.408-0.767,0.597-0.933l-1.031,5.417h3.075l0.818-5.366
		c0.18-1.187,0.074-1.576-0.497-2.062c-1.286-1.08-1.256-3.353-1.671-4.733c0.22-0.124,0.47-0.19,0.774-0.155
		c0.672,0.069,1.175,1.777,1.966,2.874c1.572,2.21,3.729,4.653,6.193,1.214c-0.24-0.391-0.503-0.752-0.799-1.091l-0.686-0.801
		c-0.4-0.447-2.311-2.624-3.101-3.411c-1.81-1.812-4.581-1.54-5.686-0.66c-2.503-1.306-5.144,0.069-5.768,0.019l-4.311-0.26
		c-0.194-0.013-0.495-0.081-0.703-0.414l0.799-0.263c-0.75-3.116-2.636-5.727-5.928-6.171c0,0-0.192-0.987-0.692-1.176l-0.983,1.158
		c-0.278,0.038-0.581,0.121-0.829,0.229l-4.202-1.558l3.156,3.181c0,0-1.638,2.314-2.102,2.786
		c-0.309,0.431-0.278,0.772,0.065,1.188l0.614,0.803c0.319,0.411,0.662,0.398,1.168,0.139l0.692-0.359
		c0.295-0.253,1.314,0.244,1.744-0.151c-0.279,0.905-0.412,1.776-0.481,2.469l-2.829-0.339c-0.622-0.081-0.9,0-1.282,0.295
		l-2.413,1.856c-0.791,0.605-1.036,1.65-0.546,2.665L55.524,95.605z M78.912,96.139l-1.918,4.721h-1.193l1.915-4.571
		c0.201-0.588-0.176-0.866-0.654-1.514c0.71,0.403,1.221,0.661,2.085,0.996C79.069,95.9,78.98,95.975,78.912,96.139 M60.416,85.909
		l-0.551,0.29c-0.377,0.22-0.571,0.317-0.9-0.096l-0.24-0.298c-0.116-0.141-0.157-0.497,0.089-0.762l2.352-2.743l-2.17-1.776
		l2.764,1.017l1.011-1.259c0.295,0.255,0.191,0.981,0.191,0.981c1.12,0,4.372,1.613,4.496,5.655c0,0,0.733,1.085,1.67,1.142
		l4.789,0.288c0.791,0,2.776-1.508,5.329-0.081c0.644-0.39,1.334-0.698,2.044-0.776c2.246-0.167,3.901,1.397,5.134,2.97
		c0.9,1.139,2.133,2.885,2.133,2.885c-0.528,0.629-1.053,0.841-1.491,0.682c-0.667-0.336-0.88-0.873-1.089-1.612
		c-0.336-1.173-1.63-2.178-1.63-2.178c0.438,0.79,0.531,1.683,0.74,2.503c-1.87-1.847-2.225-4.11-3.532-4.418
		c-0.581-0.144-1.251,0.101-1.88,0.828c0.662,1.526,0.629,3.3,1.304,4.483c0.513,0.888,0.619,0.966,0.852,1.161
		c0.553,0.396,0.237,1.105,0.154,1.625l-0.711,4.44h-1.192l0.786-4.347c0.24-1.322-3.483-1.322-5.387-3.845
		c-1.625,1.892-6.179,1.418-8.147,1.123c-0.796-0.116-1.569-0.069-2.009,0.714c-0.252,0.441-0.684,0.31-0.945,0.245l-3.59-0.775
		c-0.632-0.146-0.905-0.02-1.185,0.558l-0.721,1.485c-0.159,0.349-0.151,0.601,0.134,0.878l0.344,0.366
		c-0.205,0.717-0.854,1.257-0.854,1.257l-0.786-0.881c-0.379-0.444-0.399-1.092-0.096-1.723l1.163-2.419
		c0.136-0.266,0.381-0.558,0.874-0.558l4.445-0.073l-1.362-2.213c-1.016-1.663,0.667-4.62,0.416-6.018
		C63.036,86.508,60.77,85.651,60.416,85.909 M55.587,91.487l2.11-1.6c0.374-0.285,0.614-0.463,1.046-0.409l2.971,0.389
		c0.162,0.715,0.637,1.411,0.637,1.411l-3.161-0.666c-0.447-0.054-0.579-0.03-1,0.27l-1.496,1.13
		c-0.296,0.235-0.303,0.598-0.137,0.958l0.243,0.523l-1.049,0.79l-0.396-0.752C54.948,92.726,54.92,91.997,55.587,91.487"/>
	<path clip-path="url(#SVGID_2_)" fill-rule="evenodd" clip-rule="evenodd" fill="#D3DADE" d="M64.742,34.534
		c1.152,0.795,3.191,1.645,3.191,1.645v-1.355l-4.487-1.716C63.446,33.108,63.446,33.656,64.742,34.534"/>
	<path clip-path="url(#SVGID_2_)" fill-rule="evenodd" clip-rule="evenodd" fill="#D3DADE" d="M67.933,32.898v-1.342l-5.094-1.819
		c0,0,0.607,0.646,1.903,1.531C65.894,32.061,67.933,32.898,67.933,32.898"/>
	<path clip-path="url(#SVGID_2_)" fill-rule="evenodd" clip-rule="evenodd" fill="#D3DADE" d="M67.933,29.838v-1.36l-5.577-2.049
		c0,0,1.09,0.884,2.386,1.764C65.894,28.988,67.933,29.838,67.933,29.838"/>
	<path clip-path="url(#SVGID_2_)" fill-rule="evenodd" clip-rule="evenodd" fill="#D3DADE" d="M83.597,48.287h5.706
		c-0.24-0.825-1.127-1.658-2.79-1.658C84.937,46.629,83.994,47.535,83.597,48.287"/>
	<path clip-path="url(#SVGID_2_)" fill-rule="evenodd" clip-rule="evenodd" fill="#D3DADE" d="M77.631,26.429l-5.566,2.049v1.36
		c0,0,2.042-0.848,3.186-1.645C76.55,27.312,77.631,26.429,77.631,26.429"/>
	<path clip-path="url(#SVGID_2_)" fill-rule="evenodd" clip-rule="evenodd" fill="#D3DADE" d="M76.55,33.108l-4.485,1.716v1.355
		c0,0,2.037-0.85,3.189-1.645C76.55,33.656,76.55,33.108,76.55,33.108"/>
	<path clip-path="url(#SVGID_2_)" fill-rule="evenodd" clip-rule="evenodd" fill="#D3DADE" d="M77.153,29.737l-5.089,1.819v1.342
		c0,0,2.042-0.837,3.19-1.63C76.549,30.383,77.153,29.737,77.153,29.737"/>
	<path clip-path="url(#SVGID_2_)" fill-rule="evenodd" clip-rule="evenodd" fill="#D3DADE" d="M53.467,46.629
		c-1.66,0-2.549,0.833-2.782,1.658h5.706C55.987,47.535,55.051,46.629,53.467,46.629"/>
	<path clip-path="url(#SVGID_2_)" fill-rule="evenodd" clip-rule="evenodd" fill="#D3DADE" d="M81.326,22.788
		c0-3.204-5.39-6.073-11.33-6.073c-5.949,0-11.338,2.869-11.338,6.073l0.126,0.78l2.365,13.605l-11.234,6.539
		c-1.198,0.702-2.696,2.634-2.885,4.575h2.049c0.338-1.938,1.877-4.093,4.748-3.964c2.595,0.141,4.126,1.718,5.652,3.964
		l0.394,0.595l0.566,0.888H43.914c1.21,2.432,2.37,5.013,2.37,7.814V91.89c0,8.826,6.792,13.028,14.145,13.028
		c5.675,0,6.441-0.255,9.574,2.871c3.123-3.126,3.884-2.871,9.575-2.871c7.35,0,14.142-4.202,14.142-13.028V57.584
		c0-2.801,1.148-5.382,2.361-7.814H79.547l0.574-0.888l0.394-0.595c1.516-2.246,3.055-3.823,5.65-3.964
		c2.858-0.129,4.404,2.026,4.74,3.964h2.05c-0.185-1.941-1.691-3.873-2.881-4.575l-11.235-6.539l2.37-13.605L81.326,22.788z
		 M60.962,24.347l8.382,2.847v13.097l-6.173-3.242L60.962,24.347z M63.019,52.142c1.102,1.506,2.891,2.621,5.008,3.06
		c0.182,0.795,0.609,1.663,1.453,2.367c-0.349,2.339,0.657,4.524,3.179,5.107c0.262,1.188,1.006,2.091,2.247,2.52l-1.754,2.021
		c-0.667,0.778-1.542,1.028-2.267,0.934l-7.831-0.889c0.337-0.87-0.563-1.877-3.039-1.445l3.077-8.588l-1.88-3.992l-3.557,3.033
		l-0.263,9.015l-1.509-0.744c-1.993-0.854-2.572,2.732-0.682,2.747l0.748,0.008c-0.045,0.373,0.066,0.774,0.356,0.9
		c-0.356,0.151-0.459,0.82-0.012,1.055c-0.458,0.215-0.511,0.893-0.149,1.191c-0.397,0.658-0.455,2.099,0.917,2.46
		c1.117,0.298,1.824-0.913,2.059-1.615l12.179,3.767c1.729,0.495,2.954,0.22,4.387-1.037l3.179-2.775
		c-0.397,1.814,0.255,3.451,1.637,3.991c0,0-0.2,1.625-0.133,2.361H48.654v-20.01c0-1.862-0.538-3.722-1.182-5.442H63.019z
		 M76.121,59.734c-0.669,1.276-0.602,2.75,0.184,4.085l-0.523,0.512c-2.284-0.28-3.186-3.684-3.186-3.684
		c-0.043,0.298-0.073,0.609-0.068,0.906c-1.332-0.492-2.178-1.673-2.11-3.295c0.505,0.283,1.074,0.479,1.677,0.588l0.154-0.999
		c-1.596-0.278-2.529-1.275-2.888-2.45c-0.071-0.011-0.141-0.023-0.212-0.035c0.281,0.024,0.564,0.047,0.854,0.047
		c0.945,0,1.845-0.146,2.689-0.393c0.662,0.943,1.84,1.617,3.022,1.751C75.527,57.541,75.618,58.523,76.121,59.734 M79.506,68.739
		c-0.229,0.303-0.419,0.663-0.538,1.05l-1.273,1.17c0.255-1.862-0.995-4.065-2.14-4.96l1.359-1.327l0.265,0.27
		C76.727,66.13,77.612,68.457,79.506,68.739 M73.351,68.151l1.046-1.024c1.074,0.928,2.475,3.012,2.034,4.988l-1.141,1.042
		c-0.233,0.229-0.481,0.401-0.726,0.553C75.274,71.941,74.365,69.228,73.351,68.151 M71.092,69.021h0.033
		c0.384,0.059,0.789-0.005,1.158-0.159c0.798,1.146,1.423,3.74,0.465,5.362c-0.543,0.005-1.077-0.089-1.575-0.227l-0.397-0.118
		C71.585,72.62,71.463,70.409,71.092,69.021 M68.442,68.693l1.48,0.188c0.233,1.223,0.081,3.345-0.702,4.556l-1.723-0.503
		C68.252,71.913,68.603,69.806,68.442,68.693 M65.359,68.317l1.794,0.213c0.175,0.988-0.159,3.072-0.837,4.072l-1.826-0.528
		C65.22,71.116,65.488,69.415,65.359,68.317 M58.1,67.839c-0.837,0.269-1.206-0.331-1.165-0.843
		c1.634-0.601,2.362-0.215,2.845,0.093c0.442,0.277,0.803,1.062,1.4,1.556c-0.101,0.669-0.309,1.641-0.549,2.291
		c-1.673-0.43-1.761-1.902-1.132-2.803C59.145,67.724,58.774,67.621,58.1,67.839 M56.93,71.1c0,0,0.5,0.215,1.129,0.263
		c-0.073,0.343-0.336,0.679-0.766,0.583C56.94,71.868,56.78,71.425,56.93,71.1 M55.28,66.314c-0.415-0.277-0.228-0.881,0.232-0.881
		c0.503,0.013,1.175,0.583,1.842,0.868C57.354,66.301,55.613,66.534,55.28,66.314 M56.985,69.791
		c0.356,0.348,1.443,0.217,1.443,0.217l0.043,0.214C57.996,70.853,56.682,70.571,56.985,69.791 M58.443,69.069
		c-0.778,0.315-1.571-0.108-1.326-0.612c0.358,0.33,1.366,0.169,1.366,0.169L58.443,69.069z M59.583,60.062l-1.481,5.406
		l0.505-8.716l2.3-1.963l1.17,2.563l-2.957,8.462l0.778-5.697C59.975,59.719,59.648,59.676,59.583,60.062 M59.694,66.612
		c0,0,1.65-0.081,2.117,0.096c0.347,0.143,0.111,0.718-0.331,0.658C61.01,67.308,59.694,66.612,59.694,66.612 M62.284,67.928
		l1.801,0.223c0.134,0.986-0.124,2.656-0.768,3.585l-1.74-0.504C62.039,70.127,62.158,69.105,62.284,67.928 M91.342,91.89
		c0,4.176-1.93,7.343-5.139,9.104l1.152-2.339h-1.114l-1.476,2.992c-1.529,0.581-3.267,0.897-5.187,0.897
		c-5.863,0-7.412,0.239-9.575,2.396c-2.178-2.157-3.724-2.396-9.574-2.396c-1.91,0-3.639-0.314-5.167-0.881h0.043l1.475-3.008
		h-1.114l-1.296,2.629c-0.309-0.147-0.606-0.303-0.9-0.474l1.069-2.155h-1.104l-0.793,1.607c-2.512-1.849-3.988-4.728-3.988-8.372
		V78.77h42.688V91.89z M92.533,52.142c-0.66,1.72-1.196,3.58-1.196,5.442v20.01h-2.33c-1.055-1.021-1.95-4.437-1.95-4.437
		c-0.579,1.233,0.083,3.716,0.705,4.437H84.76c-0.743-1.001-1.387-4.556-1.387-4.556c-0.897,1.022-0.329,3.79,0.227,4.556h-1.991
		c-0.129-1.419,0.278-2.968,0.278-2.968c-1.039-0.193-2.15-0.743-2.145-1.903c0.525,0.496,0.738,0.49,1.47,0.477l0.849-0.669
		c-2.814,0.089-2.941-2.989-0.718-4.433c-2.223,0.071-3.89-1.249-3.075-3.616c-1.589-0.817-2.147-3.494-0.975-4.67
		c-0.849-0.921-0.991-2.72-0.447-3.953c-1.122,0-2.386-0.45-3.091-1.214c-0.052,0.025-0.116,0.043-0.176,0.063
		c1.405-0.573,2.589-1.461,3.396-2.566H92.533z M84.038,42.511c-2.318,0.401-4.304,3.232-5.936,5.776l-0.185,0.295h-1.738
		l-0.003,0.3c-0.184,1.966-2.052,4.638-6.18,4.638c-1.908,0-3.343-0.583-4.331-1.378c-0.859-0.694-1.393-1.554-1.655-2.372
		c-0.099-0.303-0.159-0.598-0.187-0.888l-0.013-0.3h-1.729l-0.187-0.295c-1.639-2.544-3.628-5.375-5.932-5.776l6.299-3.648
		l7.737,4.198l7.73-4.198L84.038,42.511z M76.818,37.049l-6.178,3.242V27.194l8.389-2.847L76.818,37.049z M69.998,25.758
		l-9.159-3.613c0.775-1.84,4.368-3.406,9.159-3.406c4.792,0,8.379,1.566,9.155,3.406L69.998,25.758z"/>
	<path clip-path="url(#SVGID_2_)" fill-rule="evenodd" clip-rule="evenodd" fill="#D3DADE" d="M90.371,65.075l0.013-1.004
		c-3.077-0.07-3.79-3.706-3.79-3.706C85.697,63.04,88.05,65.03,90.371,65.075"/>
	<path clip-path="url(#SVGID_2_)" fill-rule="evenodd" clip-rule="evenodd" fill="#D3DADE" d="M86.478,71.222l-0.313-0.951
		c-2.625,0.671-3.98-3.486-3.98-3.486C81.337,69.807,84.274,71.947,86.478,71.222"/>
	<path clip-path="url(#SVGID_2_)" fill-rule="evenodd" clip-rule="evenodd" fill="#D3DADE" d="M88.302,67.366
		c-3.138,0.497-4.43-3.151-4.43-3.151c-0.345,1.986,0.944,4,3.018,4.213c-0.468,2.592,1.945,3.921,4.033,2.998l-0.301-0.901
		C88.808,71.126,87.107,69.337,88.302,67.366"/>
	<path clip-path="url(#SVGID_2_)" fill-rule="evenodd" clip-rule="evenodd" fill="#D3DADE" d="M86.422,56.954l0.025-1.001
		c-4.143-0.858-3.793-3.705-3.793-3.705C81.758,54.931,84.108,56.912,86.422,56.954"/>
	<polygon clip-path="url(#SVGID_2_)" fill-rule="evenodd" clip-rule="evenodd" fill="#D3DADE" points="60.158,98.655 58.67,101.663 
		59.789,101.663 61.272,98.655 	"/>
	<polygon clip-path="url(#SVGID_2_)" fill-rule="evenodd" clip-rule="evenodd" fill="#D3DADE" points="62.395,98.655 
		60.914,101.663 62.038,101.663 63.508,98.655 	"/>
	<polygon clip-path="url(#SVGID_2_)" fill-rule="evenodd" clip-rule="evenodd" fill="#D3DADE" points="71.37,98.655 69.894,101.663 
		71.004,101.663 72.486,98.655 	"/>
	<polygon clip-path="url(#SVGID_2_)" fill-rule="evenodd" clip-rule="evenodd" fill="#D3DADE" points="73.624,98.655 
		72.131,101.663 73.252,101.663 74.728,98.655 	"/>
	<polygon clip-path="url(#SVGID_2_)" fill-rule="evenodd" clip-rule="evenodd" fill="#D3DADE" points="69.131,98.655 
		67.643,101.663 68.762,101.663 70.245,98.655 	"/>
	<polygon clip-path="url(#SVGID_2_)" fill-rule="evenodd" clip-rule="evenodd" fill="#D3DADE" points="82.237,101.663 
		83.351,101.663 84.835,98.655 83.718,98.655 	"/>
	<polygon clip-path="url(#SVGID_2_)" fill-rule="evenodd" clip-rule="evenodd" fill="#D3DADE" points="64.641,98.655 
		63.162,101.663 64.28,101.663 65.76,98.655 	"/>
	<polygon clip-path="url(#SVGID_2_)" fill-rule="evenodd" clip-rule="evenodd" fill="#D3DADE" points="66.88,98.655 65.399,101.663 
		66.524,101.663 68.002,98.655 	"/>
	<path clip-path="url(#SVGID_2_)" fill-rule="evenodd" clip-rule="evenodd" fill="#D3DADE" d="M61.803,82.5
		c-0.205,0-0.381,0.202-0.381,0.459c0,0.248,0.176,0.449,0.381,0.449c0.215,0,0.392-0.201,0.392-0.449
		C62.195,82.702,62.018,82.5,61.803,82.5"/>
	<path clip-path="url(#SVGID_2_)" fill-rule="evenodd" clip-rule="evenodd" fill="#D3DADE" d="M70.003,14.687
		c4.598,0,8.283,1.521,10.316,3.158c0,0,0.61-3.648,2.669-6.85l-3.704,0.417l-1.938-4.118l-3.73,1.935l-3.613-3.583L66.39,9.229
		l-3.738-1.935l-1.94,4.118l-3.702-0.417c2.064,3.202,2.666,6.85,2.666,6.85C61.707,16.208,65.396,14.687,70.003,14.687
		 M61.351,13.049l1.761-3.739l3.278,1.736L70,7.486l3.616,3.56l3.27-1.736l1.751,3.739l2.171-0.335
		c-0.554,1.044-0.976,1.955-1.365,3.234c-2.376-1.385-5.908-2.452-9.443-2.452c-3.543,0-7.065,1.067-9.445,2.452
		c-0.397-1.279-0.808-2.19-1.372-3.234L61.351,13.049z"/>
	<path clip-path="url(#SVGID_2_)" fill-rule="evenodd" clip-rule="evenodd" fill="#D3DADE" d="M73.783,7.317
		c0.54,0.045,1.016-0.358,1.061-0.896c0.053-0.532-0.733-1.968-0.733-1.968s-1.178,1.264-1.215,1.807
		C72.847,6.792,73.25,7.264,73.783,7.317"/>
	<path clip-path="url(#SVGID_2_)" fill-rule="evenodd" clip-rule="evenodd" fill="#D3DADE" d="M79.854,9.517
		c0.483,0.257,1.066,0.063,1.324-0.414c0.258-0.466,0.091-2.091,0.091-2.091s-1.568,0.701-1.824,1.18
		C79.2,8.667,79.379,9.257,79.854,9.517"/>
	<path clip-path="url(#SVGID_2_)" fill-rule="evenodd" clip-rule="evenodd" fill="#D3DADE" d="M66.207,7.317
		c0.546-0.053,0.945-0.525,0.895-1.057c-0.049-0.543-1.213-1.807-1.213-1.807s-0.784,1.436-0.733,1.968
		C65.196,6.959,65.679,7.362,66.207,7.317"/>
	<path clip-path="url(#SVGID_2_)" fill-rule="evenodd" clip-rule="evenodd" fill="#D3DADE" d="M60.141,9.517
		c0.48-0.26,0.662-0.85,0.404-1.325c-0.252-0.479-1.819-1.18-1.819-1.18s-0.162,1.625,0.099,2.091
		C59.075,9.58,59.663,9.774,60.141,9.517"/>
	<path clip-path="url(#SVGID_2_)" fill-rule="evenodd" clip-rule="evenodd" fill="#D3DADE" d="M132.971,42.845
		c1.295-0.459,2.294-1.696,2.792-2.831c-3.291-0.477-12.036-4.14-19.221-1.155c2.69-2.554,5.106-2.882,5.334-6.553
		c1.12,0.802,3.006,1.254,4.067-0.659c-0.739-2.19-2.615-0.416-2.874-1.019c-0.369-0.832,2.361,0.262,2.946-2.578
		c-2.123-0.729-2.756,1.001-3.134,0.6c-0.352-0.384,1.347-1.11,0.095-3.401c-2.21,1.289-1.057,2.745-1.522,2.904
		c-0.568,0.227-0.124-1.552-2.563-1.469c-0.24,2.617,2.297,2.703,1.875,3.119c-0.498,0.51-1.16-1.506-3.004-0.484
		c0.033,2.114,1.744,3.272,3.517,2.775c-0.285,4.019-3.975,3.27-6.726,7.794c5.819,2.98,8.452,8.18,12.035,11.768
		c1.183-0.833,3.208-4.564,3.208-4.564c3.876,2.999,6.603,0.012,6.603,0.012C135.063,45.742,135.014,44.704,132.971,42.845
		 M127.325,43.577c0.4,0.888,1.193,3.976-0.705,6.33c-2.157-4.312-5.131-8.003-7.531-9.598c-0.529-0.338,0.288-0.943,1.766-1.138
		c4.482-0.845,9.73,1.05,12.225,1.711c-1.162,0.873-2.109,1.259-3.293,1.408c1.815,1.519,3.134,2.806,4.075,4.236
		C132.097,46.965,131.113,45.853,127.325,43.577"/>
	<path clip-path="url(#SVGID_2_)" fill-rule="evenodd" clip-rule="evenodd" fill="#D3DADE" d="M68.919,114.127l-2.52-0.096
		l-0.29,1.012l0.316,0.013c0.103,0,0.103-0.195,0.195-0.303c0.052-0.038,0.507-0.113,0.871-0.076l1.056,0.081
		c-0.624,1.292-2.251,2.511-2.231,3.366c0.025,0.456,0.488,0.552,0.763,0.534c0.508-0.014,0.673-0.376,0.804-0.923
		c0.306-1.274,0.925-2.248,1.369-3.704l-0.313,0.013L68.919,114.127z"/>
	<path clip-path="url(#SVGID_2_)" fill-rule="evenodd" clip-rule="evenodd" fill="#D3DADE" d="M70.64,115.628l0.043-0.774h2.19
		l-0.113-0.866c-0.601,0.018-1.48,0.215-2.292,0.22l-0.149,1.693c1.015-0.045,1.677,0.396,1.677,1.46
		c0,0.394-0.259,1.136-0.716,1.192c-0.107,0.014-0.245-0.024-0.312-0.076c-0.222-0.163,0.068-0.343,0.068-0.619
		c0-0.347-0.361-0.473-0.598-0.43c-0.379,0.022-0.516,0.264-0.516,0.564c0,0.626,0.925,0.798,1.326,0.798
		c0.898,0,1.939-0.5,1.939-1.516C73.187,115.937,71.689,115.656,70.64,115.628"/>
	<path clip-path="url(#SVGID_2_)" fill-rule="evenodd" clip-rule="evenodd" fill="#D3DADE" d="M75.398,113.884
		c-0.78,0-1.428,0.586-1.428,1.383c0,1.262,1.355,1.676,2.36,1.197c0.125,0.978-0.076,1.682-0.447,1.705
		c-0.318,0-0.273-0.238-0.318-0.437c-0.083-0.383-0.382-0.484-0.695-0.383c-0.326,0.093-0.376,0.386-0.321,0.6
		c0.147,0.497,0.761,0.51,1.054,0.473c1.294-0.15,1.832-1.104,1.832-2.165C77.435,115.025,76.73,113.884,75.398,113.884
		 M75.893,116.319c-0.778,0-0.889-1.214-0.889-1.801c0-0.169,0.154-0.401,0.324-0.401c0.711,0,0.909,1.65,0.964,2.116
		C76.176,116.276,76.039,116.319,75.893,116.319"/>
	<path clip-path="url(#SVGID_2_)" fill-rule="evenodd" clip-rule="evenodd" fill="#D3DADE" d="M64.626,113.628
		c-0.117,0.141-0.655,0.817-1.819,1.68l0.095,0.174c0.129-0.071,0.334-0.167,0.685-0.376l-0.685,2.387
		c-0.035,0.131-0.194,0.147-0.273,0.131l-0.409-0.06l-0.075,0.282l2.226,0.399l0.066-0.277l-0.382-0.089
		c-0.114-0.033-0.187-0.111-0.164-0.239l1.013-3.97L64.626,113.628z"/>
	<path clip-path="url(#SVGID_2_)" fill-rule="evenodd" clip-rule="evenodd" fill="#D3DADE" d="M89.944,110.582v-4.902
		c-3.798,1.736-8.626,3.146-14.84,3.706l-0.283,1.752c0.531,0.072,1.195,0.138,2.092,0.193c-2.309,0.318-5.279,0.473-6.911,0.473
		c-1.634,0-4.604-0.155-6.911-0.473c0.89-0.055,1.555-0.121,2.085-0.193l-0.28-1.752c-6.216-0.56-11.055-1.97-14.843-3.706v4.902
		l-5.15,2.112c3.813,1.983,8.205,3.598,13.274,4.904l-0.596,2.054c2.908,0.848,7.549,1.714,12.421,1.714
		c4.867,0,9.511-0.866,12.414-1.714l-0.601-2.054c5.071-1.306,9.469-2.921,13.281-4.904L89.944,110.582z M47.651,112.812
		l3.477-1.395v-4.001c2.231,0.862,5.162,1.756,9.365,2.621l-1.969,6.414C54.236,115.47,50.594,114.144,47.651,112.812
		 M70.002,120.197c-3.926,0-7.75-0.585-11.027-1.388l2.085-6.718c1.382,0.318,4.834,0.742,8.942,0.742
		c4.109,0,7.548-0.424,8.94-0.742l2.088,6.718C77.742,119.612,73.912,120.197,70.002,120.197 M81.479,116.451l-1.974-6.414
		c4.203-0.865,7.131-1.759,9.365-2.621v4.001l3.467,1.395C89.408,114.144,85.775,115.47,81.479,116.451"/>
	<path clip-path="url(#SVGID_2_)" fill-rule="evenodd" clip-rule="evenodd" fill="#D3DADE" d="M10.2,47.091
		c0,0,2.024,3.732,3.204,4.564c3.586-3.587,6.222-8.788,12.038-11.767c-2.751-4.524-6.448-3.767-6.716-7.792
		c1.761,0.495,3.477-0.668,3.512-2.778c-1.852-1.011-2.509,1-3.009,0.485c-0.415-0.424,2.12-0.502,1.877-3.116
		c-2.443-0.076-1.991,1.693-2.567,1.466c-0.458-0.164,0.69-1.618-1.526-2.904c-1.246,2.301,0.457,3.015,0.103,3.401
		c-0.374,0.401-1.015-1.33-3.13-0.601c0.571,2.841,3.31,1.747,2.938,2.579c-0.257,0.603-2.13-1.168-2.865,1.022
		c1.051,1.91,2.944,1.458,4.055,0.658c0.233,3.684,2.646,3.987,5.345,6.551c-7.186-2.985-15.934,0.675-19.234,1.157
		c0.502,1.133,1.503,2.369,2.794,2.819c-2.034,1.877-2.082,2.909-3.421,4.266C3.598,47.101,6.322,50.091,10.2,47.091 M6.132,46.526
		c0.94-1.431,2.251-2.717,4.081-4.231c-1.195-0.154-2.133-0.54-3.303-1.413c2.499-0.661,7.76-2.556,12.235-1.711
		c1.471,0.194,2.302,0.8,1.764,1.138c-2.408,1.595-5.38,5.286-7.543,9.595c-1.887-2.351-1.093-5.44-0.694-6.327
		C8.889,45.853,7.901,46.965,6.132,46.526"/>
	<path clip-path="url(#SVGID_2_)" fill-rule="evenodd" clip-rule="evenodd" fill="#D3DADE" d="M66.847,44.358v2.16
		c0.75-0.896,2.188-0.722,2.188-0.722v3.109c0,0-0.047,1.534-0.591,2.197h1.559h1.559c-0.543-0.663-0.594-2.197-0.594-2.197v-3.109
		c0,0,1.439-0.174,2.184,0.722v-2.16h-3.149H66.847z"/>
	<path clip-path="url(#SVGID_2_)" fill="#FFFFFF" d="M138.264,45.287c-0.377-0.389-0.604-0.742-0.918-1.231
		c-0.162-0.253-0.339-0.518-0.539-0.808c0.543-0.63,1.007-1.357,1.353-2.154l1.394-3.169l-3.429-0.492
		c-0.58-0.086-1.511-0.331-2.598-0.616c-2.104-0.55-4.8-1.257-7.745-1.565c1.006-0.441,1.857-1.233,2.454-2.306l0.563-1.014
		c0,0-0.149-1.423-0.704-1.87c0.214-0.439,0.373-0.925,0.485-1.455l0.464-2.269l-2.191-0.749c-0.338-0.118-0.682-0.202-1.018-0.257
		c-0.124-0.417-0.307-0.856-0.557-1.317l-1.301-2.382l-2.349,1.372c-0.583,0.344-1.076,0.732-1.475,1.171
		c-0.351-0.065-0.725-0.098-1.119-0.098c0,0-1.337-0.149-2.821,0.386l-1.892-1.958l-2.239-2.389c-2.092-2.239-4.929-2.899-7.826-1.8
		c-1.103-1.099-2.827-2.013-5.5-2.013c-0.905,0-1.698,0.108-2.171,0.171c0,0-3.681,0.669-5.748,2.632l-2.512-1.193
		c-1.683,2.644-4.561,3.484-4.561,3.484c-0.194-0.772-0.533-1.496-1.011-2.154l0.165-0.934c0-0.028,0.563-3.184,2.286-5.859
		l2.995-4.655l-4.243,0.477c0.01-0.421-0.007-0.916-0.068-1.506l-0.379-3.624l-3.325,1.499c-0.369,0.167-0.678,0.329-0.963,0.482
		l-0.657-1.398l-1.524,0.79c-0.151-0.376-0.348-0.8-0.616-1.289l-1.757-3.212l-2.491,2.682c-0.255,0.277-0.47,0.53-0.659,0.775
		L70.006,1.97l-1.521,1.509c-0.19-0.245-0.4-0.497-0.655-0.772L65.334,0l-1.761,3.229c-0.268,0.493-0.46,0.911-0.615,1.287
		L61.44,3.729l-0.66,1.395c-0.287-0.153-0.599-0.315-0.965-0.484l-3.338-1.499l-0.369,3.636c-0.06,0.585-0.075,1.077-0.066,1.496
		l-4.25-0.477l3.005,4.658c1.728,2.672,2.279,5.823,2.281,5.848l0.157,0.934c-0.482,0.666-0.819,1.39-1.013,2.162
		c0,0-2.716-1.16-4.536-3.486l-2.562,1.218c-2.923-1.97-4.735-2.738-7.886-2.826c-2.673-0.073-4.397,0.914-5.498,2.011
		c-2.899-1.095-5.729-0.431-7.816,1.802c0,0-1.372,1.488-2.241,2.389c-0.869,0.903-2.148,1.65-2.148,1.65s-1.819-0.409-3.689,0.023
		c-0.399-0.439-0.897-0.83-1.491-1.179l-2.352-1.367l-1.294,2.394c-0.248,0.457-0.427,0.891-0.549,1.305
		c-0.335,0.055-0.677,0.139-1.018,0.257l-2.175,0.749l0.455,2.256c0.108,0.543,0.267,1.029,0.485,1.471
		c-0.127,0.24-0.238,0.497-0.331,0.77l-0.369,1.095l0.561,1.014c0.591,1.072,1.44,1.867,2.448,2.308
		c-2.946,0.308-5.642,1.015-7.752,1.567c-1.082,0.285-2.019,0.53-2.598,0.616l-3.444,0.497l0.783,1.769l0.627,1.408
		c0.356,0.789,0.819,1.516,1.362,2.142c-0.202,0.287-1.074,1.645-1.455,2.034L0,47.056l1.671,1.839
		C1.878,49.12,3.75,51.08,6.78,51.082c0.826,0,1.65-0.143,2.463-0.431c0.809,1.261,1.764,2.538,2.644,3.167
		c-1.61,1.889-3.445,3.527-6.052,4.768l-2.181,1.037l0.935,2.488c0.612,1.498,1.797,3.149,4.096,3.78
		c-0.493,1.465-0.731,2.861-0.938,4.097c-0.492,2.946-0.7,4.165-3.297,5.076L2.118,75.88l0.667,2.374
		c0.541,1.935,1.344,3.217,2.221,4.056l-1.549,1.704c0,0,3.679,2.752,7.285,3.088c0.05,0.008,3.128,0.202,4.508-1.554
		c0.553,1.991,1.427,3.828,2.218,5.495c1.63,3.422,2.497,5.45,1.405,7.297l-2.461,4.171l4.844-0.203
		c2.115-0.087,4.081-0.213,5.779-0.635c0,0.093-0.005,0.179-0.016,0.265l-0.396,3.582l4.245-0.892
		c0.45-0.134,0.864-0.309,1.248-0.515c2.63,3.068,7.093,5.465,13.112,5.465h0.351l-6.919,2.836l5.037,2.619
		c3.317,1.723,7.004,3.169,11.206,4.393l-0.586,2.01l2.529,0.74c1.46,0.428,6.734,1.824,13.157,1.824s11.692-1.398,13.155-1.824
		l2.524-0.74l-0.586-2.008c4.21-1.226,7.897-2.672,11.214-4.395l5.038-2.619l-6.923-2.836h0.349c6.013,0,10.478-2.397,13.106-5.465
		c0.382,0.201,0.801,0.381,1.246,0.515l4.242,0.892l-0.389-3.577c-0.007-0.086-0.013-0.175-0.013-0.267
		c1.696,0.419,3.664,0.545,5.777,0.632l4.838,0.203l-2.453-4.168c-1.094-1.85-0.224-3.876,1.402-7.297
		c0.794-1.665,1.667-3.505,2.219-5.498c0.936,0.712,1.936,1.135,2.937,1.357c0,0,0.777,0.233,1.519,0.253
		c2.145,0.063,3.209-0.543,4.683-1.469l2.671-1.677l-1.565-1.706c0.877-0.84,1.68-2.12,2.223-4.044l0.674-2.382l-2.339-0.816
		c-2.6-0.911-2.804-2.13-3.3-5.074c-0.21-1.238-0.44-2.634-0.936-4.099c2.297-0.633,3.48-2.284,4.092-3.78l0.932-2.491l-2.178-1.034
		c-2.61-1.241-4.443-2.879-6.054-4.768c0.883-0.631,1.838-1.908,2.65-3.167c0.811,0.288,1.63,0.429,2.462,0.431
		c3.029,0,4.905-1.96,5.108-2.185L140,47.06L138.264,45.287z"/>
	<path clip-path="url(#SVGID_2_)" fill-rule="evenodd" clip-rule="evenodd" fill="#FFE710" d="M48.661,77.607V57.602
		c0-1.865-0.538-3.724-1.185-5.44h15.546c1.427,1.955,4.015,3.267,6.981,3.267c2.956,0,5.544-1.312,6.974-3.267h15.547
		c-0.659,1.716-1.19,3.575-1.19,5.44v20.005H48.661z M70.003,104.945c-2.176-2.159-3.725-2.396-9.584-2.396
		c-6.999,0-11.758-4.098-11.758-10.651V78.783h42.678v13.115c0,6.553-4.747,10.651-11.762,10.651
		C73.715,102.549,72.166,102.786,70.003,104.945"/>
	<path clip-path="url(#SVGID_2_)" fill="#FFFFFF" d="M51.133,107.421v3.996l-3.472,1.396c2.939,1.332,6.58,2.657,10.865,3.635
		l1.971-6.406C56.293,109.174,53.364,108.278,51.133,107.421"/>
	<path clip-path="url(#SVGID_2_)" fill="#FFFFFF" d="M70.003,112.833c-4.106,0-7.561-0.424-8.94-0.744l-2.082,6.721
		c3.272,0.802,7.1,1.387,11.022,1.387c3.909,0,7.737-0.585,11.024-1.387l-2.089-6.721C77.551,112.409,74.111,112.833,70.003,112.833
		"/>
	<path clip-path="url(#SVGID_2_)" fill="#FFFFFF" d="M88.865,107.421c-2.231,0.857-5.157,1.753-9.361,2.621l1.975,6.406
		c4.291-0.978,7.924-2.303,10.856-3.635l-3.47-1.396V107.421z"/>
	<path clip-path="url(#SVGID_2_)" fill="#FFFFFF" d="M43.86,42.979c5.441-2.932,18.734-9.386,9.724-16.347
		c-1.231-0.944-2.58-1.794-3.717-2.854c-1.407,1.085,0.528,3.772,1.011,4.756c0,0-3,0.303-3.72,0.303
		c-4.634-0.02-9.496-2.76-7.035-8.016c-1.844,0.381-2.072,2.15-2.635,3.669c-1.183-0.8-3.237-2.516-4.821-2.274
		c1.289,4.113,6.706,7.817,10.908,8.657c-4.253,2.311-12.129,4.029-16.276-0.943c-2.91,5.618,1.145,7.97,5.115,10.914
		C17.289,47.735,19.52,55.468,9.597,61.554c1.288,0.603,7.027-0.608,7.537-0.681c-2.155,2.791-3.161,3.968-3.79,5.324
		c-0.601,1.273-0.874,2.71-1.47,5.805c-0.468,2.448-1.322,4.885-4.301,6.504c1.167,2.11,3.763,0.462,4.847,0.18
		c-0.147,0.222-0.511,2.768-1.486,3.991c5.096-0.328,2.736-11.058,7.838-8.474c1.438,0.723,1.87,2.412,1.205,3.794
		c-3.348,6.898,4.263,12.979,3.848,19.024c1.87-0.016,3.808-0.064,5.034-2.589c0.634,1.259,1.625,3.028,2.173,4.736l1.526-2.591
		c0.938,4.287,4.945,8.253,10.358,8.606c-2.583-4.077,0.51-9.65-5.762-15.572c0.781-0.628,2.588-1.845,3.235-2.672
		c-7.699,0.903-15.732-5.178-12.086-8.064c2.385-1.885,3.426,2.029,7.108,1.37l-1.438-1.242c0.506-0.497,1.082-1.15,1.68-1.637
		c-1.561-0.189-3.272-1.188-3.272-1.188l0.933-1.539c-9.018-0.011-9.248-6.898-5.584-7.174c1.723-0.126,3.946,3.041,9.498,2.382
		c-0.71-0.855-0.994-2.141-1.329-3.099c1.341-0.123,2.918-0.11,4.184-0.726c-2.711-0.351-3.399-1.256-5.653-2.965l2.623-0.958
		c-3.802-1.893-3.57-5.195-3.689-8.634c1.989,1.143,4.328,2.914,6.823,2.089c0.593-0.2,0.975-0.472,0.987-1.09
		C37.609,53.063,35.327,47.583,43.86,42.979 M37.359,43.519c-4.763,5.084-2.701,8.124-1.738,9.063
		c-1.774-0.381-4.42-2.637-3.819-4.822c-0.563,0.676-1.139,1.408-1.735,2.165c-1.183,1.572-2.242,3.116-3.179,4.612
		c-1.443,4.287,1.205,8.714,5.708,10.678c-5.008-0.734-7.255-5.183-7.239-8.013c-2.394,4.511-3.533,8.629-3.429,12.088
		c0.045,1.284,0.157,2.488,0.326,3.618c1.149,2.179,2.997,2.979,6.284,3.376c-2.992,0.189-4.571,0.05-5.875-1.31
		c2.039,8.74,11.558,16.31,15.436,22.791c-3.878-5.038-11.914-12.537-14.728-17.964c-0.218,1.96,0.305,6.984,2.751,10.074
		c-3.598-3.532-3.878-8.888-3.646-12.022c-0.912-2.256-1.488-4.776-1.566-7.643c-0.074-2.638,0.113-4.921,0.515-6.981
		c-2.274,3.227-5.557,4.472-7.173,9.384c0.313-6.338,5.053-6.437,8.596-14.125c1.374-3.365,3.367-6.267,5.579-9.565
		c-2.808,0.919-4.907,1.572-8.152,5.125c2.305-5.445,15.628-11.564,21.731-17.488c-1.83,0.386-9.314,0.575-12.419-1.496
		c5.629,1.524,18.152-0.217,22.882-3.447c-3.267,4.691-10.372,4.956-19.024,14.284C34.559,45.035,36.027,44.147,37.359,43.519"/>
	<path clip-path="url(#SVGID_2_)" fill="#FFFFFF" d="M128.12,72.002c-0.596-3.098-0.863-4.532-1.464-5.803
		c-0.623-1.358-1.633-2.535-3.8-5.326c0.515,0.073,6.265,1.284,7.548,0.681c-9.924-6.086-7.691-13.819-22.822-20.71
		c3.974-2.944,8.024-5.293,5.119-10.917c-4.147,4.975-12.028,3.257-16.275,0.946c4.21-0.84,9.619-4.541,10.908-8.657
		c-1.592-0.242-3.644,1.474-4.826,2.271c-0.564-1.516-0.784-3.287-2.628-3.671c2.464,5.261-2.404,8.001-7.05,8.021
		c-0.71,0-3.707-0.303-3.707-0.303c0.48-0.984,2.413-3.671,1.001-4.756c-1.135,1.06-2.477,1.91-3.71,2.854
		c-9.016,6.961,4.291,13.418,9.726,16.347c8.52,4.604,6.251,10.082,2.686,11.485c0.01,0.618,0.396,0.89,0.99,1.09
		c2.482,0.825,4.831-0.946,6.813-2.089c-0.114,3.436,0.124,6.742-3.679,8.634l2.615,0.958c-2.257,1.709-2.936,2.614-5.647,2.965
		c1.258,0.616,2.847,0.603,4.184,0.729c-0.343,0.952-0.634,2.241-1.335,3.096c5.557,0.659,7.788-2.508,9.501-2.382
		c3.652,0.276,3.437,7.163-5.587,7.174l0.936,1.541c0,0-1.706,0.997-3.275,1.186c0.596,0.487,1.182,1.138,1.685,1.637l-1.44,1.242
		c3.674,0.659,4.725-3.255,7.108-1.37c3.647,2.886-4.384,8.967-12.088,8.064c0.65,0.824,2.453,2.044,3.239,2.674
		c-6.277,5.92-3.194,11.493-5.761,15.575c5.4-0.358,9.407-4.324,10.357-8.611l1.524,2.591c0.545-1.708,1.546-3.477,2.17-4.736
		c1.218,2.526,3.169,2.576,5.046,2.589c-0.424-6.045,7.183-12.126,3.844-19.024c-0.667-1.38-0.237-3.071,1.2-3.794
		c5.108-2.584,2.738,8.146,7.84,8.474c-0.976-1.223-1.342-3.769-1.477-3.991c1.077,0.282,3.666,1.935,4.834-0.182
		C129.45,76.887,128.594,74.447,128.12,72.002 M118.573,63.229c0.399,2.06,0.602,4.345,0.516,6.981
		c-0.086,2.867-0.658,5.387-1.567,7.643c0.233,3.134-0.049,8.49-3.643,12.022c2.437-3.092,2.965-8.114,2.751-10.074
		c-2.828,5.427-10.853,12.926-14.737,17.964c3.884-6.481,13.406-14.054,15.447-22.791c-1.314,1.36-2.883,1.499-5.877,1.313
		c3.285-0.4,5.127-1.2,6.279-3.379c0.172-1.13,0.283-2.334,0.328-3.621c0.108-3.456-1.038-7.574-3.432-12.085
		c0.024,2.83-2.223,7.279-7.236,8.015c4.495-1.966,7.149-6.393,5.705-10.68c-0.934-1.496-1.985-3.04-3.176-4.612
		c-0.591-0.757-1.17-1.486-1.738-2.165c0.602,2.185-2.045,4.441-3.818,4.822c0.965-0.939,3.019-3.979-1.736-9.063
		c1.334,0.628,2.805,1.516,3.914,2.382c-8.652-9.328-15.75-9.59-19.03-14.284c4.738,3.23,17.264,4.973,22.886,3.447
		c-3.103,2.071-10.59,1.882-12.422,1.496c6.1,5.924,19.437,12.043,21.735,17.485c-3.242-3.55-5.351-4.203-8.146-5.119
		c2.211,3.298,4.2,6.197,5.569,9.56c3.553,7.69,8.294,7.786,8.605,14.129C124.132,67.698,120.849,66.456,118.573,63.229"/>
	<path clip-path="url(#SVGID_2_)" fill="#FFFFFF" d="M76.975,52.162c-1.428,1.956-4.018,3.268-6.972,3.268
		c-0.687,0-1.354-0.076-1.981-0.2c0.175,0.808,0.591,1.638,1.453,2.357c-0.351,2.339,0.662,4.529,3.177,5.104
		c0.269,1.191,1.005,2.094,2.251,2.521l-1.751,2.021c-0.675,0.775-1.557,1.022-2.267,0.933l-7.828-0.89
		c0.338-0.868-0.566-1.873-3.045-1.441l3.073-8.593l-1.873-3.987l-3.552,3.032L57.397,65.3l-1.529-0.744
		c-1.971-0.856-2.552,2.732-0.674,2.748l0.755,0.007c-0.051,0.369,0.068,0.777,0.361,0.909c-0.353,0.14-0.462,0.809-0.017,1.044
		c-0.447,0.214-0.511,0.896-0.15,1.191c-0.386,0.663-0.459,2.097,0.91,2.46c1.13,0.295,1.838-0.913,2.067-1.615l12.182,3.767
		c1.713,0.494,2.951,0.217,4.382-1.037l3.179-2.775c-0.4,1.813,0.252,3.451,1.634,3.991c0,0-0.22,1.663-0.133,2.354l4.259,0.007
		h6.711V57.604c0-1.864,0.532-3.726,1.191-5.442h-7.902H76.975z"/>
	<path clip-path="url(#SVGID_2_)" fill="#FFFFFF" d="M58.73,85.82l0.238,0.298c0.331,0.406,0.523,0.31,0.902,0.094l0.553-0.293
		c0.347-0.26,2.613,0.6,2.742-1.28c0.25,1.406-1.423,4.361-0.417,6.013l1.359,2.226l-4.442,0.062c-0.487,0-0.74,0.293-0.874,0.561
		l-1.163,2.407c-0.3,0.633-0.28,1.294,0.102,1.733l0.786,0.883c0,0,0.644-0.548,0.851-1.259l-0.349-0.358
		c-0.288-0.278-0.288-0.535-0.128-0.881l0.715-1.483c0.277-0.583,0.556-0.707,1.187-0.561l3.591,0.775
		c0.265,0.063,0.69,0.192,0.945-0.248c0.437-0.779,1.217-0.83,2.006-0.71c1.971,0.294,6.522,0.766,8.147-1.126
		c1.904,2.526,5.629,2.526,5.384,3.848l-0.785,4.342h1.184l0.721-4.439c0.08-0.516,0.399-1.228-0.159-1.625
		c-0.228-0.178-0.334-0.266-0.852-1.157c-0.678-1.183-0.642-2.955-1.297-4.479c0.619-0.729,1.289-0.976,1.875-0.842
		c1.312,0.32,1.668,2.581,3.532,4.428c-0.211-0.821-0.299-1.721-0.742-2.5c0,0,1.293,1.001,1.627,2.175
		c0.212,0.736,0.43,1.271,1.092,1.612c0.44,0.158,0.963-0.054,1.488-0.682c0,0-1.23-1.746-2.13-2.887
		c-1.233-1.569-2.883-3.14-5.131-2.959c-0.708,0.061-1.393,0.381-2.042,0.767c-2.553-1.428-4.537,0.083-5.328,0.083l-4.78-0.285
		c-0.942-0.058-1.682-1.148-1.682-1.148c-0.122-4.04-3.372-5.649-4.494-5.649c0,0,0.107-0.729-0.189-0.981l-1.001,1.252l-2.771-1.01
		l2.173,1.776l-2.358,2.737C58.574,85.321,58.611,85.674,58.73,85.82"/>
	<path clip-path="url(#SVGID_2_)" fill="#FFFFFF" d="M55.592,91.495c-0.667,0.518-0.639,1.238-0.235,2.044l0.402,0.746l1.043-0.794
		l-0.234-0.513c-0.17-0.361-0.165-0.726,0.131-0.959l1.496-1.128c0.419-0.304,0.551-0.337,1.001-0.272l3.16,0.664
		c0,0-0.477-0.696-0.639-1.405l-2.977-0.392c-0.421-0.055-0.674,0.126-1.043,0.405L55.592,91.495z"/>
	<path clip-path="url(#SVGID_2_)" fill="#FFFFFF" d="M75.802,100.863h1.192l1.916-4.718c0.069-0.162,0.16-0.237,0.233-0.371
		c-0.862-0.338-1.365-0.581-2.082-0.992c0.479,0.644,0.856,0.921,0.656,1.515L75.802,100.863z"/>
	<path clip-path="url(#SVGID_2_)" fill="#FFFFFF" d="M76.815,37.074l2.211-12.701l-8.382,2.844v13.099L76.815,37.074z
		 M72.064,28.506l5.566-2.049c0,0-1.086,0.881-2.377,1.764c-1.15,0.795-3.189,1.64-3.189,1.64V28.506z M72.064,31.579l5.089-1.814
		c0,0-0.609,0.643-1.9,1.529c-1.15,0.787-3.189,1.635-3.189,1.635V31.579z M72.064,34.849l4.48-1.716c0,0,0,0.548-1.291,1.423
		c-1.15,0.795-3.189,1.643-3.189,1.643V34.849z"/>
	<path clip-path="url(#SVGID_2_)" fill="#FFFFFF" d="M61.897,48.31l0.187,0.293h1.726l0.017,0.3
		c0.023,0.288,0.086,0.585,0.182,0.886c0.268,0.822,0.799,1.68,1.655,2.374c0.991,0.797,2.423,1.377,4.331,1.377
		c4.129,0,5.996-2.669,6.176-4.637l0.01-0.3h1.733l0.185-0.293c1.63-2.546,3.618-5.374,5.933-5.775l-6.304-3.651l-7.73,4.198
		l-7.735-4.198l-6.297,3.651C58.271,42.936,60.259,45.764,61.897,48.31"/>
	<path clip-path="url(#SVGID_2_)" fill="#FFFFFF" d="M69.343,40.316V27.217l-8.373-2.846l2.203,12.703L69.343,40.316z
		 M67.933,36.201c0,0-2.036-0.85-3.184-1.642c-1.301-0.876-1.301-1.426-1.301-1.426l4.485,1.716V36.201z M67.933,28.506v1.355
		c0,0-2.036-0.845-3.184-1.64c-1.301-0.886-2.39-1.764-2.39-1.764L67.933,28.506z M67.933,31.579v1.35c0,0-2.036-0.845-3.184-1.635
		c-1.301-0.888-1.905-1.529-1.905-1.529L67.933,31.579z"/>
	<path clip-path="url(#SVGID_2_)" fill="#FFFFFF" d="M70.001,18.769c-4.791,0-8.382,1.567-9.16,3.404l9.16,3.613l9.152-3.613
		C78.374,20.336,74.789,18.769,70.001,18.769"/>
	<path clip-path="url(#SVGID_2_)" fill="#FFFFFF" d="M70.003,13.526c3.53,0,7.062,1.067,9.44,2.453
		c0.386-1.277,0.803-2.188,1.365-3.233l-2.171,0.333L76.886,9.34l-3.275,1.739l-3.608-3.563l-3.613,3.563L63.117,9.34l-1.766,3.739
		l-2.165-0.333c0.566,1.045,0.975,1.956,1.372,3.233C62.941,14.593,66.461,13.526,70.003,13.526"/>
	<path clip-path="url(#SVGID_2_)" fill="#FFFFFF" d="M129.769,42.315c1.186-0.151,2.136-0.542,3.296-1.411
		c-2.501-0.663-7.744-2.555-12.22-1.708c-1.48,0.195-2.299,0.795-1.771,1.136c2.403,1.592,5.374,5.283,7.532,9.592
		c1.897-2.351,1.101-5.442,0.705-6.327c3.785,2.278,4.773,3.385,6.531,2.951C132.908,45.115,131.584,43.826,129.769,42.315"/>
	<path clip-path="url(#SVGID_2_)" fill="#FFFFFF" d="M13.387,49.924c2.16-4.309,5.132-8,7.54-9.593
		c0.536-0.34-0.293-0.941-1.764-1.135c-4.48-0.848-9.733,1.044-12.235,1.708c1.173,0.868,2.11,1.259,3.303,1.411
		c-1.822,1.513-3.141,2.8-4.076,4.233c1.766,0.434,2.752-0.673,6.532-2.955C12.295,44.485,11.497,47.572,13.387,49.924"/>
	<path clip-path="url(#SVGID_2_)" fill-rule="evenodd" clip-rule="evenodd" d="M39.613,89.918c1.743-1.38,3.186-2.07,3.113-5.407
		c-2.616,1.335-10.032,1.264-13.129-2.995c-0.877-1.213,0.06-1.822,0.904-0.868c2.12,2.402,6.052,1.315,7.485,0.62
		c-0.228-0.827-0.865-1.902-1.4-2.361c0.535-0.527,2.054-1.312,2.362-2.662c-0.811-0.439-3.957-0.754-3.957-0.754
		c0.505-0.487,1.135-1.163,0.758-2.962c-3.214,0.986-7.184-0.353-8.088-1.542c-0.887-1.168,0.018-2.264,0.766-1.488
		c1.599,1.678,9.495,3.602,12.431,0.681c-1.089-0.3-2.294-1.274-2.509-1.877c2.717-0.273,4.885-1.875,5.064-3.871
		c-1.503,0-4.343-0.108-5.312-0.835c1.305-0.482,2.128-0.951,2.54-2.41c-4.97-0.3-5.364-3.986-5.392-4.597
		c3.237,1.865,8.937,1.035,7.464-3.555c-2.694-0.144-5.407-4.493,1.999-8.49c6.734-3.641,14.388-7.564,13.71-14.021
		c-0.439-4.135-7.254-6.953-8.118-9.045c-2.846,1.352-3.416,2.922-2.133,5.551c0,0-6.337,0.628-6.838-3.265
		c-0.217-1.746,0.951-3.381,2.206-4.627c-0.712,0-5.485-1.277-6.926,2.606c-2.676-1.824-4.962-1.756-6.766,0.169
		c2.875,1.703,4.657,7.554,9.412,9.28c-3.384,1.832-8.854,1.065-12.045-4.562c-3.022,4.544-4.761,9.046,1.718,13.849
		C17.139,45.839,17.225,56.081,6.969,60.96c1.041,2.788,3.234,2.788,6.029,2.352c-4.435,5.752-0.654,11.775-7.677,14.235
		c0.66,2.346,1.979,4.221,4.566,3.535c-0.735,1.145-1.22,1.123-2.367,2.382c3.838,2.415,8.389,0.666,9.42-7.077
		c0.181-1.383,2.089-0.518,1.43,0.839c-4.374,9.031,6.688,15.826,2.774,22.452c3.452-0.145,6.08-0.414,7.518-1.576
		c0.705,1.389,1.126,2.766,0.975,4.123c1.907-0.385,2.6-1.511,2.732-2.805c1.25,3.64,5.715,7.526,12.858,7.526
		C41.437,101.555,44.967,96.079,39.613,89.918 M32.558,96.576l-1.526,2.592c-0.549-1.708-1.539-3.478-2.173-4.737
		c-1.226,2.526-3.164,2.577-5.034,2.589c0.415-6.045-7.196-12.126-3.848-19.024c0.667-1.38,0.232-3.07-1.206-3.794
		c-5.101-2.584-2.741,8.146-7.838,8.475c0.976-1.224,1.34-3.77,1.486-3.992c-1.084,0.283-3.679,1.935-4.846-0.179
		c2.979-1.619,3.833-4.057,4.303-6.504c0.594-3.096,0.867-4.532,1.468-5.804c0.629-1.357,1.635-2.535,3.79-5.326
		c-0.51,0.073-6.249,1.284-7.54,0.681c9.925-6.085,7.692-13.819,22.82-20.709c-3.967-2.945-8.023-5.294-5.115-10.915
		c4.147,4.973,12.023,3.254,16.276,0.943c-4.203-0.84-9.62-4.541-10.906-8.656c1.582-0.243,3.636,1.473,4.816,2.273
		c0.569-1.521,0.794-3.288,2.638-3.668c-2.461,5.255,2.401,7.995,7.035,8.015c0.72,0,3.719-0.302,3.719-0.302
		c-0.482-0.984-2.418-3.672-1.01-4.756c1.137,1.059,2.486,1.909,3.716,2.853c9.011,6.961-4.285,13.418-9.725,16.347
		c-8.531,4.605-6.249,10.085-2.684,11.485c-0.012,0.618-0.394,0.891-0.988,1.09c-2.494,0.825-4.834-0.948-6.822-2.089
		c0.119,3.439-0.117,6.742,3.689,8.634l-2.623,0.954c2.254,1.713,2.941,2.619,5.653,2.969c-1.266,0.617-2.84,0.604-4.185,0.73
		c0.339,0.954,0.619,2.24,1.329,3.096c-5.551,0.659-7.774-2.508-9.498-2.382c-3.664,0.275-3.434,7.163,5.584,7.174l-0.935,1.541
		c0,0,1.709,0.997,3.275,1.185c-0.598,0.484-1.175,1.141-1.68,1.638l1.44,1.241c-3.684,0.659-4.725-3.255-7.11-1.369
		c-3.646,2.886,4.386,8.967,12.086,8.063c-0.647,0.827-2.454,2.044-3.235,2.674c6.272,5.92,3.179,11.493,5.759,15.575
		C37.503,104.827,33.498,100.863,32.558,96.576"/>
	<path clip-path="url(#SVGID_2_)" fill-rule="evenodd" clip-rule="evenodd" d="M22.663,74.974c1.304,1.36,2.883,1.499,5.875,1.312
		c-3.288-0.399-5.135-1.199-6.287-3.378c-0.167-1.13-0.278-2.334-0.323-3.619c-0.104-3.459,1.035-7.576,3.428-12.087
		c-0.015,2.828,2.229,7.276,7.24,8.015c-4.503-1.966-7.151-6.393-5.708-10.68c0.937-1.496,1.996-3.041,3.178-4.612
		c0.594-0.757,1.173-1.486,1.736-2.165c-0.601,2.183,2.045,4.441,3.813,4.819c-0.957-0.936-3.019-3.976,1.741-9.06
		c-1.329,0.628-2.797,1.516-3.911,2.382c8.647-9.328,15.757-9.591,19.024-14.284c-4.73,3.23-17.253,4.973-22.883,3.447
		c3.106,2.071,10.59,1.882,12.42,1.496c-6.103,5.924-19.426,12.043-21.734,17.488c3.245-3.555,5.347-4.206,8.155-5.122
		c-2.212,3.298-4.205,6.196-5.579,9.562c-3.543,7.688-8.284,7.787-8.597,14.127c1.617-4.914,4.897-6.162,7.174-9.386
		c-0.402,2.059-0.589,4.345-0.518,6.981c0.081,2.867,0.656,5.387,1.569,7.643c-0.232,3.134,0.048,8.49,3.646,12.022
		c-2.446-3.09-2.969-8.114-2.751-10.074c2.814,5.427,10.85,12.926,14.73,17.964C34.221,91.284,24.702,83.714,22.663,74.974"/>
	<path clip-path="url(#SVGID_2_)" fill-rule="evenodd" clip-rule="evenodd" d="M111.579,48.925c2.795,0.916,4.901,1.567,8.146,5.122
		c-2.299-5.445-15.638-11.563-21.738-17.488c1.832,0.384,9.32,0.575,12.422-1.496c-5.622,1.527-18.147-0.217-22.883-3.447
		c3.273,4.694,10.375,4.956,19.028,14.284c-1.11-0.866-2.58-1.754-3.914-2.382c4.754,5.084,2.7,8.124,1.735,9.063
		c1.773-0.381,4.42-2.639,3.818-4.822c0.569,0.679,1.147,1.408,1.739,2.165c1.19,1.572,2.241,3.116,3.175,4.612
		c1.444,4.287-1.21,8.715-5.703,10.681c5.011-0.737,7.258-5.188,7.233-8.016c2.395,4.511,3.542,8.629,3.433,12.088
		c-0.045,1.284-0.156,2.488-0.326,3.618c-1.154,2.18-3.001,2.979-6.284,3.379c2.997,0.186,4.566,0.048,5.88-1.313
		c-2.041,8.741-11.56,16.31-15.447,22.791c3.887-5.038,11.91-12.537,14.737-17.964c0.218,1.96-0.311,6.984-2.751,10.075
		c3.597-3.533,3.876-8.889,3.643-12.026c0.91-2.253,1.481-4.773,1.567-7.639c0.086-2.637-0.116-4.922-0.516-6.982
		c2.277,3.228,5.556,4.472,7.177,9.386c-0.311-6.34-5.052-6.439-8.605-14.126C115.776,55.122,113.79,52.223,111.579,48.925"/>
	<path clip-path="url(#SVGID_2_)" fill-rule="evenodd" clip-rule="evenodd" d="M126.998,63.31c2.792,0.437,4.988,0.437,6.03-2.349
		c-10.259-4.879-10.171-15.121-21.961-20.48c6.48-4.804,4.732-9.305,1.722-13.849c-3.188,5.626-8.677,6.393-12.045,4.561
		c4.745-1.725,6.537-7.576,9.412-9.282c-1.798-1.925-4.095-1.991-6.774-0.169c-1.447-3.881-6.213-2.604-6.929-2.604
		c1.251,1.246,2.434,2.879,2.209,4.628c-0.493,3.893-6.833,3.264-6.833,3.264c1.28-2.629,0.71-4.198-2.135-5.551
		c-0.869,2.092-7.673,4.911-8.116,9.043c-0.681,6.459,6.98,10.383,13.708,14.024c7.404,3.996,4.688,8.346,2.006,8.49
		c-1.488,4.592,4.213,5.42,7.457,3.555c-0.015,0.611-0.427,4.297-5.397,4.599c0.42,1.456,1.241,1.926,2.542,2.407
		c-0.973,0.728-3.808,0.836-5.309,0.836c0.177,1.995,2.35,3.598,5.068,3.87c-0.216,0.601-1.424,1.577-2.51,1.877
		c2.935,2.922,10.829,0.997,12.436-0.681c0.736-0.775,1.633,0.321,0.758,1.486c-0.909,1.191-4.874,2.531-8.091,1.545
		c-0.369,1.796,0.25,2.477,0.758,2.962c0,0-3.145,0.312-3.959,0.754c0.306,1.349,1.832,2.134,2.367,2.662
		c-0.535,0.459-1.172,1.534-1.402,2.361c1.443,0.694,5.372,1.779,7.482-0.62c0.854-0.954,1.786-0.346,0.914,0.865
		c-3.099,4.262-10.518,4.329-13.136,2.997c-0.074,3.338,1.372,4.025,3.113,5.407c-5.362,6.162-1.819,11.637-5.609,17.029
		c7.137,0,11.602-3.891,12.856-7.527c0.142,1.294,0.826,2.42,2.729,2.806c-0.147-1.36,0.278-2.734,0.97-4.123
		c1.446,1.161,4.081,1.431,7.525,1.575c-3.907-6.626,7.153-13.421,2.767-22.451c-0.649-1.357,1.256-2.22,1.44-0.84
		c1.027,7.743,5.581,9.492,9.422,7.077c-1.155-1.258-1.632-1.236-2.371-2.382c2.585,0.687,3.902-1.188,4.567-3.535
		C127.661,75.087,131.441,69.064,126.998,63.31 M127.589,78.686c0.137,0.222,0.501,2.768,1.478,3.991
		c-5.103-0.328-2.737-11.058-7.84-8.474c-1.438,0.723-1.867,2.414-1.2,3.794c3.335,6.898-4.269,12.979-3.841,19.024
		c-1.88-0.013-3.831-0.064-5.046-2.589c-0.627,1.259-1.628,3.028-2.174,4.733l-1.525-2.588c-0.949,4.287-4.956,8.253-10.356,8.611
		c2.567-4.082-0.517-9.655,5.764-15.575c-0.791-0.63-2.592-1.85-3.241-2.674c7.704,0.903,15.734-5.178,12.087-8.064
		c-2.385-1.885-3.433,2.029-7.108,1.37l1.44-1.242c-0.502-0.497-1.088-1.15-1.685-1.637c1.569-0.189,3.275-1.186,3.275-1.186
		l-0.935-1.541c9.021-0.011,9.238-6.898,5.587-7.174c-1.713-0.126-3.945,3.041-9.501,2.382c0.7-0.855,0.991-2.141,1.335-3.096
		c-1.337-0.126-2.927-0.113-4.188-0.729c2.714-0.351,3.394-1.256,5.651-2.965l-2.614-0.958c3.801-1.892,3.564-5.195,3.68-8.634
		c-1.984,1.143-4.334,2.914-6.815,2.089c-0.594-0.2-0.981-0.472-0.994-1.09c3.569-1.401,5.84-6.881-2.682-11.485
		c-5.436-2.929-18.742-9.386-9.727-16.347c1.234-0.944,2.572-1.794,3.707-2.854c1.415,1.085-0.517,3.772-0.998,4.756
		c0,0,2.997,0.303,3.707,0.303c4.647-0.02,9.514-2.76,7.05-8.021c1.845,0.384,2.064,2.155,2.628,3.671
		c1.183-0.797,3.234-2.513,4.826-2.271c-1.291,4.116-6.701,7.817-10.908,8.657c4.247,2.311,12.131,4.029,16.275-0.943
		c2.906,5.621-1.144,7.97-5.119,10.914c15.131,6.888,12.897,14.624,22.822,20.71c-1.283,0.603-7.033-0.608-7.547-0.681
		c2.167,2.791,3.176,3.968,3.799,5.326c0.601,1.271,0.869,2.705,1.464,5.803c0.474,2.448,1.33,4.885,4.303,6.504
		C131.255,80.62,128.666,78.967,127.589,78.686"/>
	<path clip-path="url(#SVGID_2_)" fill-rule="evenodd" clip-rule="evenodd" d="M55.529,95.61l2.158-1.827l-0.329-0.653
		c-0.235-0.47-0.108-0.497,0.139-0.684l1.14-0.847c0.263-0.215,0.541-0.19,0.862-0.114l3.421,0.802h-3.608
		c-0.834,0.056-1.077,0.373-1.378,0.991l-0.247,0.505l-0.928,1.905c-0.315,0.654-0.48,1.529,0.349,2.513l0.655,0.78l-1.33,2.684
		h1.12l0.919-1.861c0.074-0.069,1.431-1.305,1.719-2.587c-0.391-0.321-0.672-0.542-0.455-0.989l0.417-0.89
		c0.136-0.296,0.185-0.417,0.581-0.339l3.588,0.775c0.447,0.123,1.104,0.321,1.584-0.401c0.491-0.749,0.559-0.669,1.699-0.555
		l1.831,0.195c2.504,0.236,5.003-0.389,5.979-1.159c0.339,0.777,1.015,1.368,1.334,1.973c0.116,0.225-0.078,0.54-0.233,0.934
		l-2.056,4.904h3.171l1.794-4.476c0.167-0.428,0.41-0.769,0.594-0.941l-1.029,5.417h3.078l0.816-5.358
		c0.179-1.192,0.074-1.578-0.5-2.067c-1.284-1.08-1.253-3.35-1.667-4.728c0.216-0.126,0.469-0.19,0.772-0.155
		c0.673,0.062,1.176,1.772,1.967,2.872c1.574,2.21,3.723,4.65,6.185,1.213c-0.238-0.39-0.495-0.749-0.794-1.09l-0.687-0.804
		c-0.399-0.445-2.305-2.621-3.1-3.407c-1.804-1.816-4.579-1.539-5.683-0.658c-2.501-1.309-5.142,0.066-5.766,0.015l-4.309-0.26
		c-0.196-0.013-0.495-0.078-0.705-0.413l0.802-0.263c-0.751-3.113-2.633-5.722-5.926-6.169c0,0-0.192-0.984-0.694-1.173
		l-0.983,1.156c-0.279,0.037-0.579,0.123-0.827,0.231l-4.202-1.561l3.156,3.181c0,0-1.637,2.314-2.102,2.789
		c-0.311,0.431-0.281,0.769,0.065,1.183l0.612,0.802c0.319,0.417,0.662,0.399,1.167,0.141l0.693-0.358
		c0.3-0.252,1.311,0.245,1.746-0.151c-0.278,0.906-0.417,1.776-0.48,2.467l-2.833-0.337c-0.619-0.084-0.9,0-1.276,0.292
		l-2.416,1.857c-0.788,0.605-1.033,1.647-0.548,2.662L55.529,95.61z M78.91,96.145l-1.918,4.72h-1.191l1.916-4.571
		c0.2-0.591-0.177-0.865-0.657-1.512c0.712,0.401,1.22,0.664,2.082,0.992C79.069,95.908,78.978,95.983,78.91,96.145 M60.418,85.919
		l-0.548,0.29c-0.379,0.22-0.571,0.315-0.902-0.094l-0.238-0.3c-0.118-0.141-0.156-0.494,0.087-0.764l2.352-2.738l-2.168-1.776
		l2.761,1.017l1.011-1.259c0.296,0.252,0.193,0.979,0.193,0.979c1.119,0,4.368,1.612,4.492,5.654c0,0,0.738,1.085,1.673,1.14
		l4.786,0.29c0.793,0,2.776-1.51,5.329-0.083c0.641-0.385,1.334-0.696,2.042-0.777c2.248-0.166,3.898,1.4,5.132,2.973
		c0.899,1.137,2.131,2.883,2.131,2.883c-0.53,0.628-1.05,0.84-1.49,0.682c-0.662-0.341-0.88-0.876-1.092-1.612
		c-0.335-1.174-1.627-2.175-1.627-2.175c0.44,0.787,0.531,1.68,0.743,2.5c-1.872-1.847-2.223-4.108-3.533-4.418
		c-0.581-0.144-1.255,0.103-1.879,0.827c0.659,1.529,0.624,3.301,1.301,4.484c0.515,0.885,0.621,0.966,0.852,1.158
		c0.553,0.396,0.239,1.108,0.156,1.625l-0.71,4.44H80.08l0.785-4.344c0.24-1.325-3.48-1.325-5.384-3.848
		c-1.625,1.895-6.176,1.421-8.147,1.126c-0.793-0.119-1.569-0.069-2.006,0.714c-0.255,0.436-0.685,0.305-0.945,0.244l-3.591-0.775
		c-0.631-0.146-0.904-0.022-1.185,0.558l-0.717,1.484c-0.16,0.348-0.15,0.603,0.136,0.883l0.338,0.363
		c-0.204,0.711-0.851,1.254-0.851,1.254l-0.783-0.881c-0.382-0.444-0.402-1.089-0.101-1.717l1.162-2.425
		c0.139-0.268,0.387-0.561,0.874-0.561l4.443-0.067l-1.36-2.213c-1.013-1.66,0.667-4.617,0.417-6.016
		C63.039,86.519,60.77,85.664,60.418,85.919 M55.592,91.495l2.105-1.598c0.376-0.285,0.622-0.466,1.049-0.411l2.971,0.392
		c0.162,0.709,0.639,1.405,0.639,1.405l-3.16-0.664c-0.45-0.053-0.582-0.032-1.001,0.271l-1.496,1.129
		c-0.298,0.233-0.306,0.598-0.136,0.959l0.239,0.52l-1.043,0.79l-0.402-0.749C54.953,92.733,54.925,92.007,55.592,91.495"/>
	<path clip-path="url(#SVGID_2_)" fill-rule="evenodd" clip-rule="evenodd" d="M64.749,34.559c1.147,0.792,3.184,1.642,3.184,1.642
		v-1.352l-4.485-1.716C63.448,33.133,63.448,33.683,64.749,34.559"/>
	<path clip-path="url(#SVGID_2_)" fill-rule="evenodd" clip-rule="evenodd" d="M67.933,32.929v-1.35l-5.089-1.814
		c0,0,0.604,0.643,1.905,1.529C65.897,32.081,67.933,32.929,67.933,32.929"/>
	<path clip-path="url(#SVGID_2_)" fill-rule="evenodd" clip-rule="evenodd" d="M67.933,29.861v-1.355l-5.574-2.049
		c0,0,1.089,0.881,2.39,1.764C65.897,29.016,67.933,29.861,67.933,29.861"/>
	<path clip-path="url(#SVGID_2_)" fill-rule="evenodd" clip-rule="evenodd" d="M83.595,48.31h5.7
		c-0.234-0.828-1.122-1.66-2.787-1.66C84.937,46.65,83.989,47.561,83.595,48.31"/>
	<path clip-path="url(#SVGID_2_)" fill-rule="evenodd" clip-rule="evenodd" d="M77.631,26.457l-5.566,2.049v1.355
		c0,0,2.039-0.845,3.189-1.64C76.55,27.338,77.631,26.457,77.631,26.457"/>
	<path clip-path="url(#SVGID_2_)" fill-rule="evenodd" clip-rule="evenodd" d="M76.547,33.133l-4.482,1.716v1.352
		c0,0,2.039-0.85,3.189-1.642C76.547,33.683,76.547,33.133,76.547,33.133"/>
	<path clip-path="url(#SVGID_2_)" fill-rule="evenodd" clip-rule="evenodd" d="M77.153,29.765l-5.089,1.814v1.35
		c0,0,2.042-0.845,3.19-1.635C76.547,30.408,77.153,29.765,77.153,29.765"/>
	<path clip-path="url(#SVGID_2_)" fill-rule="evenodd" clip-rule="evenodd" d="M53.475,46.649c-1.662,0-2.547,0.833-2.784,1.66
		h5.705C55.99,47.557,55.057,46.649,53.475,46.649"/>
	<path clip-path="url(#SVGID_2_)" fill-rule="evenodd" clip-rule="evenodd" d="M81.324,22.814c0-3.202-5.388-6.069-11.328-6.069
		c-5.946,0-11.333,2.867-11.333,6.069l0.124,0.784l2.365,13.6L49.92,43.735c-1.195,0.699-2.691,2.632-2.88,4.574h2.049
		c0.338-1.94,1.875-4.094,4.74-3.961c2.593,0.137,4.129,1.711,5.655,3.961l0.392,0.594l0.566,0.885H43.924
		c1.213,2.435,2.368,5.016,2.368,7.816v34.294c0,8.824,6.787,13.025,14.137,13.025c5.676,0,6.441-0.258,9.574,2.871
		c3.123-3.129,3.886-2.871,9.575-2.871c7.342,0,14.134-4.201,14.134-13.025V57.604c0-2.8,1.15-5.381,2.363-7.816H79.547l0.569-0.885
		l0.394-0.594c1.519-2.25,3.06-3.824,5.655-3.961c2.855-0.133,4.399,2.021,4.738,3.961h2.044c-0.182-1.942-1.686-3.875-2.878-4.574
		l-11.232-6.537l2.371-13.6L81.324,22.814z M60.965,24.373l8.379,2.844v13.099l-6.173-3.242L60.965,24.373z M63.022,52.162
		c1.102,1.507,2.891,2.622,5.008,3.058c0.179,0.795,0.609,1.666,1.45,2.367c-0.349,2.339,0.657,4.524,3.179,5.104
		c0.262,1.191,1.006,2.094,2.244,2.521l-1.751,2.021c-0.667,0.775-1.542,1.022-2.267,0.933l-7.828-0.89
		c0.339-0.868-0.563-1.873-3.04-1.441l3.078-8.593l-1.878-3.987l-3.56,3.032l-0.26,9.013l-1.511-0.744
		c-1.989-0.856-2.567,2.732-0.68,2.748l0.751,0.007c-0.048,0.369,0.063,0.777,0.354,0.901c-0.354,0.148-0.463,0.817-0.013,1.054
		c-0.452,0.212-0.513,0.894-0.149,1.189c-0.397,0.663-0.455,2.097,0.917,2.46c1.122,0.295,1.825-0.913,2.057-1.615l12.179,3.767
		c1.726,0.494,2.951,0.217,4.382-1.037l3.179-2.775c-0.4,1.813,0.255,3.451,1.639,3.991c0,0-0.2,1.63-0.136,2.361H48.662V57.604
		c0-1.864-0.538-3.726-1.18-5.442H63.022z M76.12,59.752c-0.669,1.276-0.602,2.747,0.187,4.082l-0.526,0.515
		c-2.284-0.286-3.186-3.687-3.186-3.687c-0.046,0.306-0.073,0.606-0.068,0.909c-1.332-0.492-2.176-1.676-2.108-3.295
		c0.503,0.28,1.072,0.479,1.673,0.583l0.157-0.994c-1.597-0.278-2.53-1.275-2.883-2.451c-0.076-0.007-0.144-0.024-0.218-0.029
		c0.286,0.022,0.564,0.045,0.854,0.045c0.948,0,1.845-0.146,2.689-0.394c0.662,0.941,1.84,1.618,3.019,1.749
		C75.526,57.557,75.618,58.538,76.12,59.752 M79.501,68.752c-0.227,0.305-0.414,0.663-0.533,1.05l-1.273,1.168
		c0.255-1.86-0.998-4.063-2.14-4.958l1.354-1.328l0.27,0.273C76.727,66.142,77.612,68.474,79.501,68.752 M73.351,68.166l1.052-1.026
		c1.065,0.93,2.469,3.012,2.031,4.988l-1.144,1.047c-0.236,0.226-0.481,0.396-0.728,0.548
		C75.273,71.959,74.365,69.241,73.351,68.166 M71.091,69.037h0.034c0.383,0.058,0.788-0.008,1.157-0.159
		c0.798,1.142,1.425,3.736,0.465,5.356c-0.543,0.01-1.077-0.086-1.575-0.226l-0.397-0.119
		C71.585,72.635,71.468,70.422,71.091,69.037 M68.443,68.709l1.478,0.183c0.236,1.227,0.081,3.349-0.702,4.555l-1.719-0.497
		C68.252,71.926,68.607,69.819,68.443,68.709 M65.36,68.333l1.792,0.212c0.177,0.984-0.159,3.073-0.834,4.069l-1.826-0.527
		C65.223,71.131,65.491,69.431,65.36,68.333 M58.105,67.853c-0.837,0.27-1.203-0.333-1.168-0.844
		c1.638-0.596,2.368-0.213,2.845,0.092c0.44,0.278,0.806,1.065,1.398,1.557c-0.096,0.671-0.304,1.641-0.544,2.289
		c-1.672-0.43-1.76-1.902-1.136-2.799C59.151,67.74,58.779,67.637,58.105,67.853 M56.935,71.118c0,0,0.498,0.207,1.129,0.258
		c-0.073,0.346-0.341,0.679-0.766,0.583C56.945,71.881,56.786,71.441,56.935,71.118 M55.285,66.327
		c-0.415-0.277-0.228-0.878,0.232-0.878c0.503,0.013,1.178,0.583,1.842,0.868C57.359,66.317,55.618,66.552,55.285,66.327
		 M56.988,69.807c0.361,0.345,1.445,0.213,1.445,0.213l0.04,0.218C57.999,70.868,56.687,70.584,56.988,69.807 M58.448,69.087
		c-0.776,0.308-1.572-0.113-1.326-0.613c0.358,0.326,1.364,0.166,1.364,0.166L58.448,69.087z M59.588,60.082l-1.483,5.399
		l0.505-8.712l2.299-1.962l1.17,2.563l-2.956,8.46l0.781-5.695C59.977,59.739,59.653,59.694,59.588,60.082 M59.696,66.627
		c0,0,1.653-0.078,2.12,0.097c0.344,0.143,0.109,0.72-0.336,0.655C61.016,67.324,59.696,66.627,59.696,66.627 M62.289,67.942
		l1.796,0.224c0.137,0.982-0.121,2.652-0.763,3.583l-1.743-0.502C62.044,70.144,62.16,69.115,62.289,67.942 M91.339,91.898
		c0,4.171-1.93,7.343-5.141,9.099l1.152-2.337h-1.114l-1.476,2.993c-1.529,0.58-3.267,0.896-5.182,0.896
		c-5.863,0-7.411,0.237-9.575,2.394c-2.175-2.157-3.722-2.394-9.574-2.394c-1.905,0-3.638-0.311-5.159-0.884h0.038l1.478-3.005
		h-1.112l-1.297,2.629c-0.31-0.146-0.608-0.302-0.897-0.474l1.064-2.155h-1.106l-0.791,1.605c-2.512-1.844-3.985-4.726-3.985-8.367
		V78.781h42.677V91.898z M92.528,52.162c-0.662,1.716-1.194,3.578-1.194,5.442v20.003h-2.329c-1.058-1.024-1.953-4.432-1.953-4.432
		c-0.579,1.228,0.086,3.712,0.704,4.432h-2.999c-0.745-1.004-1.386-4.556-1.386-4.556c-0.898,1.022-0.329,3.787,0.226,4.556h-1.993
		c-0.124-1.42,0.283-2.968,0.283-2.968c-1.044-0.193-2.153-0.741-2.15-1.898c0.528,0.491,0.743,0.484,1.472,0.469l0.847-0.666
		c-2.809,0.091-2.941-2.99-0.713-4.431c-2.228,0.071-3.89-1.251-3.08-3.613c-1.584-0.818-2.142-3.494-0.972-4.672
		c-0.847-0.919-0.989-2.72-0.445-3.952c-1.122,0-2.386-0.446-3.091-1.211c-0.052,0.025-0.118,0.043-0.176,0.063
		c1.405-0.572,2.592-1.461,3.396-2.566H92.528z M84.033,42.534c-2.316,0.401-4.304,3.23-5.934,5.775l-0.181,0.293h-1.739
		l-0.008,0.301c-0.179,1.967-2.046,4.637-6.175,4.637c-1.906,0-3.341-0.583-4.331-1.378c-0.857-0.693-1.39-1.551-1.655-2.374
		c-0.096-0.297-0.159-0.598-0.185-0.885l-0.015-0.301h-1.726l-0.187-0.293c-1.637-2.545-3.625-5.374-5.93-5.775l6.297-3.651
		l7.737,4.198l7.727-4.198L84.033,42.534z M76.815,37.074l-6.171,3.242V27.217l8.384-2.844L76.815,37.074z M70.001,25.786
		l-9.16-3.613c0.778-1.837,4.369-3.404,9.16-3.404c4.789,0,8.374,1.567,9.152,3.404L70.001,25.786z"/>
	<path clip-path="url(#SVGID_2_)" fill-rule="evenodd" clip-rule="evenodd" d="M90.364,65.088l0.018-1.001
		c-3.083-0.073-3.789-3.702-3.789-3.702C85.691,63.057,88.044,65.048,90.364,65.088"/>
	<path clip-path="url(#SVGID_2_)" fill-rule="evenodd" clip-rule="evenodd" d="M86.473,71.234l-0.309-0.948
		c-2.628,0.671-3.987-3.488-3.987-3.488C81.336,69.819,84.27,71.959,86.473,71.234"/>
	<path clip-path="url(#SVGID_2_)" fill-rule="evenodd" clip-rule="evenodd" d="M88.3,67.379c-3.142,0.497-4.43-3.151-4.43-3.151
		c-0.348,1.986,0.941,4.002,3.02,4.213c-0.47,2.594,1.94,3.921,4.027,2.998l-0.301-0.904C88.803,71.144,87.102,69.353,88.3,67.379"
		/>
	<path clip-path="url(#SVGID_2_)" fill-rule="evenodd" clip-rule="evenodd" d="M86.42,56.971l0.027-1.004
		c-4.143-0.853-3.798-3.702-3.798-3.702C81.755,54.948,84.107,56.929,86.42,56.971"/>
	<polygon clip-path="url(#SVGID_2_)" fill-rule="evenodd" clip-rule="evenodd" points="60.161,98.66 58.678,101.665 59.792,101.665 
		61.272,98.66 	"/>
	<polygon clip-path="url(#SVGID_2_)" fill-rule="evenodd" clip-rule="evenodd" points="62.397,98.66 60.919,101.665 62.043,101.665 
		63.512,98.66 	"/>
	<polygon clip-path="url(#SVGID_2_)" fill-rule="evenodd" clip-rule="evenodd" points="71.37,98.66 69.894,101.665 71.006,101.665 
		72.486,98.66 	"/>
	<polygon clip-path="url(#SVGID_2_)" fill-rule="evenodd" clip-rule="evenodd" points="73.619,98.66 72.131,101.665 73.252,101.665 
		74.725,98.66 	"/>
	<polygon clip-path="url(#SVGID_2_)" fill-rule="evenodd" clip-rule="evenodd" points="69.131,98.66 67.648,101.665 68.762,101.665 
		70.245,98.66 	"/>
	<polygon clip-path="url(#SVGID_2_)" fill-rule="evenodd" clip-rule="evenodd" points="82.235,101.665 83.351,101.665 84.833,98.66 
		83.715,98.66 	"/>
	<polygon clip-path="url(#SVGID_2_)" fill-rule="evenodd" clip-rule="evenodd" points="64.644,98.66 63.165,101.665 64.283,101.665 
		65.763,98.66 	"/>
	<polygon clip-path="url(#SVGID_2_)" fill-rule="evenodd" clip-rule="evenodd" points="66.88,98.66 65.399,101.665 66.524,101.665 
		68.002,98.66 	"/>
	<path clip-path="url(#SVGID_2_)" fill-rule="evenodd" clip-rule="evenodd" d="M61.806,82.513c-0.202,0-0.381,0.199-0.381,0.454
		c0,0.247,0.179,0.452,0.381,0.452c0.212,0,0.392-0.205,0.392-0.452C62.198,82.712,62.018,82.513,61.806,82.513"/>
	<path clip-path="url(#SVGID_2_)" fill-rule="evenodd" clip-rule="evenodd" d="M70.003,14.718c4.598,0,8.28,1.521,10.314,3.156
		c0,0,0.61-3.646,2.668-6.845l-3.706,0.414l-1.935-4.118L73.616,9.26l-3.613-3.58L66.39,9.26l-3.735-1.935l-1.938,4.118
		l-3.705-0.414c2.065,3.199,2.666,6.845,2.666,6.845C61.707,16.239,65.399,14.718,70.003,14.718 M61.351,13.08l1.766-3.737
		l3.273,1.737l3.613-3.563l3.613,3.563l3.27-1.737l1.746,3.737l2.176-0.333c-0.559,1.044-0.979,1.953-1.365,3.232
		c-2.378-1.385-5.91-2.452-9.44-2.452c-3.543,0-7.065,1.067-9.445,2.452c-0.397-1.279-0.809-2.188-1.373-3.232L61.351,13.08z"/>
	<path clip-path="url(#SVGID_2_)" fill-rule="evenodd" clip-rule="evenodd" d="M73.783,7.35c0.538,0.045,1.016-0.361,1.061-0.891
		c0.053-0.534-0.733-1.97-0.733-1.97s-1.178,1.264-1.215,1.804C72.846,6.823,73.25,7.297,73.783,7.35"/>
	<path clip-path="url(#SVGID_2_)" fill-rule="evenodd" clip-rule="evenodd" d="M79.854,9.547c0.478,0.257,1.062,0.068,1.319-0.411
		c0.261-0.472,0.091-2.094,0.091-2.094s-1.563,0.704-1.821,1.183C79.198,8.697,79.376,9.287,79.854,9.547"/>
	<path clip-path="url(#SVGID_2_)" fill-rule="evenodd" clip-rule="evenodd" d="M66.207,7.35c0.548-0.053,0.945-0.527,0.897-1.057
		c-0.051-0.54-1.215-1.804-1.215-1.804s-0.784,1.436-0.733,1.97C65.199,6.989,65.679,7.395,66.207,7.35"/>
	<path clip-path="url(#SVGID_2_)" fill-rule="evenodd" clip-rule="evenodd" d="M60.146,9.547c0.478-0.26,0.659-0.85,0.404-1.322
		c-0.253-0.479-1.82-1.183-1.82-1.183s-0.166,1.622,0.097,2.094C59.077,9.615,59.668,9.804,60.146,9.547"/>
	<path clip-path="url(#SVGID_2_)" fill-rule="evenodd" clip-rule="evenodd" d="M132.955,42.865c1.293-0.459,2.293-1.69,2.791-2.831
		c-3.291-0.472-12.032-4.138-19.219-1.153c2.691-2.551,5.109-2.881,5.339-6.55c1.115,0.803,3.002,1.254,4.064-0.658
		c-0.742-2.185-2.611-0.417-2.876-1.017c-0.365-0.838,2.361,0.257,2.944-2.581c-2.12-0.727-2.754,1.001-3.132,0.6
		c-0.351-0.381,1.345-1.11,0.097-3.398c-2.207,1.289-1.059,2.742-1.524,2.906c-0.566,0.222-0.121-1.551-2.56-1.471
		c-0.24,2.619,2.292,2.7,1.877,3.116c-0.502,0.507-1.164-1.503-3.006-0.484c0.033,2.114,1.746,3.275,3.517,2.775
		c-0.29,4.017-3.977,3.268-6.727,7.791c5.82,2.98,8.453,8.175,12.035,11.768c1.181-0.837,3.203-4.564,3.203-4.564
		c3.875,2.997,6.6,0.013,6.6,0.013C135.044,45.762,134.997,44.725,132.955,42.865 M127.308,43.597
		c0.399,0.888,1.192,3.974-0.702,6.328c-2.158-4.309-5.129-8.001-7.532-9.593c-0.526-0.34,0.291-0.941,1.771-1.135
		c4.476-0.848,9.719,1.044,12.22,1.708c-1.164,0.868-2.11,1.259-3.296,1.405c1.815,1.519,3.139,2.806,4.073,4.239
		C132.084,46.983,131.096,45.873,127.308,43.597"/>
	<path clip-path="url(#SVGID_2_)" fill-rule="evenodd" clip-rule="evenodd" d="M68.919,114.127l-2.522-0.093l-0.288,1.007
		l0.316,0.017c0.106,0,0.106-0.197,0.197-0.305c0.05-0.038,0.508-0.113,0.869-0.076l1.056,0.081
		c-0.621,1.292-2.248,2.508-2.228,3.366c0.022,0.456,0.487,0.547,0.766,0.534c0.507-0.017,0.667-0.376,0.798-0.926
		c0.308-1.271,0.925-2.24,1.369-3.698l-0.313,0.01L68.919,114.127z"/>
	<path clip-path="url(#SVGID_2_)" fill-rule="evenodd" clip-rule="evenodd" d="M70.645,115.631l0.038-0.777h2.191l-0.117-0.866
		c-0.598,0.021-1.477,0.215-2.284,0.22l-0.154,1.694c1.015-0.046,1.678,0.395,1.678,1.458c0,0.395-0.26,1.134-0.717,1.19
		c-0.107,0.016-0.245-0.021-0.312-0.073c-0.219-0.163,0.069-0.346,0.069-0.618c0-0.353-0.362-0.477-0.601-0.434
		c-0.377,0.025-0.511,0.27-0.511,0.567c0,0.623,0.927,0.798,1.324,0.798c0.9,0,1.938-0.5,1.938-1.516
		C73.187,115.934,71.685,115.659,70.645,115.631"/>
	<path clip-path="url(#SVGID_2_)" fill-rule="evenodd" clip-rule="evenodd" d="M75.397,113.884c-0.786,0-1.43,0.586-1.43,1.383
		c0,1.262,1.354,1.676,2.36,1.198c0.124,0.98-0.076,1.681-0.448,1.704c-0.315,0-0.27-0.238-0.315-0.439
		c-0.083-0.381-0.384-0.482-0.695-0.381c-0.328,0.096-0.376,0.383-0.321,0.603c0.147,0.494,0.758,0.505,1.054,0.47
		c1.288-0.147,1.829-1.104,1.829-2.165C77.431,115.027,76.726,113.884,75.397,113.884 M75.896,116.319
		c-0.781,0-0.892-1.214-0.892-1.804c0-0.166,0.149-0.401,0.324-0.401c0.712,0,0.907,1.653,0.964,2.119
		C76.175,116.276,76.039,116.319,75.896,116.319"/>
	<path clip-path="url(#SVGID_2_)" fill-rule="evenodd" clip-rule="evenodd" d="M64.628,113.628
		c-0.116,0.144-0.657,0.817-1.819,1.683l0.095,0.169c0.129-0.069,0.334-0.165,0.685-0.374l-0.685,2.389
		c-0.037,0.129-0.196,0.142-0.272,0.129l-0.407-0.058l-0.076,0.28l2.224,0.399l0.068-0.283l-0.384-0.083
		c-0.114-0.033-0.184-0.113-0.164-0.242l1.013-3.967L64.628,113.628z"/>
	<path clip-path="url(#SVGID_2_)" fill-rule="evenodd" clip-rule="evenodd" d="M89.94,110.587v-4.905
		c-3.795,1.739-8.627,3.147-14.838,3.704l-0.282,1.753c0.527,0.074,1.197,0.139,2.089,0.198c-2.302,0.312-5.276,0.466-6.906,0.466
		c-1.632,0-4.604-0.154-6.908-0.466c0.889-0.059,1.554-0.124,2.082-0.198l-0.281-1.753c-6.213-0.557-11.049-1.965-14.835-3.704
		v4.905l-5.149,2.109c3.813,1.981,8.202,3.596,13.276,4.9l-0.602,2.054c2.907,0.85,7.548,1.721,12.417,1.721
		c4.867,0,9.506-0.871,12.411-1.721l-0.598-2.054c5.066-1.304,9.466-2.919,13.278-4.9L89.94,110.587z M47.661,112.812l3.472-1.395
		v-3.996c2.234,0.86,5.16,1.753,9.364,2.621l-1.971,6.406C54.241,115.469,50.597,114.144,47.661,112.812 M70.003,120.197
		c-3.922,0-7.75-0.585-11.022-1.388l2.082-6.72c1.38,0.32,4.834,0.744,8.94,0.744c4.109,0,7.548-0.424,8.935-0.744l2.09,6.72
		C77.741,119.612,73.913,120.197,70.003,120.197 M81.475,116.448l-1.974-6.406c4.205-0.868,7.131-1.761,9.365-2.621v3.996
		l3.466,1.395C89.404,114.144,85.771,115.469,81.475,116.448"/>
	<path clip-path="url(#SVGID_2_)" fill-rule="evenodd" clip-rule="evenodd" d="M10.221,47.113c0,0,2.023,3.727,3.199,4.562
		c3.587-3.59,6.223-8.785,12.037-11.765c-2.751-4.524-6.446-3.764-6.719-7.791c1.766,0.499,3.477-0.667,3.513-2.776
		c-1.85-1.014-2.51,1.002-3.007,0.485c-0.415-0.424,2.117-0.497,1.877-3.114c-2.441-0.076-1.993,1.69-2.567,1.469
		c-0.458-0.167,0.69-1.62-1.526-2.907c-1.244,2.298,0.457,3.015,0.106,3.398c-0.377,0.402-1.016-1.327-3.133-0.6
		c0.573,2.839,3.312,1.744,2.941,2.581c-0.26,0.601-2.13-1.168-2.866,1.017c1.054,1.913,2.944,1.461,4.051,0.661
		c0.237,3.681,2.648,3.989,5.347,6.548c-7.186-2.985-15.929,0.678-19.232,1.158c0.508,1.135,1.506,2.366,2.8,2.816
		c-2.039,1.877-2.087,2.908-3.421,4.271C3.621,47.126,6.339,50.111,10.221,47.113 M6.15,46.548c0.94-1.433,2.256-2.72,4.083-4.233
		c-1.195-0.152-2.132-0.543-3.305-1.411c2.502-0.664,7.76-2.556,12.235-1.708c1.47,0.194,2.3,0.795,1.761,1.133
		c-2.405,1.594-5.377,5.286-7.537,9.593c-1.89-2.352-1.092-5.437-0.7-6.326C8.907,45.875,7.921,46.982,6.15,46.548"/>
	<path clip-path="url(#SVGID_2_)" fill-rule="evenodd" clip-rule="evenodd" d="M66.852,44.379v2.16
		c0.745-0.896,2.186-0.72,2.186-0.72v3.109c0,0-0.051,1.534-0.594,2.193h1.559h1.558c-0.542-0.659-0.593-2.193-0.593-2.193v-3.109
		c0,0,1.438-0.176,2.183,0.72v-2.16h-3.148H66.852z"/>
</g>
</svg>
