<?xml version="1.0" standalone="no"?>
<!DOCTYPE svg PUBLIC "-//W3C//DTD SVG 20010904//EN"
 "http://www.w3.org/TR/2001/REC-SVG-20010904/DTD/svg10.dtd">
<svg version="1.0" xmlns="http://www.w3.org/2000/svg"
 width="700.000000pt" height="700.000000pt" viewBox="0 0 700.000000 700.000000"
 preserveAspectRatio="xMidYMid meet">
<metadata>
Created by potrace 1.11, written by Peter Selinger 2001-2013
</metadata>
<g transform="translate(0.000000,700.000000) scale(0.100000,-0.100000)"
fill="#000000" stroke="none">
<path d="M5512 6788 l3 -213 523 -1 c370 0 525 -3 530 -11 4 -6 7 -245 6 -532
0 -364 3 -521 10 -524 6 -2 67 -2 136 -1 69 1 160 3 203 3 l77 1 0 745 0 745
-745 0 -745 0 2 -212z"/>
<path d="M1730 6309 c0 -3 9 -18 21 -33 l20 -26 -21 -31 c-12 -16 -20 -33 -16
-36 3 -3 44 -5 91 -5 l85 1 -2 -84 -2 -85 -119 0 -118 0 -20 -47 c-11 -27 -24
-57 -29 -68 -57 -131 -100 -319 -104 -450 0 -37 15 -125 27 -153 22 -51 59
-101 81 -108 11 -4 77 -8 145 -8 l125 -1 2 -47 2 -48 -288 0 -288 0 -4 48 c-1
26 -1 61 2 77 l5 31 83 -1 c83 -1 102 5 84 28 -6 7 -17 36 -26 66 -23 77 -15
222 18 351 l13 50 -93 0 -94 0 -1 53 c-1 28 -2 77 -3 107 l-1 55 -114 3 -114
3 27 -36 27 -35 -27 -35 -26 -35 101 0 101 0 0 -40 0 -40 -95 0 c-94 0 -95 0
-110 -29 -60 -118 -72 -319 -23 -416 l24 -50 97 0 97 0 0 -77 0 -78 -34 0
c-31 0 -33 -2 -31 -30 2 -22 -2 -30 -14 -30 -13 0 -130 115 -280 276 -3 2 -5
53 -5 112 l-1 107 -107 3 c-99 2 -107 1 -101 -15 3 -10 13 -26 21 -35 12 -15
11 -21 -13 -52 l-27 -35 102 -3 103 -3 2 -45 c1 -41 10 -57 83 -149 45 -57 82
-106 82 -110 1 -3 2 -29 3 -57 2 -55 5 -59 126 -192 36 -40 83 -101 104 -135
l38 -62 307 -5 307 -5 0 -65 c0 -61 -2 -67 -33 -95 -56 -51 -47 -126 19 -158
53 -25 119 -3 144 49 14 30 14 37 1 69 -8 19 -26 40 -39 46 -21 9 -23 17 -24
85 l-2 74 339 0 339 0 11 43 c6 23 13 47 15 53 2 6 -10 23 -25 37 -46 44 -28
103 58 198 40 43 54 68 70 126 l20 71 -119 -1 -119 -2 0 45 0 46 106 -1 c58 0
107 2 110 6 2 4 -6 28 -17 54 -29 65 -33 201 -9 315 10 47 21 93 25 102 6 16
-4 18 -111 20 l-119 3 0 105 0 105 -113 2 -113 3 25 -37 25 -36 -26 -31 -26
-31 102 -3 101 -3 0 -39 0 -40 -114 0 -114 0 -11 -32 c-48 -157 -48 -340 1
-433 l16 -31 106 1 106 0 0 -45 0 -46 -76 3 c-81 2 -118 -11 -129 -48 -6 -18
-18 -19 -191 -19 l-184 0 0 49 0 49 153 0 c213 0 196 -3 164 30 -14 15 -36 50
-49 77 -20 44 -23 65 -22 175 0 88 6 144 18 190 10 36 19 72 21 80 6 31 49
148 76 209 16 35 29 65 29 67 0 2 -90 4 -200 4 l-200 0 -1 58 c0 31 0 99 1
150 1 50 -2 93 -7 93 -33 5 -213 3 -213 -2z m-195 -1337 c2 -26 -19 -42 -46
-35 -13 4 -19 14 -19 35 0 27 3 29 32 26 25 -2 32 -8 33 -26z m122 -1 c1 -21
-3 -31 -15 -33 -34 -8 -52 4 -52 33 0 26 3 29 33 29 28 0 32 -3 34 -29z m121
0 c-2 -24 -7 -30 -30 -33 -31 -5 -30 -5 -33 35 -2 24 1 27 32 27 31 0 33 -2
31 -29z m122 0 c0 -30 -21 -43 -50 -32 -13 5 -18 30 -11 56 0 3 15 5 31 5 26
0 30 -3 30 -29z m210 0 c0 -52 -64 -50 -66 2 -1 24 2 27 32 27 31 0 34 -3 34
-29z m118 -3 c-2 -28 -7 -33 -28 -33 -17 0 -27 7 -31 20 -9 32 1 45 33 45 27
0 29 -2 26 -32z m123 0 c-7 -32 -11 -34 -51 -29 -5 0 -10 15 -10 31 0 27 3 30
34 30 32 0 33 -1 27 -32z m123 5 c-1 -16 -3 -31 -3 -34 -1 -3 -11 -5 -23 -3
-13 1 -26 3 -30 3 -5 1 -8 15 -8 31 0 27 3 30 33 30 29 0 32 -3 31 -27z"/>
<path d="M5018 4145 c-2 -2 -25 -5 -53 -8 -58 -6 -181 -33 -210 -46 -11 -5
-46 -19 -77 -31 -69 -27 -187 -104 -248 -162 -215 -207 -292 -471 -235 -813
26 -158 114 -323 236 -444 54 -53 182 -151 197 -151 7 0 12 -3 12 -7 0 -5 10
-13 23 -19 12 -6 60 -31 107 -55 47 -25 114 -57 150 -73 36 -16 137 -60 225
-98 359 -155 447 -238 446 -418 0 -149 -116 -268 -301 -307 -58 -12 -251 -8
-310 6 -116 29 -230 92 -314 177 -44 44 -142 167 -149 187 -3 11 -44 -10 -317
-167 -74 -43 -154 -89 -177 -102 l-43 -25 18 -32 c147 -268 404 -473 702 -562
89 -27 97 -28 225 -50 82 -14 429 -14 490 -1 17 4 59 14 95 22 36 9 72 17 80
19 9 2 51 17 95 34 353 136 557 422 559 786 1 176 -13 260 -65 388 -42 106
-87 173 -174 262 -83 85 -141 134 -210 176 -22 13 -47 29 -56 34 -57 35 -301
155 -421 206 -349 149 -429 201 -479 314 -31 69 -30 171 1 238 59 125 217 187
385 151 116 -25 194 -80 275 -195 l48 -69 238 151 c132 83 245 156 252 164 12
11 6 24 -32 82 -196 298 -483 442 -878 441 -59 -1 -109 -2 -110 -3z"/>
<path d="M2969 2973 c0 -626 -2 -1152 -4 -1170 -6 -56 -33 -136 -61 -179 -50
-77 -130 -113 -258 -118 -170 -6 -285 65 -393 244 -26 44 -51 80 -54 80 -8 0
-59 -29 -258 -150 -90 -55 -167 -100 -172 -100 -5 0 -9 -4 -9 -10 0 -5 -5 -10
-11 -10 -5 0 -25 -10 -44 -23 l-35 -24 48 -81 c132 -228 330 -385 575 -456 48
-14 109 -28 135 -32 26 -3 67 -9 92 -13 76 -10 346 -1 369 14 4 2 23 6 44 9
79 12 220 70 317 128 61 37 194 179 234 250 55 100 91 198 110 303 3 17 9 41
13 55 4 14 8 564 10 1223 l3 1197 -325 0 -325 0 -1 -1137z"/>
<path d="M0 745 l0 -745 745 0 745 0 0 213 0 214 -512 1 c-282 0 -522 1 -533
1 -20 1 -20 8 -19 531 l0 530 -213 0 -213 0 0 -745z"/>
</g>
</svg>
