<svg width="23" height="25" viewBox="0 0 23 25" fill="none" xmlns="http://www.w3.org/2000/svg">
    <path d="M22.9554 12.5212C22.9554 15.1482 22.842 17.7752 22.9932 20.3612C23.1445 22.4956 20.7244 25.0406 18.758 24.9995C13.9934 24.8353 9.22871 24.8764 4.46406 24.9585C2.08174 24.9995 -0.0736967 22.5777 0.00193265 20.0739C0.153191 15.0251 0.153191 9.93527 0.00193265 4.84545C-0.0736967 2.50577 2.233 -0.0801887 4.46406 0.00190522C9.11526 0.20714 13.8043 0.0839992 18.4933 0.0429522C19.8546 0.0429522 20.9891 0.494469 21.8966 1.60274C22.5773 2.42368 22.9932 3.36776 22.9932 4.51707C22.9554 7.18512 22.9554 9.85318 22.9554 12.5212ZM16.6404 17.7342C16.6404 16.5028 16.6404 15.2714 16.6404 14.04C16.6782 12.7675 16.716 12.6854 17.8505 12.6854C19.3252 12.7265 19.4009 12.6033 19.4009 11.0846C19.4009 11.0025 19.4009 10.8794 19.4387 10.7973C19.5521 9.56585 19.5521 9.56585 18.4555 9.5248C16.6404 9.48376 16.4135 9.19643 16.7538 7.26722C16.9429 6.24104 17.1698 5.99476 18.153 5.91267C18.4933 5.87162 18.8336 5.95372 19.1362 5.87162C19.3252 5.83057 19.5521 5.58429 19.5899 5.4201C20.0815 3.57299 19.5899 2.87519 17.8505 2.91624C17.3211 2.91624 16.8295 2.95729 16.3001 2.99833C14.4849 3.16252 13.464 4.27079 13.3127 6.24104C13.2749 6.93884 13.2749 7.67769 13.2749 8.37549C13.2749 9.11433 13.048 9.6069 12.2917 9.48376C11.422 9.40166 11.2329 9.85318 11.3085 10.6741C11.3463 10.9614 11.3463 11.2898 11.3085 11.5772C11.2707 12.2339 11.422 12.6033 12.1404 12.6444C13.2371 12.7265 13.2371 12.7675 13.2749 14.04C13.2749 16.0923 13.2749 18.1447 13.2749 20.197C13.2749 23.0293 13.3127 23.0293 15.8463 22.783C16.4513 22.7419 16.6782 22.4135 16.6404 21.7978C16.6404 20.4843 16.6404 19.1298 16.6404 17.7342Z" fill="white" fill-opacity="0.5"/>
</svg>
