<svg width="44" height="44" viewBox="0 0 44 44" fill="none" xmlns="http://www.w3.org/2000/svg">
    <path d="M41.0488 11.299C39.0815 7.82307 36.413 5.07115 33.0426 3.04265C29.6717 1.01404 25.9916 0 21.9998 0C18.0085 0 14.3272 1.01435 10.957 3.04265C7.58627 5.07105 4.91785 7.82307 2.95055 11.299C0.98355 14.7749 0 18.5705 0 22.6859C0 27.6294 1.39862 32.0747 4.19657 36.023C6.99421 39.9715 10.6084 42.7038 15.0387 44.22C15.5544 44.3188 15.9362 44.2493 16.1844 44.0135C16.4327 43.7774 16.5567 43.4817 16.5567 43.1277C16.5567 43.0686 16.5518 42.5371 16.5423 41.5326C16.5324 40.5281 16.5278 39.6517 16.5278 38.904L15.8689 39.0215C15.4489 39.1009 14.9189 39.1345 14.2791 39.125C13.6396 39.1158 12.9757 39.0467 12.2883 38.9182C11.6006 38.7908 10.961 38.4954 10.369 38.0326C9.77721 37.5698 9.35712 36.9641 9.1088 36.2162L8.82235 35.5365C8.63142 35.0839 8.33083 34.5812 7.92017 34.0301C7.50952 33.4786 7.09424 33.1047 6.67416 32.9078L6.47359 32.7597C6.33995 32.6613 6.21594 32.5426 6.10126 32.4049C5.98668 32.2672 5.9009 32.1294 5.84361 31.9914C5.78622 31.8533 5.83378 31.74 5.98678 31.6511C6.13979 31.5622 6.4163 31.5191 6.81753 31.5191L7.39022 31.6073C7.77218 31.6863 8.24465 31.9221 8.80821 32.3162C9.37147 32.71 9.8345 33.2219 10.1974 33.8518C10.6369 34.6594 11.1663 35.2748 11.7873 35.6983C12.4077 36.1218 13.0333 36.3331 13.6634 36.3331C14.2934 36.3331 14.8376 36.2839 15.2961 36.1859C15.7542 36.0874 16.1839 35.9394 16.5851 35.7426C16.757 34.4226 17.2249 33.4085 17.9885 32.6997C16.9001 32.5818 15.9216 32.4041 15.0524 32.1679C14.1838 31.9314 13.2861 31.5475 12.36 31.0153C11.4335 30.4838 10.6648 29.8238 10.0539 29.0365C9.4429 28.2487 8.94145 27.2145 8.55025 25.9348C8.15886 24.6545 7.96311 23.1777 7.96311 21.5038C7.96311 19.1206 8.71761 17.0925 10.2263 15.4184C9.51956 13.6266 9.58628 11.618 10.4267 9.39272C10.9805 9.21528 11.8018 9.34843 12.8902 9.79136C13.9788 10.2345 14.7758 10.6141 15.2821 10.9288C15.7884 11.2435 16.194 11.5101 16.4996 11.7263C18.276 11.2145 20.1092 10.9585 21.9996 10.9585C23.89 10.9585 25.7236 11.2145 27.5001 11.7263L28.5886 11.0177C29.3329 10.5449 30.2119 10.1116 31.2235 9.7177C32.2356 9.32402 33.0096 9.21559 33.5446 9.39303C34.4036 11.6184 34.4801 13.627 33.7732 15.4187C35.2818 17.0928 36.0366 19.1214 36.0366 21.5041C36.0366 23.178 35.8401 24.6595 35.4493 25.9496C35.0581 27.2398 34.5523 28.273 33.9318 29.0513C33.3107 29.8294 32.5371 30.4842 31.6111 31.0156C30.6848 31.5474 29.7868 31.9313 28.9182 32.1678C28.0491 32.4043 27.0706 32.5821 25.9822 32.7002C26.9748 33.5861 27.4713 34.9844 27.4713 36.8945V43.1269C27.4713 43.4809 27.5907 43.7765 27.8297 44.0127C28.0684 44.2485 28.4453 44.3179 28.961 44.2191C33.3919 42.7031 37.0061 39.9707 39.8036 36.0221C42.6009 32.0739 44 27.6286 44 22.6851C43.999 18.5702 43.0149 14.7749 41.0488 11.299Z" fill="#937C96"/>
</svg>
