<svg width="36" height="37" viewBox="0 0 36 37" fill="none" xmlns="http://www.w3.org/2000/svg">
    <path d="M33.5854 9.44488C31.9758 6.53932 29.7925 4.23899 27.0348 2.54336C24.2768 0.847642 21.2658 0 17.9998 0C14.7342 0 11.7223 0.847902 8.96482 2.54336C6.20695 4.2389 4.0237 6.53932 2.41409 9.44488C0.804723 12.3504 0 15.5232 0 18.9632C0 23.0955 1.14433 26.8113 3.43356 30.1117C5.72254 33.4123 8.67956 35.6962 12.3044 36.9636C12.7263 37.0461 13.0387 36.9881 13.2418 36.791C13.4449 36.5937 13.5464 36.3465 13.5464 36.0505C13.5464 36.0011 13.5424 35.5569 13.5346 34.7172C13.5265 33.8775 13.5228 33.145 13.5228 32.5199L12.9837 32.6182C12.64 32.6845 12.2064 32.7126 11.6829 32.7047C11.1597 32.697 10.6165 32.6392 10.0541 32.5318C9.49143 32.4253 8.96811 32.1784 8.4837 31.7916C7.99954 31.4047 7.65583 30.8983 7.45266 30.2732L7.21829 29.705C7.06207 29.3267 6.81613 28.9065 6.48014 28.4459C6.14415 27.9848 5.80438 27.6723 5.46067 27.5077L5.29658 27.3839C5.18723 27.3017 5.08577 27.2025 4.99194 27.0874C4.8982 26.9722 4.82801 26.8571 4.78114 26.7417C4.73418 26.6262 4.77309 26.5315 4.89828 26.4572C5.02346 26.3829 5.2497 26.3469 5.57798 26.3469L6.04654 26.4206C6.35906 26.4866 6.74562 26.6837 7.20672 27.0132C7.66757 27.3423 8.04641 27.7702 8.34333 28.2968C8.70288 28.9719 9.13606 29.4863 9.64412 29.8403C10.1518 30.1943 10.6636 30.3709 11.1791 30.3709C11.6946 30.3709 12.1399 30.3298 12.515 30.2479C12.8898 30.1655 13.2414 30.0418 13.5696 29.8773C13.7103 28.7739 14.0931 27.9263 14.7179 27.3338C13.8274 27.2352 13.0268 27.0867 12.3156 26.8892C11.6049 26.6915 10.8705 26.3707 10.1128 25.9258C9.35467 25.4815 8.72578 24.9298 8.22594 24.2717C7.72601 23.6132 7.31573 22.7487 6.99566 21.6789C6.67543 20.6087 6.51528 19.3743 6.51528 17.9751C6.51528 15.9829 7.13259 14.2876 8.36697 12.8883C7.78873 11.3905 7.84332 9.71152 8.5309 7.85139C8.98403 7.70307 9.65602 7.81438 10.5465 8.18462C11.4372 8.55504 12.0893 8.87235 12.5035 9.13544C12.9178 9.39844 13.2496 9.62131 13.4997 9.80207C14.9531 9.37423 16.4529 9.16026 17.9997 9.16026C19.5464 9.16026 21.0466 9.37423 22.5001 9.80207L23.3907 9.20973C23.9997 8.81449 24.7189 8.45229 25.5465 8.12304C26.3746 7.79397 27.0078 7.70333 27.4455 7.85165C28.1484 9.71186 28.211 11.3908 27.6326 12.8886C28.8669 14.2879 29.4845 15.9836 29.4845 17.9754C29.4845 19.3745 29.3237 20.6129 29.004 21.6913C28.6839 22.7698 28.27 23.6335 27.7624 24.284C27.2542 24.9345 26.6213 25.4818 25.8636 25.926C25.1057 26.3706 24.371 26.6914 23.6603 26.8891C22.9493 27.0868 22.1486 27.2354 21.2581 27.3342C22.0703 28.0747 22.4765 29.2435 22.4765 30.8402V36.0498C22.4765 36.3458 22.5742 36.5929 22.7697 36.7903C22.965 36.9874 23.2734 37.0454 23.6954 36.9629C27.3207 35.6956 30.2777 33.4116 32.5666 30.111C34.8553 26.8106 36 23.0948 36 18.9625C35.9992 15.5229 35.194 12.3504 33.5854 9.44488Z" fill="#937C96"/>
</svg>
