<svg width="23" height="25" viewBox="0 0 23 25" fill="none" xmlns="http://www.w3.org/2000/svg">
    <path d="M11.5194 25C8.60189 25 5.64649 25 2.72898 25C0.834488 25 0.0388118 24.1337 0.0388118 22.1123C0.0388118 15.7182 0.0766993 9.36527 0.000919729 2.97113C-0.03697 1.23852 1.09973 0.000941177 2.6911 0.000941177C8.56401 0.0834463 14.399 0.0834463 20.2719 0.000941177C21.9391 -0.0403114 23 1.27977 23 2.92987C22.9242 9.32402 22.9621 15.6769 22.9621 22.0711C22.9621 24.1337 22.1664 25 20.3098 25C17.3923 25 14.4748 25 11.5194 25ZM10.4206 3.87868C10.4206 3.83743 10.4206 3.75493 10.3827 3.71367C9.20813 3.91994 8.03355 3.96119 6.93474 4.33246C5.38126 4.91 4.58558 6.6426 4.77503 8.58148C4.92659 10.1078 5.9875 11.1804 7.69254 11.4692C7.8441 11.5104 7.99566 11.4692 8.10933 11.5104C9.05657 11.7167 8.63978 12.583 8.79134 13.1605C8.9429 13.738 8.56401 13.7793 8.14722 13.9031C7.19998 14.1918 6.25272 14.5218 5.38126 14.9756C3.18365 16.1307 3.52467 19.2246 5.30549 20.3797C7.1242 21.576 10.5343 21.3285 12.1635 19.9259C13.8686 18.4408 14.0959 15.1406 12.2014 13.738C11.8983 13.4905 11.5952 13.243 11.2921 12.9955C10.2312 12.1704 10.1933 11.6342 11.1784 10.7266C12.8077 9.15901 13.1108 7.71517 12.1635 5.6938C11.8983 5.11626 11.7846 4.78624 12.5045 4.62123C12.694 4.57998 12.8456 4.29121 12.9971 4.1262C12.8077 4.04369 12.6182 3.87868 12.4288 3.87868C11.7467 3.87868 11.0647 3.87868 10.4206 3.87868ZM19.3626 11.8817C19.2489 11.7167 19.1353 11.5517 18.9837 11.4692C18.8321 11.3867 18.6048 11.4279 18.4153 11.3867C17.165 11.2629 17.165 11.2629 17.0513 9.81905C17.0513 9.73655 17.0892 9.61279 17.0513 9.53028C16.9376 9.32402 16.7861 9.15901 16.6724 8.95275C16.5208 9.15901 16.3314 9.32402 16.2177 9.57154C16.142 9.69529 16.1799 9.8603 16.2177 10.0253C16.2935 11.3041 16.1041 11.4279 14.9295 11.3867C14.7779 11.3867 14.6264 11.3454 14.5127 11.3867C14.3233 11.4692 14.1717 11.6342 13.9822 11.7992C14.1717 11.9642 14.3232 12.1704 14.5506 12.2942C14.6643 12.3767 14.8158 12.3355 14.9674 12.2942C16.1041 12.253 16.2556 12.3767 16.2177 13.6968C16.2177 13.8618 16.1799 14.0268 16.2177 14.1506C16.2935 14.3568 16.4451 14.5218 16.5966 14.7281C16.7482 14.5218 16.9376 14.3568 17.0513 14.1093C17.1271 13.9856 17.0892 13.8206 17.0513 13.6555C16.9755 12.418 17.1271 12.253 18.3396 12.2942C18.5669 12.2942 18.7942 12.2942 19.0216 12.2117C19.1731 12.253 19.211 12.0879 19.3626 11.8817Z" fill="white" fill-opacity="0.5"/>
    <path d="M9.12525 21C8.17628 21 7.2976 20.6843 6.62981 19.7824C5.75113 18.5648 5.78628 16.9864 6.77039 15.9492C8.10598 14.5513 10.0039 14.7316 11.2692 16.2649C12.7805 18.1138 11.691 20.3236 10.3202 20.8196C9.93363 20.9549 9.51186 20.9549 9.12525 21Z" fill="white" fill-opacity="0.5"/>
    <path d="M7 7.40036C7 7.15384 7 6.82515 7.03607 6.53755C7.32457 5.09955 8.58676 4.56543 9.63258 5.38715C10.5702 6.12669 11.2193 8.22208 10.9308 9.49574C10.7505 10.2353 10.3178 10.7283 9.66865 10.9337C9.01952 11.0981 8.40645 10.9748 7.93764 10.3585C7.2885 9.57791 7 8.55076 7 7.40036Z" fill="white" fill-opacity="0.5"/>
</svg>
