<svg width="23" height="24" viewBox="0 0 23 24" fill="none" xmlns="http://www.w3.org/2000/svg">
    <path d="M8.02444 15.6346C8.02444 13.3392 8.02444 11.0438 8.02444 8.74838C8.02444 7.41287 8.09882 7.3294 9.2892 7.3294C10.2564 7.3294 11.2236 7.3294 12.228 7.3294C12.8231 7.3294 13.2323 7.53808 13.1951 8.33103C13.1579 8.99878 13.3067 9.08225 13.7531 8.62317C15.1295 7.24594 16.7291 6.74512 18.5146 7.12073C21.1186 7.62155 22.7554 9.91694 22.9042 12.9636C23.0902 16.3023 22.9414 19.6411 22.9786 22.9381C22.9786 23.6893 22.681 23.9815 22.0486 23.9815C21.0442 23.9815 20.0026 24.0232 18.9982 23.9815C18.0311 23.9397 17.8823 23.7728 17.8823 22.6459C17.8451 20.4758 17.8823 18.2638 17.8823 16.0936C17.8823 15.3007 17.8451 14.5495 17.8079 13.7565C17.7335 12.8384 17.3243 12.2123 16.5803 11.8367C15.7247 11.4194 14.9435 11.5863 14.2367 12.2541C13.5299 12.9218 13.2323 13.84 13.2323 14.8833C13.2323 17.3874 13.2323 19.8915 13.2323 22.3955C13.2323 23.9397 13.1951 23.9815 11.8188 23.9815C10.926 23.9815 10.0704 24.0232 9.17761 23.9815C8.17323 23.9397 8.06163 23.8145 8.06163 22.6877C7.98723 20.3088 7.98724 17.9717 8.02444 15.6346C7.98724 15.6346 8.02444 15.6346 8.02444 15.6346Z" fill="white" fill-opacity="0.5"/>
    <path d="M0 15.926C0 13.6814 0 11.4369 0 9.1924C0 8.1503 0.0866722 8.07014 1.21348 8.03006C2.34029 7.98998 3.46708 7.98998 4.63722 8.03006C5.76403 8.07014 5.9374 8.23046 5.98074 9.27256C6.02408 10.956 5.98074 12.6794 5.98074 14.3628C5.98074 17.0482 5.98074 19.7737 5.98074 22.4591C5.98074 23.8619 5.85071 23.9822 4.29052 23.9822C3.25039 23.9822 2.25361 24.0223 1.21348 23.9822C0.130011 23.9421 0.0433281 23.8619 0.0433281 22.8198C-1.05814e-05 20.5352 0 18.2106 0 15.926Z" fill="white" fill-opacity="0.5"/>
    <path d="M2.94162 0C4.66686 0 6 1.38462 6 3.10489C6 4.65734 4.58844 6 3.05925 6C1.25558 6 -0.0383425 4.74126 0.000867567 2.97902C0.0400776 1.25874 1.25559 0 2.94162 0Z" fill="white" fill-opacity="0.5"/>
</svg>
