<svg width="69" height="69" viewBox="0 0 69 69" fill="none" xmlns="http://www.w3.org/2000/svg">
    <rect width="68" height="68" fill="white"/>
    <path d="M4.38261 63.9565H15.3078V64.6765L15.3392 68.3392H0V53H3.66261H4.38261V63.9565Z" fill="#F7DF1E"/>
    <path d="M64.6765 15.3705H63.9565V4.38261H53.0313V3.66261L53 0H68.3392V15.3391L64.6765 15.3705Z" fill="#F7DF1E"/>
    <path fill-rule="evenodd" clip-rule="evenodd" d="M55.1942 37.4358H56L55.0279 40.816C53.5023 42.1289 50.3165 45.4973 53.2848 46.8725L52.5652 49.3802H37.162V52.7138C38.1417 53.0007 38.8493 53.825 38.8493 54.8001C38.8493 56.0133 37.7531 57 36.4039 57C35.0543 57 33.9622 56.0133 33.9622 54.8001C33.9622 53.825 34.6701 53.0007 35.6495 52.7138V49.3802H21.5463C21.5224 48.8118 20.1489 46.7352 19.3478 45.8777C17.7177 44.1334 15.7482 41.9451 15.5086 41.2416C15.2279 40.4172 15.5726 39.2187 15.5726 39.2187L11.6316 34.1442V32.1338H7L8.1717 30.6039L7.0336 29.0364H12.1808V34.0517L18.4585 40.3655L19.0155 40.375V38.9292H20.4669L20.5324 35.4519H16.1092C14.1414 32.558 14.4426 28.1574 16.4296 24.1954H20.7449L20.7777 22.4615H20.775H16.1435L17.315 20.9316L16.1773 19.364H21.3242V22.4447H21.3277L21.3608 24.1954H25.6844C24.5838 27.9655 23.9286 32.558 25.8964 35.4519H21.5733L21.6388 38.9291L25.57 38.9292H34.7904L34.8172 36.7605H32.6839H28.6249C22.4933 32.0308 29.6352 17.8662 29.6352 17.8662H35.0502L35.0966 14.0974H30.7814L31.953 12.5675L30.815 11H35.9621V14.0846L36.0088 17.8662H45.2193C45.2193 17.8662 38.0772 32.0308 44.2088 36.7605H36.242L36.2688 38.9292H36.6189H43.6428H44.6297C44.8203 38.1011 45.5049 37.4358 45.99 37.4358H46.9733H49.4204L49.4616 35.4519H44.6653C42.6973 32.558 43.353 27.9655 44.4534 24.1954H49.6951L49.7311 22.4615H45.1007L46.2722 20.9316L45.1343 19.364H50.2812V22.4477L50.3175 24.1954H55.603C54.5024 27.9655 53.847 32.558 55.815 35.4519H50.551L50.5923 37.4358H55.1942ZM26.5228 40.7288H25.0784V42.1619H26.5228V40.7288ZM29.2968 40.7288H27.8474V42.1619H29.2968V40.7288ZM32.0663 40.7288H30.6221V42.1619H32.0663V40.7288ZM34.8398 40.7288H33.3911V42.1619H34.8398V40.7288ZM39.6759 40.7288H38.2319V42.1619H39.6759V40.7288ZM42.4496 40.7288H41.0012V42.1619H42.4496V40.7288ZM45.2193 40.7288H43.7752V42.1619H45.2193V40.7288ZM47.9933 40.7288H46.5442V42.1619H47.9933V40.7288Z" fill="#010203"/>
</svg>
