<svg width="270" height="270" viewBox="0 0 270 270" fill="none" xmlns="http://www.w3.org/2000/svg">
    <path d="M16.4348 253.565H57.4043V256.265L57.5217 270H0V212.478H13.7348H16.4348V253.565Z" fill="#F7DF1E"/>
    <path d="M256.265 57.6391H253.565V16.4348H212.596V13.7348L212.478 0H270V57.5217L256.265 57.6391Z" fill="#F7DF1E"/>
    <path d="M218.348 164.7L211.891 162C200.974 157.304 196.161 154.134 196.161 146.504C196.161 140.282 200.974 135.587 208.37 135.587C215.648 135.587 220.461 138.639 224.804 146.504L244.761 133.826C236.309 119.152 224.687 113.517 208.37 113.517C185.478 113.517 170.922 128.074 170.922 147.091C170.922 167.752 183.13 177.613 201.678 185.478L208.135 188.178C219.874 193.226 226.8 196.395 226.8 205.082C226.8 212.361 219.991 217.643 209.426 217.643C196.748 217.643 189.704 211.069 184.187 202.148L163.291 214.121C170.804 228.795 186.183 240.065 209.896 240.065C234.196 240.065 252.391 227.504 252.391 204.613C252.391 183.365 240.183 173.974 218.348 164.7Z" fill="#010203"/>
    <path d="M123.73 201.326C123.73 214.004 118.448 217.291 109.996 217.291C101.191 217.291 97.5522 211.304 93.5609 204.261L72.6653 216.822C78.6522 229.5 90.6261 240.065 111.052 240.065C133.709 240.065 149.322 228.091 149.322 201.678V114.809H123.73V201.326Z" fill="#010203"/>
    <path d="M111.404 65.3871H103.422L103.304 61.8654H112.344C108.939 57.1697 110.113 48.9523 111.991 41.9088H102.835L103.891 38.8567V33.6914H93.9131L95.9088 36.6262L93.9131 39.561H101.896L101.778 41.9088H92.7392C90.8609 48.9523 89.687 57.1697 93.0914 61.8654H101.309L101.426 65.0349V65.3871H96.9653H95.3218C94.5001 65.3871 93.3262 66.561 92.974 67.7349H91.5653H79.474H78.887V64.2132H92.6218C82.0566 55.9958 94.3827 31.3436 94.3827 31.3436H78.4175L79.474 24.3001V19.6045H69.4957L71.4914 21.9523L69.4957 24.3001H76.8914L76.774 31.3436H67.5001C67.5001 31.3436 55.174 55.9958 65.7392 64.2132H72.7827H76.3044V67.7349H60.4566H53.6479V67.3828V67.5001L53.5305 61.8654H60.9262C57.5218 57.1697 58.6957 48.9523 60.574 41.9088H53.1783V39.561H53.6479V33.6914H44.2566L46.2523 36.6262L44.2566 39.561H52.2392V41.9088H43.9044C42.0262 48.9523 40.8523 57.1697 44.2566 61.8654H51.887L51.4175 67.5001V67.7349H50.2436V69.9654H49.3044L38.5044 59.048V50.2436H28.6436L30.6392 53.1784L28.6436 56.1132H37.4479V59.2827L43.787 68.0871C43.787 68.0871 42.9653 70.2001 43.4349 71.6088C43.9044 72.7827 47.1914 76.5393 50.0088 79.4741C51.4175 81.0001 53.6479 85.461 53.6479 85.461H78.4175V91.5654C77.2436 92.0349 75.2479 93.4436 75.2479 95.2045C75.2479 97.3175 77.0088 99.0784 79.3566 99.0784C81.7044 99.0784 83.5827 97.3175 83.5827 95.2045C83.5827 93.561 83.1131 92.0349 80.7653 91.5654V85.461H107.061L108.352 81.2349C103.187 78.8871 108.704 73.3697 111.404 71.0219L113.048 65.5045H111.404V65.3871ZM62.4523 73.2523H60.1044V70.9045H62.4523V73.2523ZM67.1479 73.2523H64.8001V70.9045H67.1479V73.2523ZM71.8436 73.2523H69.4957V70.9045H71.8436V73.2523ZM76.5392 73.2523H74.1914V70.9045H76.5392V73.2523ZM84.7566 73.2523H82.4088V70.9045H84.7566V73.2523ZM89.4522 73.2523H87.1044V70.9045H89.4522V73.2523ZM94.1479 73.2523H91.8001V70.9045H94.1479V73.2523ZM98.8435 73.2523H96.4957V70.9045H98.8435V73.2523Z" fill="#010203"/>
</svg>
