<svg width='138' height='168' viewBox='0 0 138 168' fill='none' xmlns='http://www.w3.org/2000/svg'>
    <g filter="url(#filter0_d)">
        <path fill-rule="evenodd" clip-rule="evenodd" d="M83.4948 124.797L68.2368 155L53.238 124.797H10V7H128V124.797H83.4948Z" fill="white"/>
        <path style="transform: translate(32px, 34px)" fill-rule="evenodd" clip-rule="evenodd" d="M63.9311 35.0561H65L63.7104 39.5386C61.6868 41.2796 57.4606 45.7464 61.3981 47.5701L60.4436 50.8955H40.0108V55.3161C41.3105 55.6966 42.249 56.7897 42.249 58.0828C42.249 59.6916 40.7949 61 39.0051 61C37.2149 61 35.7662 59.6916 35.7662 58.0828C35.7662 56.7897 36.7052 55.6966 38.0044 55.3161V50.8955H19.2961C19.2644 50.1418 17.4424 47.388 16.3798 46.2508C14.2174 43.9377 11.6048 41.0359 11.2869 40.103C10.9145 39.0098 11.3718 37.4204 11.3718 37.4204L6.14402 30.6913V28.0252H0L1.5543 25.9965L0.0445758 23.9178H6.87254V30.5685L15.2001 38.9412L15.939 38.9538V37.0366H17.8643L17.9512 32.4253H12.0836C9.47325 28.5878 9.87285 22.7523 12.5087 17.4983H18.2331L18.2765 15.1989H18.2729H12.1291L13.6832 13.1702L12.1739 11.0913H19.0014V15.1766H19.0062L19.0501 17.4983H24.7855C23.3255 22.4977 22.4563 28.5878 25.0667 32.4253H19.3319L19.4188 37.0364L24.6337 37.0366H36.8648L36.9004 34.1607H34.0705H28.6861C20.5523 27.8887 30.0263 9.10524 30.0263 9.10524H37.2095L37.271 4.10738H31.5468L33.1009 2.07862L31.5914 0H38.4191V4.09045L38.481 9.10524H50.6991C50.6991 9.10524 41.2249 27.8887 49.3586 34.1607H38.7904L38.8259 37.0366H39.2904H48.6078H49.917C50.1698 35.9385 51.078 35.0561 51.7214 35.0561H53.0258H56.2719L56.3266 32.4253H49.9642C47.3536 28.5878 48.2233 22.4977 49.683 17.4983H56.6364L56.6841 15.1989H50.5417L52.0958 13.1702L50.5863 11.0913H57.4138V15.1807L57.462 17.4983H64.4734C63.0134 22.4977 62.144 28.5878 64.7546 32.4253H57.7717L57.8265 35.0561H63.9311ZM25.8976 39.423H23.9815V41.3234H25.8976V39.423ZM29.5774 39.423H27.6547V41.3234H29.5774V39.423ZM33.2513 39.423H31.3354V41.3234H33.2513V39.423ZM36.9303 39.423H35.0086V41.3234H36.9303V39.423ZM43.3456 39.423H41.43V41.3234H43.3456V39.423ZM47.0249 39.423H45.1037V41.3234H47.0249V39.423ZM50.6991 39.423H48.7834V41.3234H50.6991V39.423ZM54.3788 39.423H52.4566V41.3234H54.3788V39.423Z" fill="black"/>
        <path style="transform: translate(23px, 89px)" d="M5.71429 14.2857H19.9592V15.2245L20 20H0V0H4.77551H5.71429V14.2857Z" fill="#F7DF1E"/>
    </g>
    <defs>
        <filter id="filter0_d" x="0" y="0" width="138" height="168" filterUnits="userSpaceOnUse" color-interpolation-filters="sRGB">
            <feFlood flood-opacity="0" result="BackgroundImageFix"/>
            <feColorMatrix in="SourceAlpha" type="matrix" values="0 0 0 0 0 0 0 0 0 0 0 0 0 0 0 0 0 0 127 0"/>
            <feOffset dy="3"/>
            <feGaussianBlur stdDeviation="5"/>
            <feColorMatrix type="matrix" values="0 0 0 0 0 0 0 0 0 0 0 0 0 0 0 0 0 0 0.45 0"/>
            <feBlend mode="normal" in2="BackgroundImageFix" result="effect1_dropShadow"/>
            <feBlend mode="normal" in="SourceGraphic" in2="effect1_dropShadow" result="shape"/>
        </filter>
    </defs>
</svg>
