<svg width="138" height="168" viewBox="0 0 138 168" fill="none" xmlns="http://www.w3.org/2000/svg">
    <g filter="url(#filter0_d)">
        <path fill-rule="evenodd" clip-rule="evenodd" d="M83.4948 124.797L68.2368 155L53.238 124.797H10V7H128V124.797H83.4948Z" fill="white"/>
    </g>
    <path fill-rule="evenodd" clip-rule="evenodd" d="M25.0868 94.9453H24.0699L19 94.9635V116H40.3039L40.265 110.98V110.012H25.0868V94.9453Z" fill="#FFE816"/>
    <path fill-rule="evenodd" clip-rule="evenodd" d="M119 16H97.6961L97.735 21.0198V21.9879H112.913V37.0547H113.93L119 37.0365V16Z" fill="#FFE816"/>
    <path fill-rule="evenodd" clip-rule="evenodd" d="M59.5773 42.9513L59.6058 44.3023H62.7907H63.3484L62.6756 46.6043C61.6198 47.4985 59.4149 49.7925 61.4692 50.729L60.9713 52.4368H50.311V54.707C50.989 54.9025 51.4787 55.4638 51.4787 56.1279C51.4787 56.9541 50.7201 57.6261 49.7864 57.6261C48.8523 57.6261 48.0966 56.9541 48.0966 56.1279C48.0966 55.4638 48.5864 54.9025 49.2642 54.707V52.4368H39.5036C39.4871 52.0498 38.5366 50.6355 37.9822 50.0514C36.8541 48.8635 35.4909 47.3734 35.3251 46.8941C35.1308 46.3328 35.3694 45.5165 35.3694 45.5165L32.6418 42.0607V40.6916H29.4365L30.2474 39.6496L29.4597 38.5821H33.022V41.9977L37.3668 46.2975L37.7522 46.3041V45.3194H38.7567V45.3193L38.802 42.9513H35.7407C34.3788 40.9804 34.5874 37.9835 35.9625 35.2853H38.9491L38.9716 34.1044H38.9698H35.7645L36.5753 33.0625L35.7878 31.995H39.3499V34.093H39.3524L39.3753 35.2853H42.3676C41.6058 37.8528 41.1523 40.9804 42.5143 42.9513H39.5223L39.5677 45.3193V45.3194H42.2884H48.6697L48.6882 43.8425H47.2118H44.4026C40.1591 40.6214 45.1018 30.9749 45.1018 30.9749H48.8494L48.8816 28.4083H45.8951L46.7059 27.3664L45.9184 26.2988H49.4805V28.3995L49.5128 30.9749H55.8872C55.8872 30.9749 50.9445 40.6214 55.1879 43.8425H49.6742L49.6928 45.3194H49.9351H54.7962H55.4793C55.6112 44.7555 56.085 44.3023 56.4207 44.3023H57.1012H58.7947H58.7948L58.8233 42.9513H55.5038C54.1419 40.9804 54.5957 37.8528 55.3573 35.2853H58.985L59.0098 34.1044H55.8052L56.616 33.0625L55.8285 31.995H59.3906V34.095L59.4157 35.2853H63.0737C62.3119 37.8528 61.8584 40.9804 63.2204 42.9513H59.5773ZM42.9478 46.545H41.9482V47.521H42.9478V46.545ZM44.8676 46.545H43.8646V47.521H44.8676V46.545ZM46.7845 46.545H45.7848V47.521H46.7845V46.545ZM47.7013 47.521H48.7038V46.545H47.7013V47.521ZM52.0508 46.545H51.0514V47.521H52.0508V46.545ZM53.9704 46.545H52.968V47.521H53.9704V46.545ZM55.8872 46.545H54.8879V47.521H55.8872V46.545ZM57.8071 46.545H56.8042V47.521H57.8071V46.545ZM45.9331 95.9125L45.9334 95.9123C48.1694 100.563 52.5741 104.417 60.162 104.417C68.5642 104.417 74.323 100.031 74.323 90.3964V58.6355H64.8373V90.2648C64.8373 94.9157 62.8723 96.1114 59.7553 96.1114C56.5036 96.1114 55.148 93.9191 53.6577 91.3279L45.9334 95.9123L45.9331 95.9116V95.9125ZM87.1988 90.5301L79.4751 94.9157C82.2528 100.298 87.9446 104.418 96.7527 104.418C105.764 104.418 112.472 99.8331 112.472 91.4604C112.472 83.6862 107.932 80.2314 99.8691 76.8423L97.4978 75.8458C93.4327 74.1181 91.671 72.9883 91.671 70.1973C91.671 67.9385 93.4327 66.2109 96.2108 66.2109C98.921 66.2109 100.682 67.3404 102.308 70.1973L109.694 65.5462C106.577 60.164 102.241 58.1038 96.2108 58.1038C87.7409 58.1038 82.3206 63.4199 82.3206 70.397C82.3206 77.9718 86.8603 81.5601 93.7041 84.4169L96.0751 85.4142C100.412 87.2742 102.986 88.4038 102.986 91.5933C102.986 94.2513 100.48 96.1784 96.5496 96.1784C91.8745 96.1784 89.232 93.7863 87.1988 90.5301Z" fill="black"/>
    <defs>
        <filter id="filter0_d" x="0" y="0" width="138" height="168" filterUnits="userSpaceOnUse" color-interpolation-filters="sRGB">
            <feFlood flood-opacity="0" result="BackgroundImageFix"/>
            <feColorMatrix in="SourceAlpha" type="matrix" values="0 0 0 0 0 0 0 0 0 0 0 0 0 0 0 0 0 0 127 0"/>
            <feOffset dy="3"/>
            <feGaussianBlur stdDeviation="5"/>
            <feColorMatrix type="matrix" values="0 0 0 0 0 0 0 0 0 0 0 0 0 0 0 0 0 0 0.45 0"/>
            <feBlend mode="normal" in2="BackgroundImageFix" result="effect1_dropShadow"/>
            <feBlend mode="normal" in="SourceGraphic" in2="effect1_dropShadow" result="shape"/>
        </filter>
    </defs>
</svg>
