<svg width="14" height="25" viewBox="0 0 14 25" fill="none" xmlns="http://www.w3.org/2000/svg">
    <path d="M14 14.8156C13.9609 15.8811 13.609 16.5368 12.9051 16.9057C12.0839 17.3565 11.2628 17.7663 10.4025 18.1351C9.93324 18.34 10.0506 18.463 10.2852 18.7089C11.1846 19.6515 12.0839 20.5531 12.9442 21.5367C13.6481 22.3563 13.7654 23.094 13.3352 23.9137C12.7096 25.1022 11.2628 25.389 10.207 24.4055C9.34669 23.5858 8.48643 22.7252 7.70436 21.8236C7.19601 21.2088 6.80497 21.2498 6.29662 21.8236C5.51455 22.7252 4.6934 23.5858 3.79402 24.4055C2.93374 25.2251 1.76063 25.1431 1.01766 24.3645C0.235593 23.5448 0.235598 22.4793 1.09587 21.4957C1.95615 20.5121 2.85552 19.6105 3.7549 18.6679C4.06773 18.381 4.02863 18.2581 3.63759 18.0532C2.77732 17.6843 1.91706 17.3155 1.13499 16.8647C0.470233 16.4958 0.0400858 15.8401 0.000982352 15.0205C-0.0381211 13.668 1.09587 12.7664 2.38628 13.0533C2.81642 13.1353 3.20747 13.3812 3.5985 13.5861C5.8665 14.6926 8.09539 14.6516 10.3634 13.5861C10.8717 13.3402 11.4583 13.0533 12.0057 13.0123C13.1788 12.9304 14 13.832 14 14.8156Z" fill="white" fill-opacity="0.5"/>
    <path d="M7.0373 0.0206653C10.3372 -0.142042 13.0371 3.15278 12.9996 6.52895C12.9621 9.74241 10.7497 12.8338 6.9248 12.9965C3.73741 13.1186 1 9.98647 1 6.40692C1 2.42059 4.22489 -0.264072 7.0373 0.0206653ZM9.13724 6.44759C9.17474 5.10526 8.31227 4.12902 7.07481 4.08834C5.79985 4.04766 4.82488 5.02391 4.82488 6.40692C4.82488 7.62722 5.76235 8.76617 6.88732 8.84752C8.04978 8.8882 9.13724 7.74925 9.13724 6.44759Z" fill="white" fill-opacity="0.5"/>
</svg>
