<svg width="23" height="22" viewBox="0 0 23 22" fill="none" xmlns="http://www.w3.org/2000/svg">
    <path d="M22.9898 1.65169C22.6092 3.64768 22.1905 5.89315 21.7719 8.13863C21.0487 12.0474 20.2875 15.9562 19.5644 19.865C19.1077 22.3184 18.6129 22.5679 16.8621 21.0709C15.6823 20.0729 14.5024 19.1581 13.2845 18.2017C12.295 17.4532 12.2188 17.4532 11.3054 18.2017C10.5823 18.8255 9.89717 19.4492 9.17404 20.0314C8.29866 20.7383 7.80388 20.6135 7.46134 19.4908C6.9285 17.7859 6.39567 16.0394 6.01507 14.2929C5.74865 13.1286 5.17775 12.5464 4.15013 12.2553C3.08445 11.9227 2.0949 11.4653 1.06728 11.0079C0.610564 10.7999 0.0396642 10.6752 0.00160425 9.9267C-0.0364556 9.09504 0.61056 8.92871 1.10534 8.72079C5.36805 6.93273 9.63076 5.14466 13.8554 3.35659C16.1771 2.40019 18.4607 1.4022 20.7823 0.445789C21.0868 0.32104 21.3913 0.154708 21.7338 0.071542C22.7234 -0.177956 23.0659 0.196291 22.9898 1.65169ZM17.5092 5.0615L17.5853 5.01991L17.5092 5.0615C17.433 5.22783 17.3189 5.31099 17.2427 5.43574C17.1666 5.43574 17.0524 5.43574 16.9763 5.47732C13.9696 7.47331 11.0009 9.46929 7.99418 11.4653C7.34716 11.8811 7.19493 12.4633 7.38523 13.1702C7.61359 14.1266 7.88001 15.0414 8.14643 15.9978C8.18449 16.1641 8.29867 16.3721 8.33673 16.5384C8.41285 16.3305 8.56508 16.1226 8.56508 15.8731C8.56508 14.4592 9.17404 13.4612 10.1255 12.5464C12.5233 10.1762 14.845 7.76439 17.2427 5.35258C17.3189 5.31099 17.395 5.18624 17.5092 5.0615Z" fill="white" fill-opacity="0.5"/>
</svg>
