<svg width="42" height="42" viewBox="0 0 42 42" fill="none" xmlns="http://www.w3.org/2000/svg">
    <path d="M21 0C9.42065 0 0 9.42065 0 21C0 32.5785 9.42065 42 21 42C32.5785 42 42 32.5785 42 21C42 9.42065 32.5802 0 21 0ZM30.3682 16.1937C30.3775 16.4018 30.3826 16.6115 30.3826 16.8213C30.3826 23.2086 25.5221 30.5712 16.6293 30.5712C13.8996 30.5712 11.3586 29.7735 9.22017 28.4015C9.59828 28.4463 9.98316 28.4692 10.3731 28.4692C12.6384 28.4692 14.7218 27.696 16.3764 26.4001C14.2617 26.3612 12.476 24.9638 11.861 23.0428C12.1554 23.0986 12.4591 23.1299 12.7695 23.1299C13.2102 23.1299 13.6382 23.0724 14.0434 22.9616C11.8323 22.5184 10.1667 20.5652 10.1667 18.2221C10.1667 18.2018 10.1667 18.1807 10.1676 18.1612C10.8189 18.5224 11.5641 18.7406 12.3559 18.7652C11.06 17.8998 10.2065 16.4195 10.2065 14.743C10.2065 13.8565 10.4442 13.0258 10.8603 12.3119C13.2432 15.237 16.8061 17.1605 20.8224 17.3635C20.7395 17.0091 20.698 16.6411 20.698 16.2613C20.698 13.5926 22.8618 11.4279 25.5306 11.4279C26.9212 11.4279 28.1757 12.015 29.0588 12.9539C30.161 12.7374 31.1929 12.3364 32.1293 11.7807C31.7656 12.9099 31.0018 13.8565 30.0011 14.4554C30.9798 14.3386 31.9136 14.0798 32.7773 13.6949C32.1327 14.6626 31.3131 15.5144 30.3682 16.1937Z" fill="#937C96"/>
</svg>
