<svg width="37" height="38" viewBox="0 0 37 38" fill="none" xmlns="http://www.w3.org/2000/svg">
    <path d="M18.4073 0.391357C8.25757 0.391357 0 8.64893 0 18.7987C0 28.9477 8.25757 37.206 18.4073 37.206C28.5564 37.206 36.8147 28.9477 36.8147 18.7987C36.8147 8.64893 28.5578 0.391357 18.4073 0.391357ZM26.6189 14.5858C26.6271 14.7682 26.6315 14.952 26.6315 15.1359C26.6315 20.7346 22.3712 27.1882 14.5762 27.1882C12.1836 27.1882 9.95624 26.4891 8.08185 25.2864C8.41328 25.3257 8.75064 25.3457 9.09245 25.3457C11.0781 25.3457 12.9043 24.668 14.3546 23.5321C12.5009 23.498 10.9357 22.2731 10.3967 20.5893C10.6547 20.6382 10.9209 20.6657 11.193 20.6657C11.5793 20.6657 11.9545 20.6153 12.3096 20.5181C10.3715 20.1296 8.91154 18.4176 8.91154 16.3638C8.91154 16.346 8.91154 16.3274 8.91228 16.3104C9.4832 16.627 10.1364 16.8183 10.8304 16.8398C9.69451 16.0813 8.94638 14.7837 8.94638 13.3142C8.94638 12.5371 9.15473 11.809 9.51953 11.1832C11.6082 13.7472 14.7312 15.4332 18.2516 15.6112C18.179 15.3005 18.1426 14.978 18.1426 14.6451C18.1426 12.3058 20.0393 10.4084 22.3786 10.4084C23.5975 10.4084 24.6971 10.923 25.4712 11.746C26.4373 11.5562 27.3419 11.2047 28.1626 10.7176C27.8438 11.7074 27.1743 12.5371 26.2971 13.0621C27.155 12.9597 27.9736 12.7329 28.7306 12.3955C28.1656 13.2437 27.4471 13.9904 26.6189 14.5858Z" fill="#937C96"/>
</svg>
