<svg width="23" height="21" viewBox="0 0 23 21" fill="none" xmlns="http://www.w3.org/2000/svg">
    <path d="M7.44688 21C4.69309 20.9581 2.59865 20.3298 0.659359 19.1987C0.387858 19.0312 0.232715 18.6961 0 18.4447C0.271501 18.3609 0.543002 18.2772 0.814503 18.2353C2.44351 18.1515 3.99494 17.8583 5.43002 16.9786C5.62395 16.8529 5.81788 16.6854 5.97302 16.5178C5.77909 16.3921 5.58516 16.2665 5.39123 16.1827C4.15008 15.6381 3.10287 14.8003 2.52108 13.4598C2.32715 12.9991 2.32715 12.6639 2.90894 12.5802C3.49073 12.4964 3.25801 12.3288 2.94772 12.1194C1.74536 11.2816 0.969646 10.1087 0.659359 8.64252C0.426644 7.59528 0.659359 7.42772 1.66779 7.67906C1.78415 7.72095 1.93929 7.72095 2.05565 7.76284C1.97808 7.59528 1.90051 7.42772 1.78415 7.26016C0.581788 5.66835 0.271501 3.90898 0.892074 1.98205C1.20236 1.06048 1.43508 1.01859 2.09444 1.73071C4.15008 3.99276 6.55481 5.58457 9.46374 6.17103C9.54132 6.17103 9.65767 6.25481 9.73524 6.25481C10.8212 6.42236 11.054 6.33859 11.054 5.12378C11.054 2.73607 12.3339 1.26992 14.2732 0.39024C15.7083 -0.279996 17.2209 -0.0705476 18.4233 0.892917C19.4317 1.68882 20.2462 1.60504 21.2159 1.10237C21.4874 0.976696 21.7201 0.809137 22.0304 0.725358C22.4182 0.599689 22.6121 0.851027 22.4182 1.22803C22.1855 1.73071 21.8752 2.1915 21.6037 2.69418C21.5261 2.81985 21.4486 2.94551 21.371 3.07118C21.4874 3.07118 21.6425 3.07118 21.7589 3.02929C22.1855 2.9874 22.5734 2.90363 23 2.86174C22.7673 3.28063 22.5346 3.74142 22.3019 4.16032C22.1467 4.41166 21.914 4.66299 21.6813 4.83055C20.9831 5.33323 20.8668 6.04536 20.8668 6.88315C20.7116 13.1666 16.2901 19.0731 10.6273 20.5392C9.42496 20.7906 8.14503 20.8743 7.44688 21Z" fill="white" fill-opacity="0.5"/>
</svg>
