<svg width="25" height="16" viewBox="0 0 25 16" fill="none" xmlns="http://www.w3.org/2000/svg">
    <path d="M14.8311 4.09837C14.8311 5.00638 14.7484 5.91439 14.8311 6.82241C14.9137 7.59422 15.4095 7.77582 15.8226 7.14021C16.6903 5.77819 17.4753 4.27997 18.2603 2.82715C18.4255 2.50934 18.5495 2.10073 18.7147 1.73753C19.0039 1.14732 19.3758 0.784114 20.0368 0.784114C21.2763 0.829515 22.5158 0.738713 23.7553 0.784114C24.8708 0.829515 25.2426 1.41972 24.8295 2.55474C24.4989 3.37195 24.0445 4.14377 23.59 4.87018C22.9702 5.86899 22.2679 6.77701 21.6481 7.73042C20.9458 8.86544 20.9871 9.27405 21.8134 10.2275C22.3918 10.8631 23.0116 11.4987 23.5487 12.1797C24.0031 12.7245 24.4163 13.3147 24.7468 13.9503C25.2839 14.9945 24.9534 15.7663 23.8792 15.8571C22.5571 15.9934 21.1937 16.0388 19.8716 15.8571C19.2105 15.7663 18.5908 15.1761 18.0537 14.7221C17.4753 14.1773 17.0208 13.4509 16.4424 12.9061C15.8226 12.2705 15.3269 12.4067 15.0376 13.2693C14.8724 13.6779 14.8311 14.1319 14.7897 14.5859C14.7484 15.4939 14.2526 15.8571 13.509 15.9479C11.2779 16.175 9.17082 15.6755 7.39424 14.1319C6.60924 13.4055 5.82425 12.6337 5.1632 11.7711C3.09741 9.04704 1.56873 5.95979 0.28794 2.73634C-0.290479 1.23812 -0.0425775 0.829515 1.44479 0.738713C4.99794 0.602511 4.95662 0.602511 6.56793 4.00756C7.10503 5.09718 7.68345 6.1868 8.38582 7.14021C8.79897 7.77582 9.37739 7.59422 9.46003 6.82241C9.58397 5.46039 9.58397 4.09837 9.46003 2.78174C9.41871 2.37314 8.96424 1.96453 8.59239 1.69213C7.93134 1.23812 8.22056 0.874916 8.63371 0.51171C8.71634 0.420908 8.79897 0.375508 8.92291 0.375508C10.5342 -0.1239 12.1869 -0.0784995 13.7982 0.239305C14.4179 0.375508 14.7484 0.920316 14.7484 1.64673C14.8311 2.50934 14.8311 3.28115 14.8311 4.09837Z" fill="white" fill-opacity="0.5"/>
</svg>
